<?xml version="1.0" encoding="utf-8"?>
<!-- Generator: Adobe Illustrator 17.1.0, SVG Export Plug-In . SVG Version: 6.00 Build 0)  -->
<!DOCTYPE svg PUBLIC "-//W3C//DTD SVG 1.1//EN" "http://www.w3.org/Graphics/SVG/1.1/DTD/svg11.dtd">
<svg version="1.1" id="Layer_1" xmlns="http://www.w3.org/2000/svg" xmlns:xlink="http://www.w3.org/1999/xlink" x="0px" y="0px"
	 viewBox="0 0 63 40" enable-background="new 0 0 63 40" xml:space="preserve">
<g>
	<g>
		<path fill="#A7C638" d="M22.7,14.7c1,0.1,2.1-0.3,2.8-0.7c1.2-0.7,2.2-1.7,2.5-3.1c0.3-1.4-0.1-2.6-1.2-3.5
			c-0.5-0.4-1-0.6-1.6-0.7c-0.9-0.2-1.9-0.1-2.7,0.2c-1.1,0.4-2,1.3-2.6,2.3c-0.3,0.5-0.6,1.1-0.7,1.7c0,0.2-0.2,1.9-0.2,1.9
			c-1,0.1-2.1-0.1-3.1-0.4c-0.3-0.1-1.1-0.1-1.4-0.4c1.7,1.9,5,2.4,5,2.5c0.3,1.3,1.6,2.4,2.8,2.9c1.5,0.6,3.2,0.7,4.7,0.2
			c0.5-0.2,1-0.4,1.4-0.7c0.1-0.1,0.4-0.3,0.5-0.3C23.6,17.3,22.7,14.8,22.7,14.7z M22,12.9c-0.3,0-0.2-1.6-0.1-1.7
			c0.3-1.2,1.5-2.2,2.7-2.1c0.3,0,0.6,0.2,0.8,0.4c0.3,0.3,0.2,0.8,0,1.2c-0.3,0.5-0.7,1-1.2,1.3C23.6,12.4,22.8,12.8,22,12.9z"/>
		<path fill="#A7C638" d="M29.5,16.5c0.2,0,0.6-0.4,0.7-0.5c1-0.9,1.9-1.9,2.7-3c0.7-1.1,1.6-1.9,2.9-2.3c1.5-0.5,3-0.6,4.5-0.4
			C40.4,10.3,36.9,17.2,29.5,16.5z"/>
		<path fill="#A7C638" d="M38,14c0,0,3.3-3.2,9.3-1.7c0,0-0.3,0.3-0.3,0.4c-0.3,0.3-0.6,0.6-0.9,0.8c-1,0.7-2.1,1.1-3.3,1
			c-0.9,0-1.7-0.3-2.6-0.4C39.9,14,39.4,14,39,14C38.8,13.9,38.1,13.8,38,14z"/>
	</g>
	<g>
		<path fill="#2F4C5E" d="M15.6,22.2c0,1,0.6,1.4,1.4,1.4c0.5,0,0.8-0.1,1.1-0.2l0.1,0.5c-0.3,0.1-0.7,0.2-1.3,0.2c-1.2,0-2-0.8-2-2
			c0-1.2,0.7-2.1,1.9-2.1c1.3,0,1.6,1.1,1.6,1.9c0,0.1,0,0.3,0,0.3H15.6z M17.7,21.7c0-0.5-0.2-1.2-1-1.2c-0.7,0-1.1,0.7-1.1,1.2
			H17.7z"/>
		<path fill="#2F4C5E" d="M21.5,24l-0.1-0.5h0c-0.2,0.3-0.6,0.6-1.2,0.6c-0.8,0-1.2-0.6-1.2-1.1c0-1,0.9-1.5,2.4-1.5v-0.1
			c0-0.3-0.1-0.9-0.9-0.9c-0.4,0-0.8,0.1-1,0.3l-0.2-0.5c0.3-0.2,0.8-0.4,1.3-0.4c1.2,0,1.5,0.8,1.5,1.6v1.5c0,0.3,0,0.7,0.1,1H21.5
			z M21.4,22c-0.8,0-1.7,0.1-1.7,0.9c0,0.5,0.3,0.7,0.7,0.7c0.5,0,0.8-0.3,1-0.7c0-0.1,0-0.2,0-0.2V22z"/>
		<path fill="#2F4C5E" d="M23.2,23.3c0.2,0.1,0.6,0.3,1,0.3c0.5,0,0.8-0.3,0.8-0.6c0-0.3-0.2-0.5-0.7-0.7c-0.7-0.3-1.1-0.6-1.1-1.1
			c0-0.6,0.5-1.2,1.4-1.2c0.4,0,0.8,0.1,1,0.2l-0.2,0.5c-0.2-0.1-0.4-0.2-0.8-0.2c-0.4,0-0.7,0.2-0.7,0.5c0,0.3,0.2,0.5,0.8,0.7
			c0.7,0.3,1,0.6,1,1.2c0,0.7-0.5,1.2-1.5,1.2c-0.4,0-0.8-0.1-1.1-0.3L23.2,23.3z"/>
		<path fill="#2F4C5E" d="M26.8,20.1l0.9,2.3c0.1,0.3,0.2,0.6,0.3,0.8h0c0.1-0.2,0.2-0.5,0.3-0.8l0.8-2.3h0.8l-1.1,2.8
			c-0.5,1.4-0.9,2.1-1.4,2.5c-0.4,0.3-0.7,0.4-0.9,0.5l-0.2-0.6c0.2-0.1,0.4-0.2,0.6-0.4c0.2-0.2,0.4-0.4,0.6-0.8
			c0-0.1,0.1-0.1,0.1-0.2s0-0.1,0-0.2L26,20.1H26.8z"/>
		<path fill="#2F4C5E" d="M30.4,21.4c0-0.5,0-0.9,0-1.3H31l0,0.7h0c0.3-0.5,0.8-0.8,1.4-0.8c1,0,1.7,0.8,1.7,2
			c0,1.4-0.9,2.1-1.8,2.1c-0.5,0-1-0.2-1.2-0.6h0v2.2h-0.7V21.4z M31.1,22.4c0,0.1,0,0.2,0,0.3c0.1,0.5,0.6,0.8,1.1,0.8
			c0.8,0,1.2-0.6,1.2-1.5c0-0.8-0.4-1.5-1.2-1.5c-0.5,0-1,0.4-1.1,0.9c0,0.1,0,0.2,0,0.3V22.4z"/>
		<path fill="#2F4C5E" d="M37.3,24l-0.1-0.5h0c-0.2,0.3-0.6,0.6-1.2,0.6c-0.8,0-1.2-0.6-1.2-1.1c0-1,0.9-1.5,2.4-1.5v-0.1
			c0-0.3-0.1-0.9-0.9-0.9c-0.4,0-0.8,0.1-1,0.3L35,20.3c0.3-0.2,0.8-0.4,1.3-0.4c1.2,0,1.5,0.8,1.5,1.6v1.5c0,0.3,0,0.7,0.1,1H37.3z
			 M37.2,22c-0.8,0-1.7,0.1-1.7,0.9c0,0.5,0.3,0.7,0.7,0.7c0.5,0,0.8-0.3,1-0.7c0-0.1,0-0.2,0-0.2V22z"/>
		<path fill="#2F4C5E" d="M39.8,18.9c0,0.2-0.2,0.4-0.5,0.4c-0.3,0-0.4-0.2-0.4-0.4c0-0.3,0.2-0.5,0.5-0.5
			C39.7,18.5,39.8,18.7,39.8,18.9z M39,24v-4h0.7v4H39z"/>
		<path fill="#2F4C5E" d="M40.8,23.3c0.2,0.1,0.6,0.3,1,0.3c0.5,0,0.8-0.3,0.8-0.6c0-0.3-0.2-0.5-0.7-0.7c-0.7-0.3-1.1-0.6-1.1-1.1
			c0-0.6,0.5-1.2,1.4-1.2c0.4,0,0.8,0.1,1,0.2l-0.2,0.5c-0.2-0.1-0.4-0.2-0.8-0.2c-0.4,0-0.7,0.2-0.7,0.5c0,0.3,0.2,0.5,0.8,0.7
			c0.7,0.3,1,0.6,1,1.2c0,0.7-0.5,1.2-1.5,1.2c-0.4,0-0.8-0.1-1.1-0.3L40.8,23.3z"/>
		<path fill="#2F4C5E" d="M46.4,24l-0.1-0.5h0c-0.2,0.3-0.6,0.6-1.2,0.6c-0.8,0-1.2-0.6-1.2-1.1c0-1,0.9-1.5,2.4-1.5v-0.1
			c0-0.3-0.1-0.9-0.9-0.9c-0.4,0-0.8,0.1-1,0.3l-0.2-0.5c0.3-0.2,0.8-0.4,1.3-0.4c1.2,0,1.5,0.8,1.5,1.6v1.5c0,0.3,0,0.7,0.1,1H46.4
			z M46.3,22c-0.8,0-1.7,0.1-1.7,0.9c0,0.5,0.3,0.7,0.7,0.7c0.5,0,0.8-0.3,1-0.7c0-0.1,0-0.2,0-0.2V22z"/>
	</g>
	<g>
		<path fill="#AAC939" d="M44.9,29.6c0,0-0.1-0.1-0.3-0.2c0,0,0-0.7,0.4-0.3c0,0,0.4,0.6-0.1,1h-1.4l-0.3-0.3l-0.5,0.6h-0.8l1.2-0.9
			l-0.3-1.1l0.1-0.1c0,0,0.3,0.7,0.6,1.2C43.5,29.5,43.7,29.7,44.9,29.6z"/>
		<ellipse fill="#AAC939" cx="44.3" cy="30.7" rx="0.3" ry="0.3"/>
		<path fill="#AAC939" d="M42.1,29.8h-3.3l0.6-0.7l0.1-1.7l-0.3,0.3l0,1.4c0,0-0.8,0.6-0.8,0.8v0.2h3.8l0.2-0.4H42.1z"/>
		<path fill="#AAC939" d="M36.6,30.4c0,0,0.8-0.1,1.3-0.6c0,0,0.1-0.3,0-0.4c0,0-0.4-0.4,0-0.5c0.1,0,0.4,0.4,0.2,1
			c0,0-0.2,0.7-0.8,0.7C37.3,30.7,36.3,30.7,36.6,30.4z"/>
		<circle fill="#AAC939" cx="37.8" cy="28.4" r="0.2"/>
		<path fill="#AAC939" d="M36.9,28.9c0,0,0.3,0.2,0.4,0.4v0.7c0,0-0.1,0.2-0.3,0.2h-1.2l-0.3-0.4l-0.6,0.6l-0.7,0
			c0,0-0.1-0.1,0.1-0.2l1.1-0.7L35,28.8v-0.4c0,0,0.5,0.7,0.7,1.2l0,0.1l1.3,0l0-0.2C37.1,29.6,36.5,29.3,36.9,28.9z"/>
		<ellipse fill="#AAC939" cx="36.2" cy="28.5" rx="0.3" ry="0.2"/>
		<path fill="#AAC939" d="M33,27.5c0,0,0.3-0.4,1.7-1.1c0,0,0.2,0,0,0.4c0,0-1.4,0.7-1.6,0.8C33.1,27.6,32.8,27.7,33,27.5z"/>
		<path fill="#AAC939" d="M34.9,27l-1.7,1c0,0-0.4,0.4,0,0.5c0,0,0.5,0.1,0.5,0.4L33.1,29L33,29.4c0,0,0.5-0.1,0.7,0.1
			c0,0,0.4,0.2,0,0.4c0,0-0.4,0.4-2.6,0.2c0,0-1.3-0.5-0.4-1c0,0,0.9-0.1,1.5,0.1l0.2,0l0-0.2c0,0,0.4-0.3-0.1-0.4h-0.2h-0.2
			c0,0-0.7-0.1-1-0.1c0,0-1.1,0.4-0.8,1.2c0,0,0.2,1.1,1.8,1c0,0,0.7,0.1,1.4-0.2c0,0,0.8-0.2,0.9-0.8c0,0,0.1-0.4-0.3-0.7v-0.5
			l-0.3-0.3C33.6,28.1,34.9,27.6,34.9,27"/>
		<path fill="#AAC939" d="M28.9,27.7c0,0,0.3-0.3,0.8-0.1c0.1,0,1-0.1,1-0.6c0-0.1-0.5,0.4-1.2,0.1C29.4,27.1,28.9,27.3,28.9,27.7z"
			/>
		<path fill="#AAC939" d="M29.6,28.1c0,0.1,0,2.3,0,2.3l0.3-0.4v-2.2L29.6,28.1z"/>
		<path fill="#AAC939" d="M28.9,29.5c0,0-0.3-0.7,0.2-0.4l0.1,0.2v0.6c0,0,0,0.2-0.2,0.3c0,0-0.6,0.1-0.8-0.1c0,0-0.2,0.3-0.8,0.2
			c0,0,0,0-0.1-0.1c0,0-0.4,0.3-0.9,0l-0.2-0.2l-0.1-1.8l0.2-0.3h0.1l0,1.9l0.1,0.1l0.7,0.1l0-0.3l0.1-0.1l0.1,0.1l0,0.2l0.6,0
			l0-0.4l0.2,0l0,0.4l0.6,0C28.9,29.7,29,29.6,28.9,29.5z"/>
		<circle fill="#A7C638" cx="24.7" cy="27.8" r="0.2"/>
		<path fill="#AAC939" d="M25.4,28.6c0,0-0.2-0.1-0.5-0.2c0-0.1,0-0.6,0.5-0.3c0,0,0.3,0.2,0.2,0.7c0,0-0.1,0.2,0.2,0.4v0.4
			c0,0-0.2,0.8-1.3,0.9c0,0-2.1,0.2-2.5-0.5c0,0-0.7-0.9,0.4-1.5l1.7,0c0,0,0.3,0.3-0.1,0.5c0,0-0.2,0-0.4-0.1c0,0-0.9-0.1-1.2,0.1
			c0,0-1,0.3,0,0.9L23,30l1.7,0c0,0,1.4-0.4,0.8-0.6l-0.1-0.1l-0.5,0l0-0.4l0.6,0C25.4,28.9,25.6,28.7,25.4,28.6z"/>
		<path fill="#AAC939" d="M21.6,29.7l-4.5,0c0,0-0.1-0.1,0.8-0.7c0,0,0.1,0,0.2,0.2h0.4c0,0,0.1-0.4,0.3,0l0.4,0
			c0,0,0.2-0.2,0.2-0.4v-0.6H19l0,0.3l0.1,0l0,0.2l-0.4,0l-0.1,0l0-0.5h-0.2v0.5H18l0-0.5l-0.2,0l0,0.5c0,0-0.8,0.5-0.9,0.7l0,0.5
			l4.6,0.1L21.6,29.7z"/>
	</g>
</g>
</svg>
