<?xml version="1.0" encoding="utf-8"?>
<!-- Generator: Adobe Illustrator 17.1.0, SVG Export Plug-In . SVG Version: 6.00 Build 0)  -->
<!DOCTYPE svg PUBLIC "-//W3C//DTD SVG 1.1//EN" "http://www.w3.org/Graphics/SVG/1.1/DTD/svg11.dtd">
<svg version="1.1" id="Layer_1" xmlns="http://www.w3.org/2000/svg" xmlns:xlink="http://www.w3.org/1999/xlink" x="0px" y="0px"
	 viewBox="0 0 63 40" enable-background="new 0 0 63 40" xml:space="preserve">
<g>
	<path d="M46.8,22.5c0-0.4-0.1-2.9-0.1-2.9c0-0.5-0.5-0.8-0.9-0.9c-0.5-0.2-1.1-0.2-1.7-0.1c-0.4,0.1-0.8,0.2-1.1,0.5
		c-0.2,0.3-0.3,0.6-0.4,0.9c0,0,0.7,0.1,0.7,0.1c0,0,0.2-0.3,0.2-0.3c0.3-0.6,1-0.7,1.6-0.6c0.3,0,0.5,0.1,0.6,0.4
		c0.1,0.1,0.1,0.2,0.2,0.3c0,0,0.1,0.5,0,0.5c-0.1,0-0.2,0.1-0.3,0.1c-0.1,0-0.3,0.1-0.4,0.1c-0.3,0.1-0.5,0.1-0.8,0.1
		c-0.3,0-0.5,0.1-0.8,0.1c-0.2,0-0.4,0.1-0.7,0.3c-0.3,0.2-0.6,0.5-0.6,0.9c0,0-0.3,1.4,1.2,1.5c0,0,1.4,0.3,2.3-0.6
		c0,0,0.1,0.4,0.2,0.5l0.8,0.1C47,23.7,46.8,22.9,46.8,22.5z M45.7,22.5c-0.2,0.3-0.6,0.5-0.9,0.6c-0.4,0.1-0.8,0.1-1.2-0.2
		c-0.2-0.2-0.4-0.6-0.2-0.9c0.2-0.4,0.7-0.5,1.2-0.6c0.3,0,0.5-0.1,0.8-0.1c0.1,0,0.5-0.1,0.5-0.2c0,0.3,0,0.5-0.1,0.8
		C45.8,22.1,45.8,22.3,45.7,22.5C45.7,22.5,45.7,22.5,45.7,22.5z"/>
	<path d="M38.5,18.6c-1.1,0-2,1.1-2,2.6c0,1.4,0.9,2.6,2,2.6c1.1,0,2-1.1,2-2.6C40.5,19.7,39.6,18.6,38.5,18.6z M38.7,23.1
		c-0.7,0-1.3-0.9-1.3-2c0-1.1,0.6-2,1.3-2c0.7,0,1.3,0.9,1.3,2C40,22.2,39.4,23.1,38.7,23.1z"/>
	<path d="M33.8,18.5c-1.3,0-2.3,1.2-2.3,2.6c0,1.4,1,2.6,2.3,2.6c1.3,0,2.3-1.2,2.3-2.6C36.2,19.6,35.1,18.5,33.8,18.5z M33.8,23.1
		c-0.8,0-1.5-0.9-1.5-2c0-1.1,0.7-2,1.5-2c0.8,0,1.5,0.9,1.5,2C35.4,22.2,34.7,23.1,33.8,23.1z"/>
	<path d="M24.6,22.4c-0.1-1,0-2-0.1-3c-0.1-0.9-0.9-1-1.7-1c0,0-2.1-0.1-2.3,1.5l0.8,0.1c0,0,0-0.9,1.4-0.9c0,0,1.3-0.2,1.1,1.3
		c-0.3,0.1-0.6,0.1-0.9,0.2c-0.7,0.1-1.4,0.1-2,0.5c-0.9,0.7-0.7,2,0.3,2.5c0.4,0.2,1,0.2,1.4,0c0.4-0.1,1-0.4,1.2-0.6
		c0,0,0.1,0.3,0.2,0.5c0,0,0.8,0,0.8,0C24.7,23.5,24.7,23,24.6,22.4z M23.2,22.7c-0.3,0.2-1.6,0.7-2-0.3c0-0.4,0-0.9,1.1-1.1
		c0.5-0.1,1.3-0.2,1.5-0.3C23.8,21,24,22.1,23.2,22.7z"/>
	<path fill="#3C9111" d="M17.3,18.3c-1.5,0-2.8,1.2-2.8,2.8c0,1.5,1.2,2.8,2.8,2.8c1.5,0,2.8-1.2,2.8-2.8
		C20.1,19.5,18.8,18.3,17.3,18.3z M17.3,22.4c-0.8,0-1.4-0.6-1.4-1.4c0-0.8,0.6-1.4,1.4-1.4c0.8,0,1.4,0.6,1.4,1.4
		C18.7,21.8,18.1,22.4,17.3,22.4z"/>
	<path fill="#3C9111" d="M12.8,20.1c0,0-0.2-0.3-0.2-0.3c-0.2-0.2-0.4-0.4-0.7-0.4c-1.6-0.2-2,2.5-0.6,3.1c0.2,0.1,1.4,0.5,1.6-0.7
		l-1.1-0.1v-0.9h2.6c0,0,0.2,2.3-2,2.9c-0.4,0.1-1.9,0.3-2.9-1.1c-0.2-0.3-0.9-1.5,0-3.2c0.2-0.3,0.9-1.2,2.5-1.2
		c0,0,1.5-0.1,2.1,1.4C14,19.6,12.8,20.1,12.8,20.1z"/>
	<path d="M24.9,18.6c0,0,0.8,0,0.8,0c0,0,0.1,2.8,0.1,3.1c0,0.5,0.3,1.1,0.9,1.3c0.7,0.2,1.2-0.4,1.5-0.9v-3.4h0.8v4.9h-0.7
		c0,0,0-0.6,0-0.6c0,0.3-0.9,0.6-1.1,0.7c-0.8,0.2-1.8-0.1-2.1-0.9C25,22.4,24.9,18.6,24.9,18.6z"/>
	<path d="M29.9,19.3v3.5c0,0,0,1,1,0.9l0.8,0c0,0-0.1-0.7-0.1-0.7c0,0-0.4,0-0.4,0c-0.3,0-0.4-0.1-0.5-0.4c-0.1-0.4-0.1-0.9-0.1-1.3
		c0-0.7,0-1.4,0-2l0.9,0l0-0.6h-0.9l0-1.7l-0.8,0.5v1.2h-0.6v0.7H29.9z"/>
	<rect x="40" y="16.7" width="0.7" height="6.9"/>
	<rect x="41.3" y="16.7" width="0.8" height="1"/>
	<rect x="41.3" y="18.6" width="0.8" height="5.1"/>
	<rect x="47.3" y="16.8" width="0.8" height="6.9"/>
	<path d="M46.4,17.1c0,0-0.2-2.4,1.8-3.3c0.4-0.1,3.5-1.3,4.5,2.2c0,0-0.5,0.1-0.5,0.1c-0.5,0.2-0.4,0.9-0.4,1.3
		c0,0.3-0.1,0.8,0.1,1.1c0.1,0.1,0.2,0.2,0.3,0.2c0.1,0,0.4,0.1,0.5,0c0,0-0.4,1.8-2.6,1.9c-0.2-0.1-0.9-0.5-1.2-0.2
		c0,0-0.5,1,0.4,1c0,0,0.5,0.1,0.8-0.3c0,0,2.3,0,3.2-2.3c0-0.1,0.1-0.1,0.2-0.2c0.1-0.1,0.1-0.2,0.1-0.3c0.1-0.3,0.1-0.7,0.1-1
		c0-0.3-0.3-0.4-0.5-0.4c0,0,0.3-2.8-2.6-3.8c0,0-2.2-0.5-3.8,1.2c-0.3,0.4-0.5,0.9-0.6,1.4c-0.1,0.3-0.1,0.6-0.1,1
		c0,0.2,0,0.3,0,0.5c0,0.1-0.1,0.3,0,0.4c0,0.1,0.1,0.1,0.2,0.2c0.1,0.1,0.1,0.3,0.4,0.4c0.5,0.1,0.3-0.5,0.3-0.8
		C46.8,17.4,46.7,17.1,46.4,17.1z"/>
	<text transform="matrix(1 0 0 1 24.5349 25.9201)"><tspan x="0" y="0" fill="#E46B0A" font-family="'MyriadPro-Bold'" font-size="2.4846">telephony</tspan><tspan x="11.3" y="0" font-family="'MyriadPro-Bold'" font-size="2.4846">made easy</tspan></text>
</g>
</svg>
