<?xml version="1.0" encoding="utf-8"?>
<!-- Generator: Adobe Illustrator 17.1.0, SVG Export Plug-In . SVG Version: 6.00 Build 0)  -->
<!DOCTYPE svg PUBLIC "-//W3C//DTD SVG 1.1//EN" "http://www.w3.org/Graphics/SVG/1.1/DTD/svg11.dtd">
<svg version="1.1" id="Layer_1" xmlns="http://www.w3.org/2000/svg" xmlns:xlink="http://www.w3.org/1999/xlink" x="0px" y="0px"
	 viewBox="0 0 63 40" enable-background="new 0 0 63 40" xml:space="preserve">
<g>
	<g>
		<circle fill="#EE2E24" cx="31.5" cy="13.1" r="6.2"/>
		<path fill="#FFFFFF" d="M31,6.9c-1.2,0.4-2.3,1.3-3,2.3c-1,1.4-1.5,4.3,0.7,4.9c1.5,0.4,3-0.7,4.1-1.5h-1.6c0,0-1-0.5,0.2-1.2
			c1.3,0,3,0,3,0c0.6,0,0.4,0.8,0.4,1.1c-0.1,0.4-0.1,0.8-0.2,1.2c-0.1,0.3,0,0.9-0.2,1.2c0,0-0.7,1.3-1.3,0
			c0.2-0.6,0.3-1.4,0.3-1.4s-2.2,2.3-5.3,1.9c-0.7-0.1-1.4-0.6-1.8-1.2c-1.1-1.5-0.7-3.7,0.4-5.1c0.5-0.6,1-1.1,1.6-1.4
			c0.4-0.2,0.8-0.4,1.2-0.5C29.7,7.1,30,7.1,30.2,7C30.5,7,30.8,7,31,6.9z"/>
	</g>
	<g>
		<path fill="#231F20" d="M45.8,22.8c0,0-0.2,0.5-0.2,0.5c0,0-0.2-0.3-0.3-0.3c-0.2-0.2-0.5-0.4-0.8-0.4c-1.1-0.3-2.1,0.6-2.4,1.6
			C42,24.6,41.9,25,42,25.4c0.1,0.7,0.6,1.3,1.3,1.4c0.8,0.2,1.4-0.2,1.9-0.7v0.4c0,0,0.5,0.8,0.9-0.1l0.6-3.7
			C46.7,22.7,46.1,22.4,45.8,22.8z M45.1,25.1c-0.3,0.7-1,1.2-1.6,0.9c-0.6-0.2-0.9-1-0.6-1.8c0.3-0.7,1-1.2,1.6-0.9
			C45.1,23.6,45.4,24.4,45.1,25.1z"/>
		<path fill="#231F20" d="M29,24.2c0-0.6-0.2-2-2.5-1.6c-0.3,0.1-1.6,0.6-1.7,2.1c-0.1,0.4,0,2.6,2.7,2.1c0.5-0.1,1-0.4,1.2-0.7
			c0,0,0.3-0.6-0.3-0.6c0,0-0.6,0.7-1.5,0.6c-0.4,0-1,0-1.2-1.2h2.9C28.5,25,29,25.1,29,24.2z M28.1,24.2h-2.2
			c0-0.3,0.6-0.8,1.1-0.9C28.3,23.3,28.1,24.2,28.1,24.2z"/>
		<path fill="#231F20" d="M18.3,22.7c-1-0.4-2.2,0.2-2.6,1.3c-0.4,1.1,0.1,2.3,1.1,2.7c1,0.4,2.2-0.2,2.6-1.3
			C19.8,24.3,19.3,23.1,18.3,22.7z M17.5,26.2c-0.7,0-1.2-0.6-1.2-1.4s0.7-1.4,1.4-1.4c0.7,0,1,0.6,1,1.4S18.2,26.2,17.5,26.2z"/>
		<path fill="#231F20" d="M9.1,26.3l0.9-4.7c0,0,0.8-1,1.4,0c0,0,0.8,2.7,0.8,2.7c0.3-0.5,0.5-0.9,0.8-1.4c0.2-0.4,0.4-0.7,0.6-1.1
			c0.2-0.4,0.3-0.8,0.9-0.8c0.5,0,0.9,0.2,0.9,0.7c-0.1,0.6-0.9,4.5-0.9,4.5s-0.3,1-1,0c0.2-0.9,0.7-3.6,0.7-3.6s-1.6,2.6-1.6,2.6
			c-0.2,0.2-0.6,0.3-0.8,0.2c-0.3-0.1-0.3-0.6-0.4-0.9c-0.2-0.6-0.4-1.2-0.5-1.9l-0.7,3.7C10.1,26.5,9.4,27.3,9.1,26.3z"/>
		<path fill="#231F20" d="M20,26.4l0.6-3.8c0,0,0.9-0.2,1,0.7c0-0.2,0.5-0.6,0.6-0.6c1.1-0.6,2.3,0.3,2.1,1.5c0,0.4-0.4,2.4-0.4,2.4
			s-0.5,0.6-1-0.1c0.1-1,0.3-2.3,0.3-2.3c0.1-1.1-1.6-1-1.8,0c-0.1,0.3-0.5,2.6-0.5,2.6S19.9,27,20,26.4z"/>
		<path fill="#231F20" d="M30.1,26.5l-0.9-3.6c0,0,0.7-0.8,1.1,0.1c0.1,0.6,0.5,2.4,0.5,2.4l1.5-2.5c0,0,0.4-0.6,1-0.1
			c0,0.1,0.2-0.1-0.7,1.4c-0.9,1.6-2.4,4.1-2.4,4.1s-0.2,0.3-0.9,0.2c0,0-0.4-0.1,0-0.5L30.1,26.5z"/>
		<path fill="#231F20" d="M36,24.7c0,0-0.8-0.1,0-0.8h1.9c0,0,0.4,0,0.3,0.5c-0.1,0.6-0.4,2.4-0.4,2.4s-0.6,0.4-0.9-0.5
			c0,0-0.4,0.3-0.4,0.3c-0.4,0.2-0.8,0.3-1.2,0.3c-0.8,0-1.5-0.4-2-1c-0.5-0.6-0.5-1.5-0.4-2.3c0,0,0.4-1.7,1.9-2.3
			c0,0,2.3-0.7,3.3,0.8c0,0,0.4,0.7-0.5,0.8c0,0-0.8-1.3-2.3-0.7c0,0-1.3,0.6-1.3,2.1c0,0-0.1,1.5,1.4,1.7c0,0,1.4,0.4,1.8-1.4
			L36,24.7z"/>
		<path fill="#231F20" d="M38.6,26.3c0,0-0.1,0.4,0.2,0.5c0,0,0.6,0.2,0.8-0.3c0,0,0.2-1.8,0.5-2.3c0.2-0.5,0.7-1.1,1.4-0.5
			c0,0,1-0.6,0-1.1c0,0-0.7-0.3-1.4,0.7c0,0-0.1-0.9-0.9-0.6L38.6,26.3z"/>
		<path fill="#231F20" d="M47.5,22.7c0,0,0.9-0.3,0.9,0.6c0,0,1.3-1.7,2.6,0c0,0,1.7-1.7,2.8,0c0,0,0.2,0.8-0.2,2.5l-0.2,0.8
			c0,0-0.4,0.5-1,0c0-0.3,0.1-0.7,0.1-1c0.1-0.6,0.5-1.5,0-2c-0.2-0.1-0.3-0.2-0.5-0.2c-0.2,0-0.9,0.3-0.9,0.6c0,0-0.4,2.6-0.4,2.6
			s-0.6,0.6-1,0l0.3-2.4c0,0-0.1-1.2-1.3-0.5c0,0-0.3,0.3-0.5,1l-0.3,1.9c0,0-0.5,0.6-1,0.1L47.5,22.7z"/>
	</g>
	<text transform="matrix(1.06 0 0 1 16.3667 31.7735)" fill="#8E8F91" font-family="'MyriadPro-It'" font-size="4.7034">money transfer</text>
</g>
</svg>
