<?xml version="1.0" encoding="utf-8"?>
<!-- Generator: Adobe Illustrator 17.1.0, SVG Export Plug-In . SVG Version: 6.00 Build 0)  -->
<!DOCTYPE svg PUBLIC "-//W3C//DTD SVG 1.1//EN" "http://www.w3.org/Graphics/SVG/1.1/DTD/svg11.dtd">
<svg version="1.1" id="Layer_1" xmlns="http://www.w3.org/2000/svg" xmlns:xlink="http://www.w3.org/1999/xlink" x="0px" y="0px"
	 viewBox="0 0 63 40" enable-background="new 0 0 63 40" xml:space="preserve">
<g>
	<path fill="#862165" d="M18.3,12c0,0,0-3,0-3c0-0.2-3.2-0.5-3.5-0.5c-1.8-0.1-4-0.3-5.5,0.8c-1.2,0.9-1.9,2.2-1.6,3.8
		c0.4,2.7,2.7,4.1,5.3,4.1c1.1,0.1,3,1.2,0.6,2.6c-2.2,0.1-3.9-0.1-5.5-0.8c0,0-0.1,3.4-0.1,3.4c1.1,0.1,2.2,0.2,3.3,0.3
		c0.9,0,1.9,0.1,2.8,0c0.9,0,1.9,0,2.7-0.6c1.3-1.1,2.3-2.6,2.1-4.3c-0.2-1.2-0.9-2.3-1.9-3c-0.9-0.6-2-0.9-3.1-0.9
		c-0.7,0-1.8-0.3-2.3-0.8c-0.7-0.7,0-1.7,0.8-1.9C13.3,10.9,16.4,11,18.3,12z"/>
	<path fill="#862165" d="M20.1,8.8v13.9h3.7v-3.8h0.8l1.4,3.8h4.6l-2.6-4.9L27.8,17c0,0,2.3-3.2,2.7-4.9l-4.3-0.2l-1.8,3.6h-0.6
		L24,8.4L20.1,8.8z"/>
	<path fill="#862165" d="M31.5,22.7c0-1,0-2,0-3c0-0.8,0-1.6,0-2.4c0-0.8-0.2-1.8,0.1-2.6c0.1-0.4,0.4-0.8,0.7-1.1
		c0.8-0.9,1.9-1.5,3.1-1.6c2.9-0.1,2.3,0,2.3,0l0,3c0,0-2.6-0.5-2.6,1.8s0.2,5.7,0.2,5.7S31.5,22.7,31.5,22.7z"/>
	<rect x="38.9" y="12" fill="#862165" width="3.4" height="10.6"/>
	<circle fill="#862165" cx="40.9" cy="9" r="1.9"/>
	<polygon fill="#862165" points="49.8,9 49.8,22.7 53.6,22.7 53.6,8.4 	"/>
	<polygon fill="#862165" points="44,9 44,22.7 47.8,22.7 47.8,8.4 	"/>
</g>
<text transform="matrix(1 0 0 1 8.5195 28.3057)" font-family="'MyriadPro-Bold'" font-size="6.7351">moneybookers</text>
</svg>
