<svg xmlns="http://www.w3.org/2000/svg" xmlns:xlink="http://www.w3.org/1999/xlink" version="1.1" width="41.756" height="41.756" style="enable-background:new 0 0 41.756 41.756;" xml:space="preserve"><rect id="backgroundrect" width="100%" height="100%" x="0" y="0" fill="none" stroke="none"/>
















<g class="currentLayer" style=""><title>Layer 1</title><g id="svg_1" class="" fill="#ffffff" fill-opacity="1">
	<path d="M27.948,20.878L40.291,8.536c1.953-1.953,1.953-5.119,0-7.071c-1.951-1.952-5.119-1.952-7.07,0L20.878,13.809L8.535,1.465   c-1.951-1.952-5.119-1.952-7.07,0c-1.953,1.953-1.953,5.119,0,7.071l12.342,12.342L1.465,33.22c-1.953,1.953-1.953,5.119,0,7.071   C2.44,41.268,3.721,41.755,5,41.755c1.278,0,2.56-0.487,3.535-1.464l12.343-12.342l12.343,12.343   c0.976,0.977,2.256,1.464,3.535,1.464s2.56-0.487,3.535-1.464c1.953-1.953,1.953-5.119,0-7.071L27.948,20.878z" id="svg_2" fill="#ffffff" fill-opacity="1"/>
</g><g id="svg_3" class="" fill="#ffffff" fill-opacity="1">
</g><g id="svg_4" class="" fill="#ffffff" fill-opacity="1">
</g><g id="svg_5" class="" fill="#ffffff" fill-opacity="1">
</g><g id="svg_6" class="" fill="#ffffff" fill-opacity="1">
</g><g id="svg_7" class="" fill="#ffffff" fill-opacity="1">
</g><g id="svg_8" class="" fill="#ffffff" fill-opacity="1">
</g><g id="svg_9" class="" fill="#ffffff" fill-opacity="1">
</g><g id="svg_10" class="" fill="#ffffff" fill-opacity="1">
</g><g id="svg_11" class="" fill="#ffffff" fill-opacity="1">
</g><g id="svg_12" class="" fill="#ffffff" fill-opacity="1">
</g><g id="svg_13" class="" fill="#ffffff" fill-opacity="1">
</g><g id="svg_14" class="" fill="#ffffff" fill-opacity="1">
</g><g id="svg_15" class="" fill="#ffffff" fill-opacity="1">
</g><g id="svg_16" class="" fill="#ffffff" fill-opacity="1">
</g><g id="svg_17" class="" fill="#ffffff" fill-opacity="1">
</g></g></svg>