<?xml version="1.0" encoding="utf-8"?>
<!-- Generator: Adobe Illustrator 17.1.0, SVG Export Plug-In . SVG Version: 6.00 Build 0)  -->
<!DOCTYPE svg PUBLIC "-//W3C//DTD SVG 1.1//EN" "http://www.w3.org/Graphics/SVG/1.1/DTD/svg11.dtd">
<svg version="1.1" id="Layer_1" xmlns="http://www.w3.org/2000/svg" xmlns:xlink="http://www.w3.org/1999/xlink" x="0px" y="0px"
	 viewBox="0 0 63 40" enable-background="new 0 0 63 40" xml:space="preserve">
<path fill="#3D3D3D" d="M18.4,18.5c0,0-3.5-1.9-5.7,1.8c-0.4,0.7-1.6,4.1,1.3,4.1c0.6,0,1.3-0.1,2.3-1.4l0,1.4h1.3
	C17.6,24.4,17.4,22.2,18.4,18.5z M16,22.1c-0.4,0.7-1.6,1.9-2.2,0.7c-0.3-0.6,0.1-1.9,0.5-2.5c0.6-0.9,1.6-1.2,2.6-1.1
	C17,19.2,16.2,21.9,16,22.1z"/>
<path fill="#2F2F2F" d="M12,16.3c-0.6-0.4-1.4-0.6-2.2-0.6c-0.2,0-2.1,0-2.2,0.1c0,0-1.7,8.6-1.7,8.6h1.5l0.6-3.2
	c1.5,0,2.4-0.2,2.4-0.2c0.4-0.1,0.8-0.3,1.1-0.6C12.7,19.5,13.4,17.3,12,16.3z M8.4,20.1l0.6-3.2c2.5-0.1,2.4,0.6,2.4,1.6
	C11,20.2,8.4,20.1,8.4,20.1z"/>
<path fill="#F14A03" d="M18.4,28.4c0,0,4.6-13,18.8-16.2c0.1,0-1.2-1.3-1.4-1.3c-1.2-0.5-2.7-0.1-3.9,0.4c-5.9,2.6-10.7,8.3-13.5,14
	C18.3,26,18,26.6,18,27.3c0,0.2,0,0.5,0.1,0.7C18.1,28,18.4,28.5,18.4,28.4z"/>
<path fill="#F14A03" d="M19,11.6c3.1,1.3,2.8,5.6,1.6,8.2c-0.8-2.4-1.1-4.8-1.5-7.2C19,12.2,19,11.8,19,11.6z"/>
<path fill="#363636" d="M30.4,18.1c-1.4-0.8-3.3,0-4.3,1.7c-0.9,1.7-0.5,3.7,0.9,4.5c1.4,0.8,3.3,0,4.3-1.7
	C32.2,20.9,31.8,18.9,30.4,18.1z M30.2,22.1c-0.6,1-1.7,1.5-2.6,1c-0.9-0.5-1.1-1.7-0.5-2.7c0.6-1,1.7-1.5,2.6-1
	C30.6,19.8,30.8,21,30.2,22.1z"/>
<path fill="#343434" d="M32.1,24.3l1.1-6.2h1.2c0,0,0,1,0,1c0-0.4,1.6-1,1.9-1c0.7-0.2,1.4,0.1,1.8,0.7c0.4,0.7,0.2,1.4,0.1,2.1
	c-0.2,1.2-0.4,2.3-0.5,3.5c0,0-1.6,0-1.6,0c0.1-0.9,0.3-1.9,0.6-2.8c0.2-0.7,0.4-1.6-0.2-2.1c-0.7-0.7-1.9,0.7-2.1,1.3
	c-0.2,0.7-0.8,3.6-0.8,3.6H32.1z"/>
<path fill="#FFFFFF" d="M43,20.2c-0.4,0.7-1.9,0.5-2.5,0.5c0,0,0.1-0.1,0.1-0.2c0,0.1-0.1,0.2-0.1,0.2c0.7,0,1.8,0.2,2.3-0.4
	c0.2-0.2,0.3-0.4,0.2-0.7C43.1,19.7,43.1,19.9,43,20.2z"/>
<path fill="#343434" d="M50.5,24.3c0,0,0.9-3.4,1-6.2h1.3c0,0-0.2,0.7,0,1.2c0,0,0.6-1.4,2.2-1.4c0,0-0.2,1-0.2,1.4
	c0,0-1.5-0.3-2.2,1.9l-0.7,3.1H50.5z"/>
<path fill="#343434" d="M41.4,18.2c-1.6,0.6-2.7,2.5-2.4,4.2c0.4,2.2,3,2.5,4.7,1.5L43.6,23c0,0-3.5,1.5-3.2-1.2c0,0,3.9,0.3,4-2
	C44.5,18,42.7,17.7,41.4,18.2z M41.4,19.4c0.4-0.4,1.5-0.4,1.7,0.1c0,0.2-0.1,0.5-0.2,0.7c-0.5,0.6-1.6,0.4-2.3,0.4
	c0,0,0-0.1,0.1-0.2C40.9,20.1,41.3,19.5,41.4,19.4z"/>
<g>
	<path fill="#343434" d="M47.2,18.2c-1.6,0.6-2.7,2.5-2.4,4.2c0.4,2.2,3,2.5,4.7,1.5L49.4,23c0,0-3.5,1.5-3.2-1.2c0,0,3.9,0.3,4-2
		C50.4,18,48.6,17.7,47.2,18.2z M48.7,20.2c-0.5,0.6-1.6,0.4-2.3,0.4c0,0,0.4-0.9,0.5-1c0.4-0.5,1.2-0.7,1.7-0.3
		C49.1,19.5,48.9,19.9,48.7,20.2z"/>
</g>
<g>
	<text transform="matrix(1 0 0 1 21.4439 27.4514)" fill="#606060" font-family="'Nyala-Regular'" font-size="3.0014">Global Payments Made Easy</text>
</g>
<g>
	<path fill="#6D6B6B" d="M56.8,17.3c-0.6,0-1.2,0.5-1.2,1.2c0,0.6,0.5,1.2,1.2,1.2c0.7,0,1.2-0.5,1.2-1.2
		C57.9,17.9,57.4,17.3,56.8,17.3z M56.8,19.5c-0.5,0-1-0.4-1-1c0-0.5,0.4-1,1-1c0.5,0,1,0.4,1,1C57.7,19,57.3,19.5,56.8,19.5z"/>
	<text transform="matrix(1 0 0 1 56.2433 19.0779)" font-family="'MyriadPro-Regular'" font-size="2">R</text>
</g>
</svg>
