<?xml version="1.0" encoding="utf-8"?>
<!-- Generator: Adobe Illustrator 17.1.0, SVG Export Plug-In . SVG Version: 6.00 Build 0)  -->
<!DOCTYPE svg PUBLIC "-//W3C//DTD SVG 1.1//EN" "http://www.w3.org/Graphics/SVG/1.1/DTD/svg11.dtd">
<svg version="1.1" id="Layer_1" xmlns="http://www.w3.org/2000/svg" xmlns:xlink="http://www.w3.org/1999/xlink" x="0px" y="0px"
	 viewBox="0 0 63 40" enable-background="new 0 0 63 40" xml:space="preserve">
<g>
	<path fill="#F47A23" d="M40.9,21.6c0,0,0.3,0.8-1,0.8c-1.3,0.1-2.5-0.1-2.5-0.1s-0.8-0.1-0.8-1.2c0,0,5.4,0,5.4,0s0.2-0.9-0.3-2.1
		c-0.3-0.4-0.7-1-2.1-1c-0.6,0-1.2,0-1.8,0.1c-0.6,0-1.1,0.1-1.6,0.4c-0.4,0.3-0.7,0.8-0.8,1.3c0,0.5-0.1,1.8,0.2,2.2
		c0.1,0.2,0.3,1.2,1.8,1.3c0.9,0.1,2.5,0.3,3.5,0c0.4-0.2,1.2-0.4,1.1-1.8L40.9,21.6z M40.7,20c-0.4,0.1-1.2,0-1.4,0h-2.6
		c0,0,0,0,0,0c-0.1-0.3-0.1-0.3,0.3-0.7c0.5-0.4,2.9-0.3,3-0.3c0.6,0.1,0.8,0.4,0.9,0.6c0,0,0,0,0,0c0.1,0.1,0.1,0.1,0.1,0.2
		L40.7,20z"/>
	<g>
		<path fill="#176E9E" d="M17.5,18.1c-0.8,0-1.5,0-2.3,0c-0.6,0-1.6,0.1-2,0.6C12.9,19,13,19.4,13,19.8c0,0,1.1-0.1,1.1-0.1
			s0-0.7,0.6-0.7c0.6,0,2.4,0,2.4,0s1.1-0.2,1,1.3c0-0.2-1.6-0.3-1.7-0.3c-0.8,0-1.6,0-2.4,0.1c-0.5,0.1-1,0.4-1.1,1
			c0,0-0.2,1.4,0.5,1.9c0.3,0.2,0.3,0.3,1.9,0.4c1.5,0,2.5,0.2,2.9-0.4v0.4h1.1v-3.7C19.2,19.7,19.1,18.3,17.5,18.1z M17.4,22.4
			h-2.9c-0.3,0-0.6-0.3-0.6-0.6c0-0.2,0.1-0.3,0.2-0.5c0.1-0.1,0.3-0.2,0.4-0.2h2.9c0.3,0,0.6,0.3,0.6,0.6
			C18,22.2,17.7,22.4,17.4,22.4z"/>
	</g>
	<g>
		<path fill="#F47A23" d="M55,18.1c-0.8,0-1.5,0-2.3,0c-0.6,0-1.6,0.1-2,0.6c-0.3,0.4-0.2,0.8-0.2,1.2c0,0,1.1-0.1,1.1-0.1
			s0-0.7,0.6-0.7c0.6,0,2.4,0,2.4,0s1.1-0.2,1,1.3c0-0.2-1.6-0.3-1.7-0.3c-0.8,0-1.6,0-2.4,0.1c-0.5,0.1-1,0.4-1.1,1
			c0,0-0.2,1.4,0.5,1.9c0.3,0.2,0.3,0.3,1.9,0.4c1.5,0,2.5,0.2,2.9-0.4v0.4h1.1v-3.7C56.7,19.7,56.6,18.3,55,18.1z M54.9,22.4h-2.9
			c-0.3,0-0.6-0.3-0.6-0.6c0-0.2,0.1-0.3,0.2-0.5c0.1-0.1,0.3-0.2,0.4-0.2h2.9c0.3,0,0.6,0.3,0.6,0.6C55.6,22.2,55.3,22.4,54.9,22.4
			z"/>
	</g>
	<path fill="#176E9E" d="M11.6,19.9c-0.3-1.3-0.9-1.5-1.1-1.6c-0.8-0.4-3.2-0.2-3.2-0.2C6,18.2,6,18.5,6,18.5
		c-0.6,1.1-0.6,2.5-0.3,3.6c0.1,0.4,0.2,0.7,0.5,0.9c0.6,0.5,1.7,0.4,2.4,0.4c1,0,2.1-0.1,2.7-1C11.8,21.2,11.6,20.5,11.6,19.9z
		 M9.6,22.3c-0.2,0-0.3,0-0.5,0.1c-0.7,0.1-1.3,0.1-2,0c-0.2,0-0.5-0.1-0.7-0.2C6.1,21.9,6,21.3,6,20.9c0-0.5-0.1-1,0.3-1.4
		c0.3-0.3,0.7-0.4,1.2-0.4c0.5,0,1,0,1.5,0c0.4,0,0.8,0,1.1,0.3c0.3,0.3,0.4,0.7,0.4,1.1c0,0.4,0.1,1-0.1,1.4
		C10.2,22.1,9.9,22.2,9.6,22.3z"/>
	<path fill="#176E9E" d="M5,18.2v7h1v-7C6,18.2,5.3,18.1,5,18.2z"/>
	<path fill="#176E9E" d="M19.8,18.2l2.8,5.2c0,0,0.1,0.8-1.9,0.6c-0.1,0,0,1,0,1s1.9,0.6,2.9-1c0.9-1.7,3-5.8,3-5.8h-1.1l-2.2,4.1
		L21,18.2H19.8z"/>
	<path fill="#F47A23" d="M23,26.2c0,0,5,0.2,7.6-1.1c0.6-0.3,2.6-1.2,0.4-2.7c-0.7-0.5-3.4-2-2.6-3.9c0.2-0.4,1.5-3.4,10.6-3
		c0-0.1-6.1,0.5-7.5,1.5c-0.3,0.2-2.9,1.7,0.1,3.4c0.7,0.5,2.6,1.7,2.7,2.9c-0.1,0.4-0.4,1.9-2.8,2.6C30.5,26.1,24.7,26.7,23,26.2z"
		/>
	<path fill="#F47A23" d="M44.4,23.3c0,0,0-3.1,0-3.1c0-0.5,0.4-0.9,0.8-1c0.3-0.1,0.7-0.2,1.1-0.2c0.3,0,0.7,0,1,0.1
		c0.7,0.3,0.5,0.9,0.5,1.5l1.1,0c0,0,0-1,0-1c0-0.5-0.4-1-0.7-1.2c-0.4-0.3-1-0.3-1.5-0.3c-0.6,0-1.8-0.1-2.3,0.5V18h-1.1v5.3
		C43.4,23.3,43.8,23.5,44.4,23.3z"/>
</g>
</svg>
