<?xml version="1.0" encoding="utf-8"?>
<!-- Generator: Adobe Illustrator 17.1.0, SVG Export Plug-In . SVG Version: 6.00 Build 0)  -->
<!DOCTYPE svg PUBLIC "-//W3C//DTD SVG 1.1//EN" "http://www.w3.org/Graphics/SVG/1.1/DTD/svg11.dtd">
<svg version="1.1" id="Layer_1" xmlns="http://www.w3.org/2000/svg" xmlns:xlink="http://www.w3.org/1999/xlink" x="0px" y="0px"
	 viewBox="0 0 63 40" enable-background="new 0 0 63 40" xml:space="preserve">
<g>
	<rect x="2.9" y="2.7" fill="#121C7C" width="57.3" height="9.4"/>
	<rect x="2.9" y="28.5" fill="#E59703" width="57.3" height="9.6"/>
	<path fill="#1B1D74" d="M12.9,13.9v0.4c0,0,2.3-0.2,2.5,2.7c0,2.3,0.3,9.9,0.3,9.9H19l7.7-12.7l-2.8-0.2l-4.9,8.3l-0.2-8.3H12.9z"
		/>
	<polygon fill="#1B1D74" points="23.7,26.8 27.8,13.9 31.2,13.9 27,26.8 	"/>
	<path fill="#1B1D74" d="M40.1,16.9l-2.1-1.1c0,0-1.4-0.7-2.3,1.1c-0.2,0.3-0.5,1.1,1.6,2.4c0.7,0.4,3.1,2,1.6,5.4
		c-0.5,0.7-3.1,4.4-9.2,1.1c-0.1-0.1,1-1.9,1-1.9s1.8,1.5,4.2,0.8c0.5-0.2,2.1-1.1,0.6-2.4c-1.5-1.2-4.1-2.8-3.3-5.2
		c0.3-0.8,1.4-2.5,3.6-3.1c-0.1-0.1,3.4-1,5.6,1.2L40.1,16.9z"/>
	<path fill="#1B1D74" d="M49.7,13.9H46l-6.9,12.9h3l1.3-2.5h3.7l0.1,2.5h3.2L49.7,13.9z M44.3,22.2l2.4-4.6
		c-0.1,0.6,0.5,4.6,0.5,4.6H44.3z"/>
</g>
</svg>
