<?xml version="1.0" encoding="utf-8"?>
<!-- Generator: Adobe Illustrator 17.1.0, SVG Export Plug-In . SVG Version: 6.00 Build 0)  -->
<!DOCTYPE svg PUBLIC "-//W3C//DTD SVG 1.1//EN" "http://www.w3.org/Graphics/SVG/1.1/DTD/svg11.dtd">
<svg version="1.1" id="Layer_1" xmlns="http://www.w3.org/2000/svg" xmlns:xlink="http://www.w3.org/1999/xlink" x="0px" y="0px"
	 viewBox="0 0 63 40" enable-background="new 0 0 63 40" xml:space="preserve">
<path fill="none" stroke="#23B0D5" stroke-miterlimit="10" d="M55.3,32c0,0.5-0.4,0.9-0.9,0.9H9.2c-0.5,0-0.9-0.4-0.9-0.9V8
	C8.3,7.5,8.7,7,9.2,7h45.2c0.5,0,0.9,0.4,0.9,0.9V32z"/>
<g>
	<linearGradient id="SVGID_1_" gradientUnits="userSpaceOnUse" x1="12.1457" y1="13.9896" x2="22.1862" y2="13.9896">
		<stop  offset="0" style="stop-color:#FFFFFF"/>
		<stop  offset="9.712100e-003" style="stop-color:#FAFDFA"/>
		<stop  offset="0.1284" style="stop-color:#C0E6C5"/>
		<stop  offset="0.2503" style="stop-color:#8DD295"/>
		<stop  offset="0.3725" style="stop-color:#62C16D"/>
		<stop  offset="0.4952" style="stop-color:#3EB34C"/>
		<stop  offset="0.6187" style="stop-color:#23A933"/>
		<stop  offset="0.7432" style="stop-color:#0FA120"/>
		<stop  offset="0.8694" style="stop-color:#049D16"/>
		<stop  offset="1" style="stop-color:#009B12"/>
	</linearGradient>
	<rect x="12.1" y="13.4" fill="url(#SVGID_1_)" width="10" height="1.2"/>
	<linearGradient id="SVGID_2_" gradientUnits="userSpaceOnUse" x1="12.1457" y1="16.7006" x2="22.1862" y2="16.7006">
		<stop  offset="0" style="stop-color:#FFFFFF"/>
		<stop  offset="9.712100e-003" style="stop-color:#FAFDFA"/>
		<stop  offset="0.1284" style="stop-color:#C0E6C5"/>
		<stop  offset="0.2503" style="stop-color:#8DD295"/>
		<stop  offset="0.3725" style="stop-color:#62C16D"/>
		<stop  offset="0.4952" style="stop-color:#3EB34C"/>
		<stop  offset="0.6187" style="stop-color:#23A933"/>
		<stop  offset="0.7432" style="stop-color:#0FA120"/>
		<stop  offset="0.8694" style="stop-color:#049D16"/>
		<stop  offset="1" style="stop-color:#009B12"/>
	</linearGradient>
	<rect x="12.1" y="16.1" fill="url(#SVGID_2_)" width="10" height="1.2"/>
	<linearGradient id="SVGID_3_" gradientUnits="userSpaceOnUse" x1="12.1457" y1="19.7127" x2="22.1862" y2="19.7127">
		<stop  offset="0" style="stop-color:#FFFFFF"/>
		<stop  offset="9.712100e-003" style="stop-color:#FAFDFA"/>
		<stop  offset="0.1284" style="stop-color:#C0E6C5"/>
		<stop  offset="0.2503" style="stop-color:#8DD295"/>
		<stop  offset="0.3725" style="stop-color:#62C16D"/>
		<stop  offset="0.4952" style="stop-color:#3EB34C"/>
		<stop  offset="0.6187" style="stop-color:#23A933"/>
		<stop  offset="0.7432" style="stop-color:#0FA120"/>
		<stop  offset="0.8694" style="stop-color:#049D16"/>
		<stop  offset="1" style="stop-color:#009B12"/>
	</linearGradient>
	<rect x="12.1" y="19.1" fill="url(#SVGID_3_)" width="10" height="1.2"/>
	<polygon fill="#026E92" points="23,13.4 25.2,20.3 27.3,20.3 28.6,16.8 29.9,20.3 31.8,20.3 34.1,13.4 32,13.4 30.8,17.7 
		29.4,13.4 27.9,13.4 26.4,17.8 25.2,13.4 	"/>
	<rect x="35.2" y="13.4" fill="#006E8E" width="2.1" height="7.2"/>
	<path fill="#026B91" d="M43.4,17.8c0.6-0.5,1.3-1,1.6-1.7c0.3-0.8-0.2-1.5-0.8-2c-0.9-0.7-2-0.6-3-0.6c-0.1,0-2,0-2,0
		c0,0,0,7.2,0,7.2h2v-2.8l2.1,2.8h1.9C45.1,20.6,43.4,17.8,43.4,17.8z M41.1,16.8v-1.9c2,0,1.7,0.4,1.8,0.8
		C43.1,17,41.1,16.8,41.1,16.8z"/>
	<polygon fill="#026B91" points="46.3,13.4 46.3,20.5 51.2,20.6 51.2,18.9 48.3,18.9 48.4,17.8 51.2,17.7 51.2,16.1 48.3,16.1 
		48.4,14.8 51.2,14.8 51.2,13.4 	"/>
	<rect x="12" y="21.6" fill="#04AFDB" width="3.9" height="1"/>
	<rect x="13.2" y="22.5" fill="#00ABE4" width="1.4" height="3.9"/>
	<rect x="16.9" y="21.6" fill="#00AFE6" width="1.2" height="4.8"/>
	<path fill="#00AFD7" d="M19.7,24.5c1.6-0.6,1-2,1-2c-0.7-1.4-2.7-1-2.7-1v3l0.4-0.1l1.1,2h1.6L19.7,24.5z M18.2,23.8v-1.2
		c0,0,1.3-0.4,1.1,0.6C19.3,23.1,19.5,24,18.2,23.8z"/>
	<path fill="#04AED0" d="M24.9,21.5H23l-1.8,4.9h1.4l0.5-0.9h2.1l0.3,0.9h1.5L24.9,21.5z M23.2,24.5l0.6-1.9h0.4l0.5,1.9H23.2z"/>
	<polygon fill="#04AED0" points="27.5,26.4 27.5,21.5 28.9,21.4 31.5,24.8 31.5,21.5 32.9,21.4 32.9,26.4 31.5,26.4 28.9,23.2 
		28.9,26.4 	"/>
	<path fill="#04AED0" d="M37.1,22.6c0,0-1.7-0.7-1.6,0.1c0,0-0.3,0.4,1.3,0.7c0,0,1.1,0.4,1.1,1.6c-0.1,0.5-0.4,1.6-1.8,1.6
		c0,0-1.4,0-2.1-0.7l0.6-0.9c0,0,1.1,1,1.8,0.5c0,0,0.8-0.5-0.4-1c0,0-1.6-0.4-1.8-1c0,0-0.5-1.4,0.8-1.9c0,0,1.1-0.5,2.6,0.3
		L37.1,22.6z"/>
	<rect x="38.7" y="21.4" fill="#04AED0" width="1.4" height="5"/>
	<rect x="38.7" y="21.4" fill="#04AED0" width="3.4" height="1.2"/>
	<rect x="38.9" y="23.5" fill="#04AED0" width="3.2" height="0.9"/>
	<rect x="43.1" y="21.5" fill="#04AED0" width="1.3" height="4.8"/>
	<rect x="43.1" y="21.5" fill="#04AED0" width="3.2" height="1"/>
	<rect x="43.1" y="23.5" fill="#04AED0" width="3.2" height="0.9"/>
	<rect x="43.1" y="25.4" fill="#04AED0" width="3.2" height="1"/>
	<rect x="47.6" y="21.5" fill="#04AED0" width="1.2" height="4.8"/>
	<path fill="#04AED0" d="M51.6,26.4l-1.5,0.1l-1.2-1.8l-0.3,0l0-0.8h1.2c0,0,0.4-1.3-0.2-1.3c-0.5,0-1,0-1.1,0c0,0,0-1,0-1
		c0,0,1-0.1,1.1-0.1c0.5,0,1,0.2,1.4,0.6c0.7,0.8,0.2,1.9-0.7,2.3l-0.1,0.2L51.6,26.4z"/>
</g>
</svg>
