<svg height="512pt" viewBox="-6 0 512 512" width="512pt" xmlns="http://www.w3.org/2000/svg"><path d="M423.371 120.129c4.848-12.836.953-27.871-10.52-36.543l-.011-.012c-12.457-9.394-29.664-8.199-40.73 2.059a181.4 181.4 0 00-27.563-9.332c-42.617-10.715-87.375-5.969-126.031 13.355-38.97 19.477-67.133 51.446-79.305 90.004-11.434 36.16-7.45 74.278 11.176 107.762l-10.555 55.726a10.177 10.177 0 0011.016 12.016l62.57-6.281c12.832 6.945 26.7 12.324 41.281 16 14.688 3.687 29.805 5.515 44.899 5.515 22.82 0 45.586-4.183 66.687-12.457 5.235-2.05 7.813-7.957 5.762-13.187-2.05-5.23-7.953-7.813-13.188-5.762-31.148 12.211-66.379 14.395-99.195 6.153-13.914-3.508-27.078-8.75-39.129-15.583a10.116 10.116 0 00-6.734-1.171l-51.442 5.164 8.723-46.04c.461-2.43.02-4.945-1.242-7.074-17.29-29.242-21.277-62.855-11.227-94.652C180.43 116.7 261.605 76.437 339.59 96.04a160.992 160.992 0 0122.824 7.582c-1.879 11.285 2.402 23.215 12.137 30.578a31.63 31.63 0 0019.105 6.395c5.844 0 11.645-1.61 16.7-4.711 31.882 32.668 43.496 77.691 30.28 119.515-4.784 15.2-12.538 29.305-23.054 41.934-3.598 4.316-3.012 10.73 1.309 14.328a10.121 10.121 0 006.504 2.356 10.16 10.16 0 007.828-3.664c12.218-14.672 21.242-31.106 26.824-48.832 15.723-49.766 1.652-103.227-36.676-141.391zm-36.555-2.168c-5-3.781-5.988-10.938-2.207-15.941 2.235-2.95 5.645-4.5 9.094-4.5 2.402 0 4.824.75 6.883 2.304 4.992 3.781 5.973 10.934 2.2 15.93-3.79 5-10.958 5.984-15.97 2.207zm0 0"/><path d="M382.719 58.508c14.77-3.203 30.113.172 42.117 9.27 13.152 9.925 20.613 25.077 20.46 41.577-.054 5.622 4.462 10.215 10.083 10.27h.094c5.578 0 10.12-4.496 10.172-10.082.207-22.68-10.465-44.363-28.536-57.996-16.722-12.68-38.12-17.395-58.707-12.93-5.492 1.192-8.976 6.61-7.789 12.102 1.196 5.492 6.61 8.972 12.106 7.789zm0 0"/><path d="M460.453 20.68a102.1 102.1 0 00-83.351-18.34c-5.493 1.195-8.973 6.613-7.782 12.105 1.196 5.492 6.618 8.973 12.106 7.782a81.785 81.785 0 0166.758 14.683c20.843 15.758 32.675 39.8 32.464 65.973-.046 5.617 4.47 10.21 10.09 10.254a.633.633 0 00.086.004c5.578 0 10.13-4.5 10.172-10.094.266-32.188-14.89-62.98-40.543-82.367zm0 0M248.383 411.2c-26.992-19.06-43.82-25.122-66.309-8.11a9.802 9.802 0 00-1.304 1.176c-4.63.593-21.946-5.004-39.891-22.938-4.137-4.133-8.356-8.812-12.48-13.832-4.188-5.191-7.922-10.27-11.094-15.11-13.922-21.152-15.922-39.222-14.422-43.663.496-.301.965-.649 1.402-1.028 21.254-18.586 18.723-36.285 5.508-66.562-7.809-19.238-16.664-38.496-31.273-44.508-11.18-4.582-27.786 1.914-33.227 4.793-12.629 6.656-25.234 19.367-32.887 33.148-14.027 25.157-14.3 57.047-9.875 78.5C15.984 378.344 94.97 475.254 156.18 501.602 169.473 507.344 187.652 512 206.406 512c9.614 0 19.375-1.223 28.703-4.148 15.34-4.809 29.98-14.336 39.137-25.47 3.93-4.741 13.64-19.66 11.422-31.55-2.898-15.523-19.992-28.09-37.285-39.633zm10.168 58.23c-6.567 7.98-18.156 15.437-29.528 19.004-22.242 6.976-48.793 1.39-64.785-5.516-25.836-11.121-58.347-38.723-86.968-73.836-28.637-35.125-49.122-72.555-54.805-100.121v-.004c-3.52-17.055-3.61-44.176 7.726-64.496 5.758-10.371 15.414-20.2 24.614-25.05 4.586-2.43 11.394-4.106 14.668-4.106.547 0 .996.047 1.32.144 7.945 3.27 16.527 24.426 20.191 33.457.036.086.07.168.106.25 12.687 29.04 9.816 34.32.676 42.446-3.075 1.804-6.54 5.152-8.368 11.355-4.253 14.43 2.54 38.793 16.899 60.61 3.531 5.378 7.66 11.003 12.32 16.78 4.602 5.602 9.27 10.774 13.875 15.376 18.477 18.46 40.953 30.039 55.946 28.797 6.46-.536 10.453-3.254 12.847-5.903 9.8-7.289 15.555-9.027 41.465 9.281.074.051.148.106.223.157 8.117 5.41 27.117 18.086 28.675 26.433.23 2.446-3.226 10.266-7.097 14.942zm0 0M220.332 190.305l-11.043 29.882-11.043-29.882-.027-.059c-1.762-4.437-5.219-7-10.008-7-2.969 0-5.594 1.066-7.727 3.082-2.105 2.047-3.285 4.582-3.285 7.52 0 .867.086 1.73.258 2.593.176.664.348 1.329.578 1.989l.028.09 20.761 52.097.028.028c.925 2.105 2.191 4.609 4.007 6.082 1.875 1.527 4.356 1.93 6.72 1.93 5.16 0 8.39-3.575 10.206-8.098l20.703-51.954c.606-1.5.895-3.113.895-4.753 0-2.942-1.125-5.504-3.23-7.551-2.16-2.047-4.813-3.055-7.755-3.055-4.847 0-8.394 2.535-10.066 7.059zm0 0M414.41 190.219c-5.332-5.13-12.078-7.262-19.402-7.262h-17.735c-3.027 0-5.707 1.094-7.87 3.258-2.165 2.16-3.231 4.867-3.231 7.922v52.414c0 3 1.066 5.68 3.203 7.808 2.074 2.078 4.668 3.2 7.61 3.2s5.535-1.121 7.613-3.2c2.105-2.074 3.199-4.668 3.199-7.605v-11.957h8.133c7.148 0 13.754-2.047 18.914-7.149 5.074-5.043 7.207-11.496 7.207-18.585.004-7.29-2.332-13.774-7.64-18.844zM398.207 213.3c-1.152 1.125-2.422 1.758-4.035 1.758H387.8v-12.075h6.457c1.617 0 2.883.547 4.008 1.73 1.183 1.266 1.703 2.708 1.703 4.438 0 1.668-.61 2.965-1.762 4.149zm0 0M282.73 182.7c-10.152 0-19.03 3.34-26.066 10.745-7.121 7.524-10.121 16.887-10.121 27.176 0 10.371 3 19.852 10.176 27.461 6.98 7.402 15.773 10.863 25.922 10.863 10.18 0 19.03-3.488 25.98-10.98 7.063-7.578 10.121-16.856 10.121-27.145 0-10.316-3-19.71-10.12-27.257-6.95-7.407-15.743-10.864-25.892-10.864zm9.743 51.605c-2.567 3.199-5.766 4.699-9.832 4.699-4.094 0-7.325-1.441-9.86-4.64-3.054-3.833-3.949-8.844-3.949-13.63 0-4.754.95-9.539 4.035-13.285 2.567-3.11 5.738-4.637 9.778-4.637 4.093 0 7.324 1.442 9.859 4.637 3.027 3.805 3.95 8.703 3.95 13.457 0 4.785-.95 9.598-3.981 13.399zm0 0M334.371 185.61c-2.02 2.1-3.2 4.667-3.2 7.605v53.539c0 2.937 1.067 5.562 3.142 7.637 2.105 2.105 4.73 3.168 7.671 3.168 2.97 0 5.594-1.063 7.668-3.168 2.078-2.047 3.145-4.641 3.145-7.551v-53.625c0-2.969-1.04-5.59-3.086-7.723-2.047-2.133-4.64-3.285-7.613-3.285-3.028 0-5.653 1.211-7.727 3.402zm0 0M389.883 322.516l-.176.113c-4.676 3.121-5.937 9.437-2.82 14.113a10.165 10.165 0 008.476 4.531 10.15 10.15 0 005.637-1.71l.172-.114c4.676-3.117 5.937-9.437 2.82-14.113-3.117-4.672-9.433-5.941-14.11-2.82zm0 0"/></svg>