
<!-- Generator: Adobe Illustrator 19.2.0, SVG Export Plug-In . SVG Version: 6.00 Build 0)  -->
<svg version="1.1" id="Layer_4" xmlns="http://www.w3.org/2000/svg" xmlns:xlink="http://www.w3.org/1999/xlink" x="0px" y="0px"
	 viewBox="0 0 53.6 53.6" style="enable-background:new 0 0 53.6 53.6;" xml:space="preserve">
<style type="text/css">
	.st0{display:none;fill:#2686C7;}
	.st1{display:none;fill:none;stroke:#B0BABF;stroke-miterlimit:10;}
	.st2{display:none;}
	.st3{display:inline;fill:#2686C7;}
	.st4{display:none;fill:#FFFFFF;}
	.st5{display:inline;}
	.st6{fill:#FFFFFF;}
	.st7{fill:none;stroke:#2686C7;stroke-miterlimit:10;}
	.st8{fill:none;stroke:#D22427;stroke-miterlimit:10;}
	.st9{display:none;fill:#FFFFFF;stroke:#E53825;stroke-miterlimit:10;}
	.st10{display:none;fill:#FFFFFF;stroke:#6EBD44;stroke-miterlimit:10;}
	.st11{fill:#B0B9BE;}
	.st12{display:inline;fill:#0689D8;}
	.st13{fill:#0689D8;}
	.st14{display:inline;fill:none;stroke:#84E658;stroke-width:2;stroke-miterlimit:10;}
	.st15{display:inline;fill:none;stroke:#84E658;stroke-width:2;stroke-linecap:round;stroke-miterlimit:10;}
	.st16{display:inline;fill:none;stroke:#0689D8;stroke-width:2;stroke-linecap:round;stroke-miterlimit:10;}
	.st17{display:inline;fill:#84E658;}
	.st18{display:none;fill:#0689D8;}
	.st19{display:none;fill:#84E658;}
	
		.st20{display:inline;fill:#84E658;stroke:#007AFF;stroke-width:2;stroke-linecap:round;stroke-linejoin:round;stroke-miterlimit:10;}
	.st21{display:none;fill:none;}
	.st22{fill:#B0BABF;}
</style>
<path class="st0" d="M35.3,1.8c-2.8-1.3-5.7-2-8.7-2c-5.8,0-11.6,2.5-15.9,6.9c-3.3,3.3-5,7.9-5.2,13.9c0,1.8-0.7,3.6-1.5,5.5
	c-0.2,0.5-0.4,1-0.6,1.5c-0.1,0.2-0.2,0.5-0.4,0.9c-0.7,1.5-1.2,2.8-1,3.9c0.4,1.7,2.1,2.2,3.4,2.6c0.5,0.1,1.3,0.4,1.4,0.5
	c0.2,0.5,0,2.7,0,3.7c-0.1,0.9-0.1,1.6-0.1,2.1c0.2,3.3,1,6.4,6,6.6c1.8,0.1,4,0.2,5.6,1.2c0.6,0.4,0.7,0.6,1,1.3
	c0,0.1,0.1,0.3,0.2,0.6c0.3,1.2,0.6,2.2,0.8,2.8c0.2,0.5,0.7,0.9,1.3,0.9h20.3c0.4,0,0.8-0.2,1.1-0.5c0.3-0.3,0.4-0.8,0.3-1.2
	c-0.5-2.4-0.7-6.2-0.7-7.9c0-4.1,0.5-7.5,1.6-9.8c0.1-0.2,0.2-0.4,0.3-0.6c2.1-4.2,3.5-7.8,3.5-12.2C48,13.6,42.9,5.4,35.3,1.8z
	 M42,33.3c-0.1,0.2-0.2,0.4-0.3,0.7c-1.3,2.7-1.9,6.4-1.8,11c0,1.5,0.1,4.3,0.5,6.7H22.7c-0.1-0.5-0.3-1.1-0.4-1.5
	c-0.1-0.4-0.2-0.8-0.2-0.8c-0.4-1.2-0.9-2-2.2-2.8C17.7,45.3,15,45.1,13,45c-2.6-0.1-3.2-0.9-3.4-3.9c0-0.3,0-1.1,0.1-1.8
	c0.2-2.6,0.3-4.3-0.3-5.4c-0.7-1.1-1.9-1.5-3-1.8C5.9,32,5.2,31.7,5,31.6c0.1-0.4,0.5-1.5,0.8-2c0.2-0.4,0.4-0.8,0.5-1.1
	c0.2-0.5,0.4-0.9,0.5-1.4c0.8-2,1.6-4.1,1.6-6.4c0.1-5.3,1.6-9.2,4.3-12c3.8-3.8,8.9-6,13.9-6c2.6,0,5.1,0.6,7.5,1.7
	c6.5,3,11.1,10.4,11.1,17.9C45.2,26.2,43.9,29.5,42,33.3z M26.4,7.6c-7.8,0-14.1,6.3-14.1,14.1s6.3,14.1,14.1,14.1
	s14.1-6.3,14.1-14.1C40.5,13.9,34.1,7.6,26.4,7.6z M26.4,33c-6.2,0-11.3-5-11.3-11.3c0-6.2,5.1-11.3,11.3-11.3s11.3,5.1,11.3,11.3
	C37.6,27.9,32.6,33,26.4,33z M27.7,20.7l-0.6-0.1v-4c0.6,0.1,1.1,0.2,1.4,0.3c0.3,0.1,0.7,0.4,1,0.7l1.3-1.3
	c-0.6-0.5-1.2-0.9-1.6-1.1c-0.5-0.2-1.1-0.3-2-0.4v-1.7h-1.5v1.7c-0.7,0.1-1.2,0.2-1.6,0.4c-0.4,0.2-0.8,0.5-1.2,0.9
	c-0.6,0.7-0.9,1.5-0.9,2.6c0,1,0.3,1.8,0.9,2.4c0.6,0.6,1.5,1,2.6,1.1l0.5,0.1v4.1c-0.7-0.1-1.3-0.2-1.8-0.4
	c-0.4-0.2-0.8-0.5-1.3-0.9l-1.3,1.3c0.7,0.6,1.3,1.1,1.9,1.3c0.6,0.2,1.4,0.4,2.3,0.5v2h1.5v-2.1c0.9-0.1,1.6-0.3,2-0.5
	c1.4-0.7,2.1-1.8,2.1-3.3c0-1.2-0.4-2.1-1.1-2.7C29.6,21.1,28.8,20.8,27.7,20.7z M25.9,20.4c-0.7-0.1-1.2-0.3-1.5-0.6
	s-0.5-0.7-0.5-1.3c0-1.2,0.7-1.8,2-2V20.4z M28.7,25.8c-0.4,0.3-0.9,0.5-1.6,0.6v-4c0.7,0.1,1.3,0.3,1.6,0.6
	c0.4,0.3,0.6,0.7,0.6,1.4S29.1,25.5,28.7,25.8z"/>
<circle class="st1" cx="26.9" cy="26.9" r="47.6"/>
<g class="st2">
	<path class="st3" d="M50.8,27.1c0-11.7-9.1-21.4-20.7-22.2v-6c0-0.9-0.7-1.6-1.6-1.6c-0.9,0-1.6,0.7-1.6,1.6v6
		c-5,0.3-9.5,2.3-13,5.4L9.7,6.1c-0.6-0.6-1.6-0.6-2.2,0s-0.6,1.6,0,2.2l4.2,4.2c-3.1,3.5-5,8.1-5.4,13h-6c-0.9,0-1.6,0.7-1.6,1.6
		c0,0.9,0.7,1.6,1.6,1.6h6c0.4,4.9,2.3,9.4,5.4,13L7.4,46c-0.6,0.6-0.6,1.6,0,2.2c0.3,0.3,0.7,0.5,1.1,0.5s0.8-0.2,1.1-0.5l4.3-4.3
		c3.5,3,8,5,12.9,5.4v6.1c0,0.9,0.7,1.6,1.6,1.6c0.9,0,1.6-0.7,1.6-1.6v-6.1C41.6,48.5,50.8,38.9,50.8,27.1z M28.2,46.2
		C17.8,46,9.4,37.6,9.4,27.1C9.4,16.7,17.8,8.2,28.1,8c1.6,0.8,9.1,5.6,9.1,19.1C37.3,40.7,29.8,45.4,28.2,46.2z M34.2,45.4
		c3-3.3,6.2-9,6.2-18.2c0-9.3-3.2-15-6.2-18.2c7.8,2.4,13.4,9.7,13.4,18.2S42,43,34.2,45.4z"/>
	<path class="st3" d="M22.8,23.1c0-2.4-1.1-4.5-3.8-4.5c-2.1,0-3.8,1.8-3.8,3.9v1.4h2.6v-1.5c0-0.8,0.5-1.3,1.3-1.3
		c1.3,0,1.3,1.1,1.3,2c0,1,0,1.5-0.5,2.4l-4.6,8.7v2.4h7.5V34h-4.6l3.8-7.3C22.8,25.3,22.8,24.9,22.8,23.1z"/>
	<polygon class="st3" points="31.6,31.6 31.6,26.5 29,26.5 29,31.6 26.5,31.6 30.3,18.8 27.6,18.8 23.9,31.6 23.9,34 29,34 29,36.7 
		31.6,36.7 31.6,34 32.8,34 32.8,31.6 	"/>
</g>
<g class="st2">
	<circle class="st3" cx="19.1" cy="29.5" r="2.6"/>
	<circle class="st3" cx="34.5" cy="29.5" r="2.6"/>
	<path class="st3" d="M49.1,20c-0.6-4.6-2.6-8.9-5.7-12.4C39.2,3,33.3,0.4,27,0.4S14.8,3,10.6,7.6c-3.2,3.5-5.2,7.9-5.7,12.6
		C2,21.7,2,25.8,2,28.1c0,2.5,0,7.2,3.8,8.3l2.9,0.9c0.3,0.1,0.6,0.1,0.9,0.1c0.6,0,1.1-0.2,1.6-0.5c0.8,2,1.9,4,3.2,5.8
		c2.9,3.8,6.4,6.2,10.2,6.9c0.3-1.1,0.8-2.1,1.6-3c-6.5-0.7-13.7-8.7-13.7-18.8c0-0.6,0-1.1,0.1-1.6l0,0c0.3,0,5.9-0.1,9.4-6.5
		c2.3,2.5,7.2,6.1,16.3,6.5h3.4c0.1,0.5,0.1,1.1,0.1,1.6c0,7.7-4.1,14.1-8.9,17.1c1.1,0.4,2.1,1,2.9,1.9c1.5-1.1,2.9-2.5,4.1-4.2
		c1.4-1.8,2.5-3.9,3.3-6c0.3,0.3,0.8,0.6,1.2,0.7c-0.6,1.6-1.7,3.8-3.2,5.8c-2.5,3.3-5.1,5.4-7.7,6.2c-0.7-0.9-1.7-1.5-2.8-1.5
		c-1.8,0-3.2,1.4-3.2,3.2c0,1.8,1.4,3.2,3.2,3.2c1.6,0,2.9-1.1,3.2-2.6c3.2-0.9,6.2-3.2,9.2-7.1c2.2-2.8,3.4-6,4-7.6l1.7-0.5
		c3.8-1.1,3.8-5.8,3.8-8.3C52.5,25.7,52.5,21.3,49.1,20z M9.1,34.1l-2.5-0.8c-1.1-0.3-1.5-1.8-1.5-5.2c0-1,0-1.8,0.1-2.4
		c0.3,0.3,0.7,0.5,1.2,0.5h2.8L9.1,34.1z M22.9,16c-0.3-0.5-0.8-0.9-1.4-0.9h-0.1c-0.6,0-1.2,0.4-1.4,1c-2.5,6.8-7.4,7-7.6,7H7.8
		c-0.1-4.9,1.7-9.7,5.1-13.3c3.6-4,8.6-6.1,14.1-6.1s10.5,2.2,14.1,6.1c3.3,3.6,5.1,8.4,5.1,13.3h-7.9C26.4,22.6,23,16.2,22.9,16z
		 M47.8,33.4l-2.5,0.7v-7.9h2.3c0.7,0,1.4-0.5,1.5-1.2c0.1,0.8,0.2,1.8,0.2,3.1C49.4,31.5,48.9,33.1,47.8,33.4z"/>
</g>
<path class="st4" d="M28.4,43.1c-5.5,0-10.6-2.1-14.5-6s-6-9-6-14.5S10,12,13.9,8.1c0.4-0.4,1.2-0.4,1.6,0l27.3,27.4
	c0.4,0.4,0.4,1.2,0,1.6C39,41,33.8,43.1,28.4,43.1z M14.7,10.6c-2.9,3.3-4.6,7.6-4.6,12c0,4.9,1.9,9.4,5.3,12.9
	c3.4,3.4,8,5.3,12.9,5.3c4.5,0,8.7-1.6,12-4.6L14.7,10.6z"/>
<path class="st4" d="M37.5,23.8c-0.6,0-1.1-0.5-1.1-1.1c0-4.4-3.6-8-8-8c-0.6,0-1.1-0.5-1.1-1.1s0.5-1.1,1.1-1.1
	c5.6,0,10.2,4.6,10.2,10.2C38.6,23.3,38.1,23.8,37.5,23.8z"/>
<path class="st4" d="M43.1,23.8c-0.6,0-1.1-0.5-1.1-1.1c0-7.5-6.1-13.6-13.6-13.6c-0.6,0-1.1-0.5-1.1-1.1s0.5-1.1,1.1-1.1
	c8.7,0,15.9,7.1,15.9,15.9C44.2,23.3,43.7,23.8,43.1,23.8z"/>
<path class="st4" d="M48.7,23.8c-0.6,0-1.1-0.5-1.1-1.1c0-10.6-8.6-19.2-19.2-19.2c-0.6,0-1.1-0.5-1.1-1.1s0.5-1.1,1.1-1.1
	c11.9,0,21.5,9.6,21.5,21.5C49.9,23.3,49.3,23.8,48.7,23.8z"/>
<path class="st4" d="M22.5,53.8H11.1c-0.6,0-1.6-0.2-1.6-0.8V32.5c0-0.6,0.4-1.1,1-1.1s1,0.5,1,1.1v19.3h9.4l-4.1-12.1
	c-0.2-0.6,0.1-1.2,0.7-1.4c0.6-0.2,1.2,0.1,1.4,0.7l4.5,13.7c0.1,0.3,0.1,0.6-0.2,0.9C23.2,53.8,22.9,53.8,22.5,53.8z"/>
<g id="Shopping_Bag" class="st2">
	<g class="st5">
		<path class="st6" d="M50.1,50L50.1,50l-4.6-34.4l0,0c-0.1-0.6-0.5-1-1.1-1h-8V10c0-5.1-4.1-9.2-9.2-9.2S18,4.9,18,10v4.6h-8
			c-0.6,0-1,0.4-1.1,1l0,0L4.3,50l0,0c0,0.1,0,0.1,0,0.1c0,0.6,0.5,1.1,1.1,1.1H49C49.6,51.2,50.1,50.7,50.1,50
			C50.1,50.1,50.1,50.1,50.1,50z M20.3,10c0-3.8,3.1-6.9,6.9-6.9c3.8,0,6.9,3.1,6.9,6.9v4.6H20.3V10z M11,16.9h7v4.9
			c-0.7,0.4-1.1,1.1-1.1,2c0,1.3,1,2.3,2.3,2.3s2.3-1,2.3-2.3c0-0.8-0.5-1.6-1.1-2v-4.9h13.8v4.9c-0.7,0.4-1.1,1.1-1.1,2
			c0,1.3,1,2.3,2.3,2.3s2.3-1,2.3-2.3c0-0.8-0.5-1.6-1.1-2v-4.9h7l3.7,27.5h-40L11,16.9z M6.7,49L7,46.7h40.4l0.3,2.3H6.7z"/>
	</g>
	<g class="st5">
		<path class="st7" d="M50.1,50L50.1,50l-4.6-34.4l0,0c-0.1-0.6-0.5-1-1.1-1h-8V10c0-5.1-4.1-9.2-9.2-9.2S18,4.9,18,10v4.6h-8
			c-0.6,0-1,0.4-1.1,1l0,0L4.3,50l0,0c0,0.1,0,0.1,0,0.1c0,0.6,0.5,1.1,1.1,1.1H49C49.6,51.2,50.1,50.7,50.1,50
			C50.1,50.1,50.1,50.1,50.1,50z M20.3,10c0-3.8,3.1-6.9,6.9-6.9c3.8,0,6.9,3.1,6.9,6.9v4.6H20.3V10z M11,16.9h7v4.9
			c-0.7,0.4-1.1,1.1-1.1,2c0,1.3,1,2.3,2.3,2.3s2.3-1,2.3-2.3c0-0.8-0.5-1.6-1.1-2v-4.9h13.8v4.9c-0.7,0.4-1.1,1.1-1.1,2
			c0,1.3,1,2.3,2.3,2.3s2.3-1,2.3-2.3c0-0.8-0.5-1.6-1.1-2v-4.9h7l3.7,27.5h-40L11,16.9z M6.7,49L7,46.7h40.4l0.3,2.3H6.7z"/>
	</g>
</g>
<g id="Lightning_Bolt_x40_2x.png" class="st2">
	<g class="st5">
		<path class="st6" d="M42.7,20.2c0-0.7-0.6-1.3-1.3-1.3H30.9l6.4-19.3l0,0c0-0.1,0.1-0.3,0.1-0.4c0-0.7-0.6-1.3-1.3-1.3H23
			c-0.6,0-1.1,0.4-1.2,0.9l0,0L11.3,30.2l0,0c0,0.1-0.1,0.3-0.1,0.4c0,0.7,0.6,1.3,1.3,1.3h11.6L21.6,54l0,0v0.1
			c0,0.7,0.6,1.3,1.3,1.3c0.5,0,1-0.3,1.2-0.8l0,0l18.4-34.1l0,0C42.6,20.5,42.7,20.4,42.7,20.2z M25.1,47.7l1.8-16.9l0,0v-0.1
			c0-0.7-0.6-1.3-1.3-1.3H14.3l9.6-28.8h10.3l-6.4,19.3l0,0c0,0.1-0.1,0.3-0.1,0.4c0,0.7,0.6,1.3,1.3,1.3h10.1L25.1,47.7z"/>
	</g>
	<g class="st5">
		<path class="st8" d="M42.7,20.2c0-0.7-0.6-1.3-1.3-1.3H30.9l6.4-19.3l0,0c0-0.1,0.1-0.3,0.1-0.4c0-0.7-0.6-1.3-1.3-1.3H23
			c-0.6,0-1.1,0.4-1.2,0.9l0,0L11.3,30.2l0,0c0,0.1-0.1,0.3-0.1,0.4c0,0.7,0.6,1.3,1.3,1.3h11.6L21.6,54l0,0v0.1
			c0,0.7,0.6,1.3,1.3,1.3c0.5,0,1-0.3,1.2-0.8l0,0l18.4-34.1l0,0C42.6,20.5,42.7,20.4,42.7,20.2z M25.1,47.7l1.8-16.9l0,0v-0.1
			c0-0.7-0.6-1.3-1.3-1.3H14.3l9.6-28.8h10.3l-6.4,19.3l0,0c0,0.1-0.1,0.3-0.1,0.4c0,0.7,0.6,1.3,1.3,1.3h10.1L25.1,47.7z"/>
	</g>
</g>
<path class="st9" d="M13.5,37.2C11.4,38.5,8,39,5.7,37.6c-1.6-0.9-2.4-2.6-2.5-4.8l2.4,0.3h0.1c0.3,0,0.7-0.2,0.9-0.4
	c0.2-0.3,0.3-0.7,0.1-1.1l-2.9-6.9c-0.2-0.4-0.5-0.6-0.9-0.7c-0.4-0.1-0.8,0.1-1,0.4l-4.6,5.9C-2.9,30.6-3,31-2.8,31.4
	c0.2,0.4,0.5,0.6,0.9,0.7l2.8,0.4c0.1,4.1,2,6.1,3.6,7.1c1.4,0.8,2.9,1.1,4.4,1.1c2.1,0,4.2-0.6,5.7-1.6c0.5-0.3,0.7-1,0.4-1.6
	C14.8,37,14.1,36.9,13.5,37.2z M0.4,30.1l2.2-2.8L4,30.6L0.4,30.1z M56.8,21.1c-0.2-0.4-0.5-0.6-0.9-0.7L53.1,20
	c-0.1-4.1-2-6.1-3.6-7.1c-3.3-1.9-7.6-1.2-10.2,0.4c-0.5,0.3-0.7,1-0.4,1.6c0.3,0.5,1,0.7,1.6,0.4c2.1-1.3,5.5-1.8,7.8-0.4
	c1.6,0.9,2.4,2.6,2.5,4.8l-2.4-0.3c-0.4-0.1-0.8,0.1-1,0.4c-0.2,0.3-0.3,0.7-0.1,1.1l2.9,6.9c0.2,0.4,0.5,0.6,0.9,0.7h0.1
	c0.3,0,0.7-0.2,0.9-0.4l4.6-5.9C56.9,21.9,57,21.5,56.8,21.1z M51.5,25.2l-1.4-3.3l3.5,0.5L51.5,25.2z M17.9,18.1
	c0.6,0.3,1.3,0.3,2.1,0.1h0.1l0.8,2.3c-0.4,0.1-0.7,0.1-1,0.1s-0.6-0.1-1-0.3l-0.2-0.1L18,21.8l0.2,0.1c0.6,0.3,1.2,0.4,1.6,0.4h0.1
	c0.4,0,0.9-0.1,1.4-0.2l0.5,1.3l1.4-0.5l-0.5-1.4c0.5-0.3,0.9-0.5,1.1-0.8c0.8-0.8,1-1.8,0.6-2.9c-0.3-0.8-0.8-1.4-1.5-1.6
	c-0.5-0.2-1.2-0.2-2-0.1l-0.1,0.2L20,14.1c0.3-0.1,0.5-0.1,0.7-0.1s0.5,0.1,0.8,0.2l0.2,0.1l0.7-1.5l-0.2-0.1
	c-0.6-0.2-1-0.3-1.4-0.3h-0.1c-0.3,0-0.7,0.1-1.1,0.2l-0.4-1.1L17.8,12l0.4,1.1c-0.3,0.2-0.6,0.4-0.9,0.6c-0.3,0.2-0.5,0.6-0.6,0.9
	c-0.3,0.6-0.3,1.3,0,2.1C16.9,17.3,17.3,17.8,17.9,18.1z M22.3,18c0.2,0.1,0.4,0.3,0.6,0.6c0.1,0.4,0.1,0.7,0,0.9s-0.3,0.4-0.6,0.6
	L21.5,18C21.8,17.9,22,17.9,22.3,18z M18.8,14.5l0.7,2.1c-0.3,0-0.6,0-0.8-0.1s-0.4-0.3-0.5-0.6C18.1,15.4,18.3,14.9,18.8,14.5z
	 M8.8,30.2c0.2,0.5,0.6,0.7,1.1,0.7c0.1,0,0.3,0,0.4-0.1l27.1-9.9c0.6-0.2,0.9-0.9,0.7-1.4L32.6,4.8c-0.2-0.6-0.9-0.9-1.4-0.7
	L4.1,14c-0.3,0.1-0.5,0.3-0.6,0.6s-0.1,0.6,0,0.9L8.8,30.2z M12.6,27.5c-0.2,0.4-0.5,0.6-0.8,0.8c-0.8,0.3-1.6-0.1-1.9-0.9
	c-0.1-0.4-0.1-0.8,0-1.1c0.2-0.4,0.5-0.6,0.8-0.8c0.2-0.1,0.3-0.1,0.5-0.1c0.6,0,1.2,0.4,1.4,1C12.8,26.8,12.7,27.2,12.6,27.5z
	 M35.3,18.1c0.1,0.4,0.1,0.8,0,1.1c-0.2,0.4-0.5,0.6-0.8,0.8c-0.8,0.3-1.6-0.1-1.9-0.9c-0.1-0.4-0.1-0.8,0-1.1
	c0.2-0.4,0.5-0.6,0.8-0.8c0.2-0.1,0.3-0.1,0.5-0.1C34.6,17.1,35.1,17.5,35.3,18.1z M28.8,7.5c0.2-0.4,0.5-0.6,0.8-0.8
	c0.2-0.1,0.3-0.1,0.5-0.1c0.6,0,1.2,0.4,1.4,1c0.1,0.4,0.1,0.8,0,1.1c-0.2,0.4-0.5,0.6-0.8,0.8c-0.8,0.3-1.6-0.1-1.9-0.9
	C28.6,8.3,28.6,7.9,28.8,7.5z M27,8c0,0.4,0,0.8,0.2,1.2c0.5,1.3,1.7,2.1,3,2.1c0.4,0,0.7-0.1,1.1-0.2c0.4-0.1,0.7-0.4,1-0.6
	l1.8,4.9H34c-0.4,0-0.7,0.1-1.1,0.2c-0.8,0.3-1.4,0.9-1.8,1.6c-0.4,0.8-0.4,1.6-0.1,2.4c0.1,0.4,0.4,0.7,0.6,1l-3.4,1.2
	c0.1-0.2,0.3-0.5,0.4-0.8c1-2.1,1.1-4.5,0.3-6.7C28,11.8,26,9.9,23.6,9L27,8z M14.3,14.5c0.8-1.7,2.2-3,4-3.6
	c0.8-0.3,1.6-0.4,2.4-0.4c3,0,5.6,1.9,6.6,4.6c0.6,1.8,0.6,3.7-0.2,5.4s-2.2,3-4,3.6c-0.8,0.3-1.6,0.4-2.4,0.4c-3,0-5.6-1.9-6.6-4.6
	C13.4,18.1,13.5,16.2,14.3,14.5z M10.4,15.3c-0.1-0.4-0.4-0.8-0.7-1.1l3.4-1.2c-0.1,0.2-0.3,0.5-0.4,0.8c-1,2.1-1.1,4.5-0.3,6.7
	c0.9,2.5,2.9,4.4,5.3,5.3L14.3,27c0-0.4,0-0.8-0.2-1.2c-0.5-1.3-1.7-2.1-3-2.1c-0.4,0-0.7,0.1-1.1,0.2c-0.4,0.1-0.7,0.4-1,0.6
	l-1.8-4.9h0.1c0.4,0,0.7-0.1,1.1-0.2c0.8-0.3,1.4-0.9,1.8-1.6C10.7,17,10.7,16.1,10.4,15.3z M6.9,15c0.2-0.1,0.3-0.1,0.5-0.1
	c0.6,0,1.2,0.4,1.4,1c0.1,0.4,0.1,0.8,0,1.1c-0.2,0.4-0.5,0.6-0.8,0.8c-0.8,0.3-1.6-0.1-1.9-0.9C5.7,16.2,6.1,15.3,6.9,15z"/>
<path class="st9" d="M31.2,36.7c0.6,0.3,1.3,0.3,2.1,0.1h0.1l0.8,2.3c-0.4,0.1-0.7,0.1-1,0.1s-0.6-0.1-1-0.3L32,38.8l-0.7,1.6
	l0.2,0.1c0.6,0.3,1.2,0.4,1.6,0.4h0.1c0.4,0,0.9-0.1,1.4-0.2l0.5,1.3l1.4-0.5L36,40.1c0.5-0.3,0.9-0.5,1.1-0.8
	c0.8-0.8,1-1.8,0.6-2.9c-0.3-0.8-0.8-1.4-1.5-1.6c-0.5-0.2-1.2-0.2-2-0.1l-0.3,0.1l-0.8-2.2c0.3-0.1,0.5-0.1,0.7-0.1
	s0.5,0.1,0.8,0.2l0.2,0.1l0.7-1.5l-0.2-0.1c-0.6-0.2-1-0.3-1.4-0.3h-0.1c-0.3,0-0.7,0.1-1.1,0.2L32.3,30l-1.4,0.5l0.4,1.1
	c-0.3,0.2-0.6,0.4-0.9,0.6c-0.3,0.2-0.5,0.6-0.6,0.9c-0.3,0.6-0.3,1.3,0,2.1C30.2,35.9,30.6,36.4,31.2,36.7z M35.5,36.5
	c0.2,0.1,0.4,0.3,0.6,0.6c0.1,0.4,0.1,0.7,0,0.9s-0.3,0.4-0.6,0.6l-0.8-2.1C35,36.5,35.3,36.5,35.5,36.5z M32.1,33.1l0.7,2.1
	c-0.3,0-0.6,0-0.8-0.1s-0.4-0.3-0.5-0.6C31.4,33.9,31.5,33.5,32.1,33.1z M22,48.8c0.2,0.5,0.6,0.7,1.1,0.7c0.1,0,0.3,0,0.4-0.1
	l27.1-9.9c0.6-0.2,0.9-0.9,0.7-1.4l-5.4-14.8c-0.2-0.6-0.9-0.9-1.4-0.7l-27.1,9.9c-0.3,0.1-0.5,0.3-0.6,0.6s-0.1,0.6,0,0.9L22,48.8z
	 M25.8,46.1c-0.2,0.4-0.5,0.6-0.8,0.8c-0.8,0.3-1.6-0.1-1.9-0.9c-0.1-0.4-0.1-0.8,0-1.1c0.2-0.4,0.5-0.6,0.8-0.8
	c0.2-0.1,0.3-0.1,0.5-0.1c0.6,0,1.2,0.4,1.4,1C26,45.3,26,45.7,25.8,46.1z M48.6,36.7c0.1,0.4,0.1,0.8,0,1.1
	c-0.2,0.4-0.5,0.6-0.8,0.8c-0.8,0.3-1.6-0.1-1.9-0.9c-0.1-0.4-0.1-0.8,0-1.1c0.2-0.4,0.5-0.6,0.8-0.8c0.2-0.1,0.3-0.1,0.5-0.1
	C47.8,35.7,48.4,36.1,48.6,36.7z M42.1,26.1c0.2-0.4,0.5-0.6,0.8-0.8c0.2-0.1,0.3-0.1,0.5-0.1c0.6,0,1.2,0.4,1.4,1
	c0.1,0.4,0.1,0.8,0,1.1c-0.2,0.4-0.5,0.6-0.8,0.8c-0.8,0.3-1.6-0.1-1.9-0.9C41.9,26.9,41.9,26.5,42.1,26.1z M40.2,26.6
	c0,0.4,0,0.8,0.2,1.2c0.5,1.3,1.7,2.1,3,2.1c0.4,0,0.7-0.1,1.1-0.2c0.4-0.1,0.7-0.4,1-0.6l1.8,4.9h-0.1c-0.4,0-0.7,0.1-1.1,0.2
	c-0.8,0.3-1.4,0.9-1.8,1.6c-0.4,0.8-0.4,1.6-0.1,2.4c0.1,0.4,0.4,0.7,0.6,1l-3.4,1.2c0.1-0.2,0.3-0.5,0.4-0.8c1-2.1,1.1-4.5,0.3-6.7
	c-0.9-2.5-2.9-4.4-5.3-5.3L40.2,26.6z M27.6,33.1c0.8-1.7,2.2-3,4-3.6c0.8-0.3,1.6-0.4,2.4-0.4c3,0,5.6,1.9,6.6,4.6
	c0.6,1.8,0.6,3.7-0.2,5.4s-2.2,3-4,3.6c-0.8,0.3-1.6,0.4-2.4,0.4c-3,0-5.6-1.9-6.6-4.6C26.7,36.7,26.8,34.8,27.6,33.1z M23.7,33.9
	c-0.1-0.4-0.4-0.8-0.7-1.1l3.4-1.2c-0.1,0.2-0.3,0.5-0.4,0.8c-1,2.1-1.1,4.5-0.3,6.7c0.9,2.5,2.9,4.4,5.3,5.3l-3.4,1.2
	c0-0.4,0-0.8-0.2-1.2c-0.5-1.2-1.7-2.1-3-2.1c-0.4,0-0.7,0.1-1.1,0.2c-0.4,0.1-0.7,0.4-1,0.6l-1.8-4.9h0.1c0.4,0,0.7-0.1,1.1-0.2
	c0.8-0.3,1.4-0.9,1.8-1.6C23.9,35.6,24,34.7,23.7,33.9z M20.2,33.6c0.2-0.1,0.3-0.1,0.5-0.1c0.6,0,1.2,0.4,1.4,1
	c0.1,0.4,0.1,0.8,0,1.1c-0.2,0.4-0.5,0.6-0.8,0.8c-0.8,0.3-1.6-0.1-1.9-0.9C19,34.7,19.4,33.9,20.2,33.6z"/>
<path class="st10" d="M54.2,29.2h-4.6l0,0h-3.5l0,0H35.8l-2.5-5.1c-0.3-0.6-0.9-0.9-1.5-0.9s-1.2,0.4-1.4,1l-3.3,8.7l-3.8-11.6
	c-0.2-0.6-0.8-1.1-1.4-1.1c-0.7,0-1.3,0.4-1.5,1L17.3,29h-5.2c-0.9,0-1.6,0.7-1.6,1.6c0,0.9,0.7,1.6,1.6,1.6h6.3
	c0.6,0,1.2-0.4,1.5-1l1.9-4.8l3.9,11.8c0.2,0.6,0.8,1.1,1.5,1.1l0,0c0.7,0,1.2-0.4,1.5-1l3.6-9.6l1.3,2.7c0.3,0.5,0.8,0.9,1.4,0.9
	h9.3C38.7,40,29.2,45.5,26.6,46.9c-3.8-2-21.9-12.5-21.9-26c0-5.9,3.4-10.1,9-11.1c0.7-0.1,1.4-0.2,2.1-0.2c6.9,0,9.2,7.3,9.2,7.6
	c0.2,0.7,0.8,1.1,1.5,1.1l0,0c0.7,0,1.3-0.5,1.5-1.1c0.1-0.3,2.3-7.6,9.2-7.6c0.7,0,1.4,0.1,2.1,0.2c5.6,1,9,5.2,9,11.1
	c0,1.8-0.3,3.5-0.8,5.1h3.3c0.5-1.7,0.7-3.4,0.7-5.1C51.5,13.5,47,8,39.9,6.7c-0.9-0.2-1.8-0.3-2.7-0.3c-5.4,0-8.9,3.3-10.8,6.5
	C24.5,9.8,21,6.4,15.6,6.4c-0.9,0-1.8,0.1-2.7,0.3C5.8,8,1.4,13.5,1.3,20.9c0,17,23.5,28.7,24.5,29.2c0.2,0.1,0.5,0.2,0.7,0.2
	s0.5-0.1,0.7-0.2s6.1-3,12.1-8c3.8-3.2,6.7-6.4,8.7-9.8h6.2c0.9,0,1.6-0.7,1.6-1.6C55.8,29.9,55.1,29.2,54.2,29.2z"/>
<g id="Share_2" class="st2">
	<g class="st5">
		<path class="st11" d="M45.9,0.6c-3.2,0-5.9,2.6-5.9,5.9c0,2.8,2,5.2,4.7,5.8v13h-13c-0.5-2.7-2.9-4.7-5.8-4.7s-5.2,2-5.8,4.7H6
			c-0.6,0-1.2,0.5-1.2,1.2v14.2c-2.7,0.5-4.7,2.9-4.7,5.8c0,3.2,2.6,5.9,5.9,5.9c3.2,0,5.9-2.6,5.9-5.9c0-2.8-2-5.2-4.7-5.8V27.6h13
			c0.5,2.7,2.9,4.7,5.8,4.7s5.2-2,5.8-4.7H46c0.6,0,1.2-0.5,1.2-1.2V12.2c2.7-0.5,4.7-2.9,4.7-5.8C51.8,3.2,49.2,0.6,45.9,0.6z
			 M9.5,46.4c0,1.9-1.6,3.5-3.5,3.5s-3.5-1.6-3.5-3.5s1.6-3.5,3.5-3.5S9.5,44.4,9.5,46.4z M25.9,29.9c-1.9,0-3.5-1.6-3.5-3.5
			s1.6-3.5,3.5-3.5s3.5,1.6,3.5,3.5S27.9,29.9,25.9,29.9z M45.9,10c-1.9,0-3.5-1.6-3.5-3.5S44,3,45.9,3s3.5,1.6,3.5,3.5
			S47.9,10,45.9,10z"/>
	</g>
</g>
<g class="st2">
	<path class="st12" d="M40.4,40.2H13.3V13.1h27.1V40.2z M15.5,37.9h22.6V15.3H15.5V37.9z"/>
	<path class="st12" d="M41.5,45.8H12.1c-2.5,0-4.5-2-4.5-4.5V11.9c0-2.5,2-4.5,4.5-4.5h29.4c2.5,0,4.5,2,4.5,4.5v29.4
		C46.1,43.8,44,45.8,41.5,45.8z M12.1,9.7c-1.2,0-2.3,1-2.3,2.3v29.4c0,1.2,1,2.3,2.3,2.3h29.4c1.2,0,2.3-1,2.3-2.3V11.9
		c0-1.2-1-2.3-2.3-2.3H12.1V9.7z"/>
	<path class="st12" d="M15.5,9.7c-0.6,0-1-0.5-1-1.1V1.8c0-0.6,0.4-1.1,1-1.1s1,0.5,1,1.1v6.8C16.5,9.2,16.2,9.7,15.5,9.7z"/>
	<path class="st12" d="M26.5,9.7c-0.6,0-1-0.5-1-1.1V1.8c0-0.6,0.4-1.1,1-1.1s1,0.5,1,1.1v6.8C27.5,9.2,27.2,9.7,26.5,9.7z"/>
	<path class="st12" d="M37.5,9.7c-0.6,0-1-0.5-1-1.1V1.8c0-0.6,0.4-1.1,1-1.1s1,0.5,1,1.1v6.8C38.5,9.2,38.2,9.7,37.5,9.7z"/>
	<path class="st12" d="M15.5,52.6c-0.6,0-1-0.5-1-1.1v-6.8c0-0.6,0.4-1.1,1-1.1s1,0.5,1,1.1v6.8C16.5,52.1,16.2,52.6,15.5,52.6z"/>
	<path class="st12" d="M26.5,52.6c-0.6,0-1-0.5-1-1.1v-6.8c0-0.6,0.4-1.1,1-1.1s1,0.5,1,1.1v6.8C27.5,52.1,27.2,52.6,26.5,52.6z"/>
	<path class="st12" d="M37.5,52.6c-0.6,0-1-0.5-1-1.1v-6.8c0-0.6,0.4-1.1,1-1.1s1,0.5,1,1.1v6.8C38.5,52.1,38.2,52.6,37.5,52.6z"/>
	<path class="st12" d="M51.7,16.8h-6.8c-0.6,0-1.1-0.4-1.1-1s0.5-1,1.1-1h6.8c0.6,0,1.1,0.4,1.1,1S52.3,16.8,51.7,16.8z"/>
	<path class="st12" d="M51.7,27.8h-6.8c-0.6,0-1.1-0.4-1.1-1s0.5-1,1.1-1h6.8c0.6,0,1.1,0.4,1.1,1S52.3,27.8,51.7,27.8z"/>
	<path class="st12" d="M51.7,38.8h-6.8c-0.6,0-1.1-0.4-1.1-1s0.5-1,1.1-1h6.8c0.6,0,1.1,0.4,1.1,1S52.3,38.8,51.7,38.8z"/>
	<path class="st12" d="M8.8,16.8H2c-0.6,0-1.1-0.4-1.1-1s0.5-1,1.1-1h6.8c0.6,0,1.1,0.4,1.1,1S9.4,16.8,8.8,16.8z"/>
	<path class="st12" d="M8.8,27.8H2c-0.6,0-1.1-0.4-1.1-1s0.5-1,1.1-1h6.8c0.6,0,1.1,0.4,1.1,1S9.4,27.8,8.8,27.8z"/>
	<path class="st12" d="M8.8,38.8H2c-0.6,0-1.1-0.4-1.1-1s0.5-1,1.1-1h6.8c0.6,0,1.1,0.4,1.1,1S9.4,38.8,8.8,38.8z"/>
	<path class="st12" d="M18.5,24.4c-0.6,0-1-0.5-1-1.1v-4.5c0-0.6,0.4-1.1,1-1.1s1,0.5,1,1.1v4.5C19.5,23.9,19.2,24.4,18.5,24.4z"/>
	<path class="st12" d="M23,24.4c-0.6,0-1.5-0.5-1.5-1.1v-4.5c0-0.6,0.9-1.1,1.5-1.1s1.5,0.5,1.5,1.1v4.5
		C24.5,23.9,23.7,24.4,23,24.4z"/>
	<path class="st12" d="M27.5,24.4c-0.6,0-1-0.5-1-1.1v-4.5c0-0.6,0.4-1.1,1-1.1s1,0.5,1,1.1v4.5C28.5,23.9,28.2,24.4,27.5,24.4z"/>
	<path class="st12" d="M35.9,35.7H24.6v-6.8h11.3V35.7z M26.8,33.4h6.8v-2.3h-6.8V33.4z"/>
</g>
<g id="Wrench_x40_2x.png" class="st2">
	<g class="st5">
		<path class="st13" d="M49,11.7l-1,1l0,0l-5.6,5.6l0,0c-1,1-2.4,1.6-4,1.6c-3.1,0-5.6-2.5-5.6-5.6c0-1.6,0.6-3,1.6-4l-1.6-1.6
			c-1.4,1.4-2.3,3.4-2.3,5.6c0,4.4,3.5,7.9,7.9,7.9c2.2,0,4.2-0.9,5.6-2.3l0,0l4.2-4.2c0.8,3.1,0.4,6.1-1.4,8l-6.1,6.2
			c-0.8,0.8-2,1.3-3.1,1.3c0,0-3.9-0.3-7.7-2.7l0,0c-0.2-0.1-0.4-0.2-0.6-0.2c-0.4,0-0.7,0.2-0.9,0.5l0,0L11.1,48
			c-0.8,0.8-1.9,1.3-3.2,1.3c-2.5,0-4.5-2-4.5-4.5c0-1.2,0.5-2.4,1.3-3.2l19-17.2l0,0c0.3-0.2,0.5-0.5,0.5-0.9
			c0-0.2-0.1-0.5-0.2-0.6l0,0c-3.3-4.3-3.4-7.6-0.6-10.6l6-6.2c1.5-1.6,3.5-1.9,4.9-1.9l0,0c0.9,0,1.7,0.1,2.6,0.4l-4.1,4.1l1.6,1.6
			L40,4.7l0,0l1-1c-2.2-1.2-4.5-1.8-6.6-1.8l0,0c-2.5,0-4.8,0.8-6.5,2.6l-6.1,6.1c-4,4.3-2.9,8.7-0.2,12.7L3.1,40
			c-1.2,1.2-2,2.9-2,4.8c0,3.7,3,6.8,6.8,6.8c1.9,0,3.6-0.8,4.8-2L29.5,31c3.8,2.2,7.5,2.5,8,2.5c1.7,0,3.4-0.7,4.7-2l6.1-6.2
			C51.4,22.1,51.5,16.7,49,11.7z M7.1,44c-0.2,0.2-0.3,0.5-0.3,0.8c0,0.6,0.5,1.1,1.1,1.1S9,45.4,9,44.8s-0.5-1.1-1.1-1.1
			C7.6,43.7,7.3,43.8,7.1,44z"/>
	</g>
</g>
<g class="st2">
	<path class="st12" d="M20.4,19.9c-0.3,0-0.7-0.1-0.9-0.4c-2.6-2.6-2.6-6.9,0-9.5c0.5-0.5,1.4-0.5,1.9,0s0.5,1.4,0,1.9
		c-1.6,1.6-1.6,4.1,0,5.7c0.5,0.5,0.5,1.4,0,1.9C21.1,19.7,20.7,19.9,20.4,19.9z"/>
	<path class="st12" d="M33.3,19.9c-0.3,0-0.7-0.1-0.9-0.4c-0.5-0.5-0.5-1.4,0-1.9c1.6-1.6,1.6-4.1,0-5.7c-0.5-0.5-0.5-1.4,0-1.9
		s1.4-0.5,1.9,0c2.6,2.6,2.6,6.9,0,9.5C34,19.7,33.7,19.9,33.3,19.9z"/>
	<path class="st12" d="M16,24.2c-0.3,0-0.7-0.1-0.9-0.4c-5-5-5-13.2,0-18.2c0.5-0.5,1.4-0.5,1.9,0s0.5,1.4,0,1.9c-4,4-4,10.5,0,14.4
		c0.5,0.5,0.5,1.4,0,1.9C16.7,24.1,16.3,24.2,16,24.2z"/>
	<path class="st12" d="M37.7,24.2c-0.3,0-0.7-0.1-0.9-0.4c-0.5-0.5-0.5-1.4,0-1.9c4-4,4-10.5,0-14.4c-0.5-0.5-0.5-1.4,0-1.9
		s1.4-0.5,1.9,0c5,5,5,13.2,0,18.2C38.4,24.1,38,24.2,37.7,24.2z"/>
	<path class="st12" d="M11.8,28.4c-0.3,0-0.7-0.1-0.9-0.4c-3.5-3.5-5.5-8.3-5.5-13.3s2-9.7,5.5-13.3c0.5-0.5,1.4-0.5,1.9,0
		s0.5,1.4,0,1.9c-3,3-4.7,7.1-4.7,11.4s1.7,8.4,4.7,11.4c0.5,0.5,0.5,1.4,0,1.9C12.5,28.3,12.2,28.4,11.8,28.4z"/>
	<path class="st12" d="M41.8,28.4c-0.3,0-0.7-0.1-0.9-0.4c-0.5-0.5-0.5-1.4,0-1.9c3-3,4.7-7.1,4.7-11.4s-1.7-8.3-4.7-11.4
		c-0.5-0.5-0.5-1.4,0-1.9s1.4-0.5,1.9,0c3.5,3.5,5.5,8.3,5.5,13.3s-2,9.7-5.5,13.3C42.5,28.3,42.2,28.4,41.8,28.4z"/>
	<path class="st12" d="M30.9,58.8h-6.7c-0.4,0-0.7-0.1-1-0.4s-0.4-0.6-0.4-1l2.7-41.5c0-0.7,0.6-1.2,1.3-1.2s1.3,0.5,1.4,1.2l4,41.5
		c0,0.4-0.1,0.7-0.3,1C31.6,58.7,31.2,58.8,30.9,58.8z M25.6,56.8h3.8l-2.3-23.5L25.6,56.8z"/>
</g>
<g class="st2">
	<path class="st14" d="M27.4,15.9c2-4.8,6.6-8.1,12-8.1c7.2,0,12.4,6.2,13.1,13.5c0,0,0.4,1.8-0.4,5.1c-1.1,4.5-3.5,8.5-6.9,11.5
		L27.4,53.8L9.9,38C6.5,35,4.1,31,3,26.5c-0.8-3.3-0.4-5.1-0.4-5.1C3.2,14,8.5,7.8,15.7,7.8C21,7.8,25.3,11.1,27.4,15.9z"/>
	<path class="st15" d="M8.5,22.9c0-5,4-9,9-9"/>
</g>
<g class="st2">
	<rect x="45.4" y="2.3" transform="matrix(0.7071 -0.7071 0.7071 0.7071 10.8019 34.8898)" class="st16" width="4.2" height="4.2"/>
	<line class="st16" x1="47.5" y1="1.4" x2="47.5" y2="-0.6"/>
	<line class="st16" x1="50.5" y1="4.4" x2="52.5" y2="4.4"/>
	<line class="st16" x1="47.5" y1="7.4" x2="47.5" y2="9.4"/>
	<line class="st16" x1="44.5" y1="4.4" x2="42.5" y2="4.4"/>
	<circle class="st12" cx="42.5" cy="9.4" r="1"/>
	<circle class="st12" cx="1.5" cy="30.4" r="1"/>
	<circle class="st12" cx="2.5" cy="5.4" r="1"/>
	<circle class="st12" cx="13.5" cy="14.4" r="1"/>
	<circle class="st12" cx="50.5" cy="28.4" r="1"/>
	<circle class="st12" cx="9.5" cy="51.4" r="1"/>
	<circle class="st12" cx="48.5" cy="52.4" r="1"/>
	<path class="st16" d="M39.5,28.8c-1.5-1.1-2.1-2.7-3-4.4c-1.6-3.1-3.2-7.5-3.8-10.9l-1.5-8.8c-0.4-2.6-1.5-3.8-3.2-5.8
		c-0.6-0.7-1.6-0.7-2.2,0c-1.6,2-2.7,3.2-3.2,5.8l-1.5,8.8c-0.6,3.4-2.1,7.8-3.7,10.9c-0.8,1.6-1.5,3.3-3,4.4
		c-3.8,2.6-9.2,6.6-10,11.1v3c0,0.3,0.2,0.5,0.5,0.5l12.4,1c0.6,0.1,1,0.6,1,1.1v1.4c0,0.3,0.2,0.5,0.5,0.5h2c0.2,0,0.4,0.1,0.4,0.3
		l0.9,2.4c0.1,0.2,0.2,0.3,0.4,0.3h4.3h4.3c0.2,0,0.4-0.1,0.4-0.3l0.9-2.4c0.1-0.2,0.2-0.3,0.4-0.3h2c0.3,0,0.5-0.2,0.5-0.5v-1.4
		c0-0.6,0.4-1.1,1-1.1l12.5-1c0.3,0,0.5-0.2,0.5-0.5v-3C48.8,35.4,43.2,31.4,39.5,28.8z"/>
	<line class="st16" x1="22.5" y1="53.4" x2="22.5" y2="54.4"/>
	<line class="st16" x1="25.5" y1="53.4" x2="25.5" y2="55.4"/>
	<line class="st16" x1="28.5" y1="53.4" x2="28.5" y2="55.4"/>
	<line class="st16" x1="31.5" y1="53.4" x2="31.5" y2="54.4"/>
	<path class="st16" d="M32,9.4c-1.2-1.9-3-3-5.1-3c-2,0-3.8,1.1-5,2.9"/>
	<line class="st16" x1="22.5" y1="39.4" x2="31.5" y2="39.4"/>
	<line class="st16" x1="22.5" y1="34.4" x2="31.5" y2="34.4"/>
	<line class="st16" x1="22.5" y1="29.4" x2="31.5" y2="29.4"/>
	<line class="st16" x1="18.5" y1="37.4" x2="18.5" y2="46.4"/>
	<line class="st16" x1="35.5" y1="37.4" x2="35.5" y2="46.4"/>
	<line class="st16" x1="30.5" y1="43.4" x2="30.5" y2="45.4"/>
	<line class="st16" x1="23.5" y1="43.4" x2="23.5" y2="45.4"/>
	<line class="st16" x1="23.5" y1="43.4" x2="30.5" y2="43.4"/>
	<line class="st16" x1="4.5" y1="40.4" x2="18.5" y2="40.4"/>
	<line class="st16" x1="35.5" y1="40.4" x2="49.5" y2="40.4"/>
</g>
<g class="st2">
	<path class="st12" d="M27.5,33.8c-6.4,0-10.7-5.6-11.7-8.3c-0.1,0-0.1-0.1-0.2-0.1c-0.4-0.3-0.7-0.4-0.9-0.8
		c-1.5-2.7-1.9-4.8-1.2-6.4c0.2-0.5,0.5-0.9,0.8-1.1c-0.6-1.1-1.2-3-0.9-5.4c0.1-0.6,0.7-1.1,1.3-1H15c0.6-1.9,2.3-5.7,7-7
		c1.5-0.4,2.5-1.2,3.1-2.2C26-0.1,25.4-2,25.4-2c-0.1-0.4,0-0.9,0.4-1.2c0.4-0.3,0.9-0.4,1.3-0.2c0.2,0.1,4.8,2.3,5.7,7.2
		c0.3-0.1,0.6-0.1,1-0.1c1.4,0,3.5,0.6,5.5,3.5c1.8,2.5,2.1,6.3,1,9.8c0.4,0.3,0.8,0.7,1,1.3c0.7,1.6,0.3,3.7-1.2,6.4
		c-0.2,0.3-0.5,0.5-0.9,0.8c-0.1,0-0.1,0.1-0.2,0.1C38.2,28.2,33.8,33.8,27.5,33.8z M16.7,23.3c0.1,0,0.1,0.1,0.2,0.1
		c0.5,0.3,0.9,0.6,1.1,1.1c0.4,1.4,4,6.9,9.5,6.9c5.6,0,9.1-5.5,9.5-6.9c0.1-0.5,0.6-0.8,1.1-1.1c0.1,0,0.1-0.1,0.2-0.1
		c1.4-2.5,1.2-3.6,1-4s-0.6-0.5-0.6-0.5c-0.3-0.1-0.7-0.3-0.8-0.6c-0.2-0.3-0.2-0.7-0.1-1c1.3-3.1,1.1-6.5-0.4-8.6
		C36.3,7,35,6.1,33.8,6.1c-0.8,0-1.3,0.4-1.3,0.4c-0.4,0.3-0.8,0.3-1.2,0.1c-0.4-0.2-0.7-0.6-0.7-1.1c0-2.5-1.4-4.3-2.6-5.4
		c-0.1,0.8-0.3,1.7-0.8,2.6c-0.9,1.6-2.4,2.7-4.5,3.3c-4.7,1.3-5.5,6-5.6,6.2c-0.1,0.6-0.6,1-1.3,1h-0.1c0,2.3,1.1,3.6,1.1,3.6
		c0.3,0.3,0.4,0.8,0.2,1.2c-0.1,0.4-0.5,0.7-0.9,0.8c0,0-0.4,0.1-0.6,0.5C15.5,19.7,15.3,20.8,16.7,23.3z"/>
	<path class="st12" d="M49.5,49.5c-0.7,0-1.2-0.5-1.2-1.2c0-4.6-3-8.1-9.6-11c-5.2-2.3-5.1-7-5.1-7.2c0-0.7,0.6-1.2,1.2-1.1
		c0.7,0,1.2,0.6,1.1,1.2c0,0.2,0,3.3,3.6,4.9c7.4,3.2,11,7.5,11,13.1C50.7,49,50.2,49.5,49.5,49.5z"/>
	<path class="st12" d="M5.3,49.5c-0.7,0-1.2-0.5-1.2-1.2c0-5.6,3.6-9.9,11-13.1c3.7-1.6,3.6-4.8,3.6-4.9c0-0.7,0.5-1.2,1.1-1.2
		s1.2,0.5,1.2,1.1c0,0.2,0.2,4.9-5.1,7.2c-6.5,2.8-9.6,6.3-9.6,11C6.4,49,5.9,49.5,5.3,49.5z"/>
	<path class="st12" d="M27.7,42.6c-7.8,0-12.1-5.9-12.2-6.1c-0.4-0.5-0.2-1.3,0.3-1.7s1.3-0.2,1.7,0.3c0.1,0.1,3.8,5.1,10.3,5.1
		c6.4,0,9.2-4.8,9.3-4.8c0.3-0.6,1.1-0.8,1.6-0.4c0.6,0.3,0.8,1.1,0.4,1.6C38.8,36.8,35.4,42.6,27.7,42.6z"/>
	<path class="st12" d="M15.4,51.7c-0.7,0-1.2-0.5-1.2-1.2c0-6,7-10.4,7.3-10.6c0.6-0.3,1.3-0.2,1.6,0.4c0.3,0.6,0.2,1.3-0.4,1.6
		c-0.1,0-6.2,3.9-6.2,8.6C16.6,51.1,16.1,51.7,15.4,51.7z"/>
	<path class="st12" d="M19.9,52.1c-0.7,0-1.2-0.5-1.2-1.2c0-6.1,7.6-10.3,7.9-10.4c0.6-0.3,1.3-0.1,1.6,0.5s0.1,1.3-0.5,1.6
		c-0.1,0-6.7,3.7-6.7,8.3C21.1,51.5,20.5,52.1,19.9,52.1z"/>
</g>
<g class="st2">
	<path class="st12" d="M7.6,52.6L7.6,52.6c-0.3,0-0.6-0.1-0.8-0.3l-3.9-3.9c-0.4-0.4-0.4-1.1,0-1.6l29.6-29.6c0.4-0.4,1.2-0.4,1.6,0
		l3.9,3.9c0.4,0.4,0.4,1.1,0,1.6L8.4,52.3C8.1,52.5,7.9,52.6,7.6,52.6z M5.2,47.6L7.6,50l28-28l-2.4-2.4L5.2,47.6z"/>
	<path class="st12" d="M41.5,22.9c-0.1,0-0.1,0-0.2,0c-0.5-0.1-0.8-0.4-0.9-0.9l-1-6.2l-6.3-1c-0.5-0.1-0.8-0.4-0.9-0.9
		c-0.1-0.5,0.2-0.9,0.6-1.2l5.8-3l-0.9-6.4c-0.1-0.5,0.2-0.9,0.6-1.1c0.4-0.2,0.9-0.1,1.3,0.2l4.5,4.5L49.7,4
		c0.4-0.2,0.9-0.1,1.3,0.2c0.3,0.3,0.4,0.9,0.2,1.3l-2.9,5.6l4.5,4.5c0.3,0.3,0.4,0.9,0.2,1.3c-0.2,0.4-0.7,0.7-1.1,0.6l-6.4-0.9
		l-2.9,5.7C42.3,22.7,41.9,22.9,41.5,22.9z M36.8,13.1l3.7,0.6c0.5,0.1,0.8,0.4,0.9,0.9l0.6,3.7l1.8-3.4c0.2-0.4,0.7-0.7,1.1-0.6
		l3.9,0.5l-2.7-2.7c-0.3-0.3-0.4-0.9-0.2-1.3l1.7-3.3l-3.3,1.7C43.9,9.4,43.4,9.3,43,9l-2.7-2.7l0.6,3.9c0.1,0.5-0.2,0.9-0.6,1.1
		L36.8,13.1z"/>
	<path class="st12" d="M32.4,27.8c-0.3,0-0.6-0.1-0.8-0.3l-3.9-3.9c-0.4-0.4-0.4-1.1,0-1.6c0.4-0.4,1.1-0.4,1.6,0l3.9,3.9
		c0.4,0.4,0.4,1.1,0,1.6C33,27.6,32.7,27.8,32.4,27.8z"/>
	<path class="st12" d="M41.1,46.4c-0.4,0-0.8-0.2-1-0.6l-1.3-2.4l-2.4-1.3c-0.4-0.2-0.6-0.6-0.6-1s0.2-0.8,0.6-1l2.4-1.3l1.3-2.4
		c0.4-0.7,1.6-0.7,1.9,0l1.3,2.4l2.4,1.3c0.4,0.2,0.6,0.6,0.6,1s-0.2,0.8-0.6,1l-2.4,1.3l-1.2,2.4C41.9,46.2,41.5,46.4,41.1,46.4z
		 M39.3,41.2l0.9,0.5c0.2,0.1,0.3,0.3,0.4,0.4l0.5,0.9l0.5-0.9c0.1-0.2,0.3-0.3,0.4-0.4l0.9-0.5L42,40.7c-0.2-0.1-0.3-0.3-0.4-0.4
		l-0.5-0.9l-0.5,0.9c-0.1,0.2-0.3,0.3-0.4,0.4L39.3,41.2z"/>
	<path class="st12" d="M14.5,25.3c-0.4,0-0.8-0.2-1-0.6L11,20.2l-4.5-2.5c-0.4-0.2-0.6-0.6-0.6-1s0.2-0.8,0.6-1l4.5-2.5l2.5-4.5
		c0.4-0.7,1.6-0.7,1.9,0l2.5,4.5l4.5,2.5c0.4,0.2,0.6,0.6,0.6,1s-0.2,0.8-0.6,1l-4.5,2.5l-2.5,4.5C15.3,25.1,14.9,25.3,14.5,25.3z
		 M9.4,16.8l3,1.7c0.2,0.1,0.3,0.3,0.4,0.4l1.7,3l1.7-3c0.1-0.2,0.3-0.3,0.4-0.4l3-1.7l-3-1.7c-0.2-0.1-0.3-0.3-0.4-0.4l-1.7-3
		l-1.7,3c-0.1,0.2-0.3,0.3-0.4,0.4L9.4,16.8z"/>
</g>
<g class="st2">
	<path class="st17" d="M20.2,31.3c-0.2,0-0.4-0.1-0.6-0.2L3.3,20.6c-0.3-0.2-0.5-0.6-0.5-1s0.2-0.8,0.6-1L34.8,1.2
		c0.3-0.2,0.7-0.2,1.1,0l16.3,8.1c0.4,0.2,0.6,0.6,0.6,1s-0.2,0.8-0.5,1l-12.6,7.9c-0.5,0.3-1.3,0.2-1.6-0.4
		c-0.3-0.5-0.2-1.3,0.4-1.6l10.8-6.8L35.4,3.5L6.2,19.7l14,9l9.6-6c0.5-0.3,1.3-0.2,1.6,0.4c0.3,0.5,0.2,1.3-0.4,1.6l-10.2,6.4
		C20.7,31.2,20.5,31.3,20.2,31.3z"/>
	<path class="st17" d="M20.2,37.1c-0.2,0-0.4-0.1-0.6-0.2L3.3,26.5c-0.4-0.2-0.6-0.6-0.5-1c0-0.4,0.3-0.8,0.6-1L8,22.2
		c0.6-0.3,1.3-0.1,1.6,0.5c0.3,0.6,0.1,1.3-0.5,1.6l-2.8,1.4l13.9,9l9.6-6.1c0.5-0.3,1.3-0.2,1.6,0.4c0.3,0.5,0.2,1.3-0.4,1.6
		l-10.3,6.5C20.7,37,20.5,37.1,20.2,37.1z"/>
	<path class="st17" d="M39,25.3c-0.4,0-0.8-0.2-1-0.5c-0.3-0.5-0.2-1.3,0.4-1.6l11.1-7l-2-1.3c-0.5-0.4-0.7-1.1-0.3-1.6
		c0.4-0.5,1.1-0.7,1.6-0.3l3.5,2.3c0.3,0.2,0.5,0.6,0.5,1s-0.2,0.8-0.5,1l-12.6,7.9C39.4,25.2,39.2,25.3,39,25.3z"/>
	<path class="st17" d="M20.2,42.9c-0.2,0-0.4-0.1-0.6-0.2L3.3,32.3c-0.4-0.2-0.6-0.6-0.5-1c0-0.4,0.3-0.8,0.6-1L8,28
		c0.6-0.3,1.3-0.1,1.6,0.5c0.3,0.6,0.1,1.3-0.5,1.6l-2.8,1.4l13.9,9l9.8-6.1c0.5-0.3,1.3-0.2,1.6,0.4c0.3,0.5,0.2,1.3-0.4,1.6
		l-10.4,6.5C20.7,42.8,20.5,42.9,20.2,42.9z"/>
	<path class="st17" d="M39,31.1c-0.4,0-0.8-0.2-1-0.5c-0.3-0.5-0.2-1.3,0.4-1.6l11.1-7l-2-1.3c-0.5-0.4-0.7-1.1-0.3-1.6
		c0.4-0.5,1.1-0.7,1.6-0.3l3.5,2.3c0.3,0.2,0.5,0.6,0.5,1s-0.2,0.8-0.5,1l-12.7,8C39.4,31.1,39.2,31.1,39,31.1z"/>
	<path class="st17" d="M20.2,48.7c-0.2,0-0.4-0.1-0.6-0.2L3.3,38.1c-0.4-0.2-0.6-0.6-0.5-1c0-0.4,0.3-0.8,0.6-1L8,33.8
		c0.6-0.3,1.3-0.1,1.6,0.5c0.3,0.6,0.1,1.3-0.5,1.6l-2.8,1.4l13.9,9l9.7-6.1c0.5-0.3,1.3-0.2,1.6,0.4c0.3,0.5,0.2,1.3-0.4,1.6
		l-10.4,6.5C20.7,48.7,20.5,48.7,20.2,48.7z"/>
	<path class="st17" d="M39,36.9c-0.4,0-0.8-0.2-1-0.5c-0.3-0.5-0.2-1.3,0.4-1.6l11.2-7l-2-1.3c-0.5-0.4-0.7-1.1-0.3-1.6
		c0.4-0.5,1.1-0.7,1.6-0.3l3.5,2.3c0.3,0.2,0.5,0.6,0.5,1s-0.2,0.8-0.5,1l-12.7,8C39.4,36.9,39.2,36.9,39,36.9z"/>
	<path class="st17" d="M20.2,54.5c-0.2,0-0.4-0.1-0.6-0.2L3.3,43.9c-0.4-0.2-0.6-0.6-0.5-1c0-0.4,0.3-0.8,0.6-1L8,39.6
		c0.6-0.3,1.3-0.1,1.6,0.5c0.3,0.6,0.1,1.3-0.5,1.6l-2.8,1.4l13.9,9l29.2-18.4l-2-1.3c-0.5-0.4-0.7-1.1-0.3-1.6
		c0.4-0.5,1.1-0.7,1.6-0.3l3.5,2.3c0.3,0.2,0.5,0.6,0.5,1s-0.2,0.8-0.5,1L20.9,54.3C20.7,54.5,20.5,54.5,20.2,54.5z"/>
	<path class="st17" d="M30.7,47.6c-0.6,0-1.2-0.5-1.2-1.2V24.3c0-0.4-0.2-0.7-0.5-0.9l-13-9.8c-0.5-0.4-0.6-1.1-0.2-1.6
		c0.4-0.5,1.1-0.6,1.6-0.2l13,9.8c0.9,0.7,1.4,1.7,1.4,2.8v22.1C31.9,47,31.3,47.6,30.7,47.6z"/>
	<path class="st17" d="M39,42.1c-0.6,0-1.2-0.5-1.2-1.2l-0.1-22.4c0-0.4-0.2-0.7-0.5-0.9L25.4,9c-0.5-0.4-0.6-1.1-0.3-1.6
		c0.4-0.5,1.1-0.6,1.6-0.3l11.8,8.6c0.9,0.6,1.4,1.7,1.4,2.8L40,40.9C40.2,41.6,39.6,42.1,39,42.1L39,42.1z"/>
</g>
<path class="st18" d="M31.6,34.8h-3.3c-0.6,0-1.1,0.4-1.1,1s0.5,1,1.1,1h3.3c0.6,0,1.1-0.4,1.1-1C32.7,35.2,32.2,34.8,31.6,34.8z"/>
<path class="st19" d="M45.5,22c1.8-1.3,3.1-3.3,3.1-5.7c0-3.9-2.9-7-6.7-7c-0.1,0-0.1,0-0.2,0c-1.4-2-3.7-3.4-6.3-3.5
	c-1.6-2.9-4.7-4.9-8.3-4.9c-0.3,0-0.6,0.1-0.8,0.3c-1.7-1.2-3.7-1.9-5.9-1.9c-5.5,0-10,4.5-10,10c0,4,2.2,7.4,5.6,9
	c-7.6,1-13.6,7.6-13.6,15.5V47c0,1.8,1.7,3.8,3.6,3.8h28.8c1.2,0,2.3-2,2.8-2h2.7c1.3,0,2.4-0.9,2.9-1.9c0.1,0,0.3-0.1,0.4-0.1h2.2
	c1.8,0,3.3-1,3.3-3h1.1c1.8,0,3.1-1.7,3.1-3.5v-7.1C53.5,28.3,50.1,23.7,45.5,22z M46.4,16.3c0,2.6-2.2,4.8-4.8,4.8
	c-0.3,0-0.6,0.1-0.8,0.4c-0.1,0.1-0.1,0.2-0.1,0.2c-0.4-0.2-0.9-0.4-1.3-0.6c2.4-1.4,3.9-4.1,3.9-7c0-0.9-0.1-1.7-0.4-2.5
	C44.9,12.1,46.4,14,46.4,16.3z M41,14.1c0,3.3-2.7,6-6,6c-1.2-0.6-2.5-1-3.9-1.3c3.2-1.5,5.4-4.7,5.4-8.5c0-0.7-0.1-1.4-0.3-2.1
	C39,8.8,41,11.2,41,14.1z M34.3,10.3c0,4-3.2,7.2-7.2,7.2c-0.4,0-0.8,0.3-1,0.7C26,18.3,26,18.5,26,18.6c-0.4-0.1-0.9-0.2-1.3-0.2
	c3.4-1.6,5.8-5,5.8-9c0-2.3-0.8-4.3-2-6C31.8,3.9,34.3,6.8,34.3,10.3z M20.7,29.3l1.9,2.7l-2.1,9.8L18.4,32l1.9-2.7
	c0.3-0.4,0.3-1-0.1-1.4l-2.8-2.8l3.1-3.1l3.1,3.1l-2.7,2.7C20.5,28.2,20.4,28.8,20.7,29.3z M12.8,9.3c0-4.3,3.5-7.8,7.8-7.8
	s7.8,3.5,7.8,7.8s-3.5,7.8-7.8,7.8C16.2,17,12.8,13.6,12.8,9.3z M34.9,47.8H20.5H6.1c-0.6,0-0.6-0.2-0.6-0.8V33.8
	c0-7.4,5.5-13,12.9-13h0.5L15,24.5c-0.4,0.4-0.4,1,0,1.5l2.9,2.8l-1.6,2.3c-0.2,0.3-0.2,0.6-0.2,0.9l3.3,15.2
	c0.1,0.5,0.6,0.9,1.1,0.9s1-0.4,1.1-0.9l3.3-15.3c0.1-0.3,0-0.6-0.2-0.9l-1.6-2.2l2.9-2.9c0.4-0.4,0.4-0.9,0-1.3l-3.9-3.8h0.5
	c7.4,0,14,5.6,14,13V47C36.5,47.6,35.5,47.8,34.9,47.8z M41.5,45.3c0,0.6-0.5,1.5-1.1,1.5h-1.9v-13c0-5.1-2.6-9.7-6.4-12.5
	c0.7,0.2,1.3,0.5,2,0.8c0,0,0,0,0,0.1c0.2,0.2,0.5,0.4,0.8,0.4c4,2.3,6.7,6.7,6.7,11.6L41.5,45.3L41.5,45.3z M47.5,43.6
	c0,0.6-0.9,1.2-1.5,1.2h-1.5V34.2c0-4-1.7-7.7-4.2-10.4c4.2,2,7.2,6.3,7.2,10.9V43.6z M51.5,40.3c0,0.6-0.5,1.5-1.1,1.5h-0.9v-7.2
	c0-4.2-2.3-8.1-5.5-10.8c4.2,1.1,7.5,5.2,7.5,9.4V40.3z"/>
<g class="st2">
	<path class="st17" d="M49.4,22.8H27.9c-0.6,0-1.1-0.4-1.1-1s0.5-1,1.1-1h21.5c0.6,0,1.1,0.4,1.1,1S50,22.8,49.4,22.8z"/>
	<path class="st17" d="M49.4,44.8H27.9c-0.6,0-1.1-0.4-1.1-1s0.5-1,1.1-1h21.5c0.6,0,1.1,0.4,1.1,1S50,44.8,49.4,44.8z"/>
	<path class="st17" d="M46.2,51.5H30c-2.4,0-4.3-1.9-4.3-4.3v-28c0-2.4,1.9-4.3,4.3-4.3h16.1c2.4,0,4.3,1.9,4.3,4.3v28
		C50.5,49.6,48.6,51.5,46.2,51.5z M30,17.1c-1.2,0-2.2,1-2.2,2.2v28c0,1.2,1,2.2,2.2,2.2h16.1c1.2,0,2.2-1,2.2-2.2v-28
		c0-1.2-1-2.2-2.2-2.2H30z"/>
	<path class="st20" d="M37.6,49.4"/>
	<path class="st20" d="M37.6,33.3"/>
	<path class="st17" d="M26.3,38.1c-1.2,0-2.2-1-2.2-2.2s1-2.2,2.2-2.2c0.6,0,1.1,0.5,1.1,1.1s-0.5,1.1-1.1,1.1
		c0.6,0,1.1,0.5,1.1,1.1S26.9,38.1,26.3,38.1z"/>
	<path class="st17" d="M26.5,41.8H6.4c-1.8,0-3.8-1.4-3.8-3.2V5.3c0-1.8,2-3.5,3.8-3.5h40.9c1.8,0,3.3,1.7,3.3,3.5v13.5h-2V5.3
		c0-0.6-0.7-1.5-1.3-1.5H6.4c-0.6,0-1.8,0.9-1.8,1.5v33.4c0,0.6,1.2,1.2,1.8,1.2h20.2v1.9H26.5z"/>
	<path class="st17" d="M25.5,31.8h-17c-0.6,0-1-0.1-1-0.7V7.4c0-0.6,0.4-0.6,1-0.6h36.6c0.6,0,0.4,0,0.4,0.6v7.4h-2v-6h-34v21h16
		C25.5,29.8,25.5,31.8,25.5,31.8z"/>
	<path class="st17" d="M30,51.8H17.1c-0.6,0-1.1-0.4-1.1-1s0.5-1,1.1-1H30c0.6,0,1.1,0.4,1.1,1C31.1,51.4,30.6,51.8,30,51.8z"/>
	<path class="st17" d="M23.5,51.5c-0.6,0-1-0.5-1-1.1v-8.6c0-0.6,0.4-1.1,1-1.1s1,0.5,1,1.1v8.6C24.5,51.1,24.1,51.5,23.5,51.5z"/>
</g>
<rect x="-8.1" y="-10.2" class="st21" width="69.6" height="69.6"/>
<g class="st2">
	<path class="st17" d="M39.8,9.4H28.9c-3.9,0-5.6,2.1-6.9,3.7c-1,1.3-2.7,3.2-3.4,4h-6c-1.8,0-3.3,1.5-3.3,3.3s1.5,3.3,3.3,3.3h8.7
		c0.2,0,0.5-0.1,0.7-0.2l3.7-2.9V51c0,1.8,1.5,3.3,3.3,3.3h2.2c0.8,0,1.6-0.3,2.2-0.8c0.6,0.5,1.3,0.8,2.2,0.8h2.2
		c1.8,0,3.3-1.5,3.3-3.3V34.3c2.4-0.5,4.4-2.8,4.4-5.3V14.8C45.2,11.8,42.8,9.4,39.8,9.4z M38.7,50.7c0,0.6-0.5,1.1-1.1,1.1h-2.2
		c-0.6,0-1.1-0.5-1.1-1.1V39.8v-6.5c0-0.6-0.5-1.1-1.1-1.1s-1.1,0.5-1.1,1.1v6.5v10.9c0,0.6-0.5,1.1-1.1,1.1h-2.2
		c-0.6,0-1.1-0.5-1.1-1.1V27.9h10.9L38.7,50.7L38.7,50.7z M43,29c0,1.4-1,2.6-2.2,3V17c0-0.6-0.5-1.1-1.1-1.1s-1.1,0.5-1.1,1.1v8.7
		H27.8v-7.6c0-0.6-0.5-1.1-1.1-1.1c-0.3,0-0.5,0.1-0.7,0.3l0,0l-5.1,4.1h-8.3c-0.6,0-1.1-0.5-1.1-1.1s0.5-1.1,1.1-1.1h6.5
		c0.3,0,0.6-0.1,0.8-0.4c0.1-0.1,2.4-2.7,3.8-4.4c1.4-1.7,2.5-2.9,5.2-2.9h10.9c1.8,0,3.3,1.5,3.3,3.3V29H43z"/>
	<path class="st17" d="M33.3,7.2c3,0,5.4-2.4,5.4-5.4s-2.4-5.4-5.4-5.4s-5.4,2.4-5.4,5.4S30.3,7.2,33.3,7.2z M33.3-1.5
		c1.8,0,3.3,1.5,3.3,3.3s-1.5,3.3-3.3,3.3S30,3.6,30,1.8S31.5-1.5,33.3-1.5z"/>
	<path class="st17" d="M16.9,38.7h-13c-0.3,0-0.6,0.1-0.8,0.4c-0.2,0.2-0.3,0.6-0.2,0.9l2.2,13.1C5.2,53.6,5.6,54,6.2,54h8.6
		c0.5,0,1-0.4,1.1-0.9L18.1,40c0.1-0.3,0-0.6-0.2-0.9C17.6,38.9,17.3,38.7,16.9,38.7z M13.9,51.8H7L5.2,40.9h10.5L13.9,51.8z"/>
	<circle class="st17" cx="7.6" cy="30.5" r="1.6"/>
	<circle class="st17" cx="13" cy="34.9" r="1.6"/>
	<circle class="st17" cx="13" cy="27.3" r="1.6"/>
</g>
<g class="st2">
	<path class="st17" d="M40.2,42.8H8.8c-6.7,0-12.2-5.4-12.2-12.1S2,18.6,8.8,18.6c2,0,4,0.5,5.8,1.5c0-0.3,0-0.5,0-0.8
		c0-8.8,7.2-16,16-16s15.9,7.1,16,15.9c4,2.3,6.4,6.4,6.4,11C53,37.2,47.3,42.8,40.2,42.8z M8.8,21.2c-5.3,0-9.6,4.5-9.6,9.8
		s4.2,9.8,9.6,9.8h31.4c5.7,0,10.3-4.8,10.3-10.4c0-3.9-2.2-7.5-5.7-9.3c-0.5-0.2-0.7-0.7-0.7-1.2v-0.3c0-0.1,0-0.2,0-0.3
		c0-7.4-6-13.5-13.5-13.5c-7.4,0-13.5,6-13.5,13.5c0,1.1,0.1,2.2,0.4,3.4c0.1,0.6-0.1,1.1-0.6,1.4c-0.5,0.3-1.1,0.2-1.5-0.2
		C13.6,22.2,11.2,21.2,8.8,21.2z"/>
	<path class="st17" d="M46.3,21.7c-0.2,0-0.5-0.1-0.7-0.2c-1.6-1-3.5-1.6-5.5-1.6c-0.7,0-1.3-0.6-1.3-1.3s0.6-1.3,1.3-1.3
		c2.4,0,4.8,0.7,6.8,2c0.6,0.4,0.8,1.2,0.4,1.8C47.2,21.5,46.8,21.7,46.3,21.7z"/>
</g>
<g id="Atom" class="st2">
	<g class="st5">
		<path class="st22" d="M26.9,23.7c-1.4,0-2.5,1.1-2.5,2.5s1.1,2.5,2.5,2.5s2.5-1.1,2.5-2.5C29.4,24.9,28.3,23.7,26.9,23.7z
			 M54.8,26.3c0-3-3.7-5.8-9.5-7.6c2.8-5.4,3.5-10,1.3-12.1c-2.1-2.1-6.7-1.5-12.1,1.3c-1.9-5.8-4.6-9.5-7.6-9.5s-5.8,3.7-7.6,9.5
			c-5.4-2.8-10-3.5-12.1-1.3c-2.1,2.1-1.5,6.7,1.3,12.1C2.7,20.6-1,23.3-1,26.3s3.7,5.8,9.5,7.6C5.7,39.3,5,43.9,7.2,46
			c2.1,2.1,6.7,1.5,12.1-1.3c1.9,5.8,4.6,9.5,7.6,9.5s5.8-3.7,7.6-9.5c5.4,2.8,10,3.5,12.1,1.3c2.1-2.1,1.5-6.7-1.3-12.1
			C51.1,32,54.8,29.3,54.8,26.3z M1.5,26.3c0-2.2,3.1-4.2,8.1-5.6c1.1,1.8,2.3,3.7,3.8,5.6c-1.5,1.9-2.7,3.8-3.8,5.6
			C4.7,30.4,1.5,28.5,1.5,26.3z M16.9,22.1c-0.7,0.7-1.3,1.5-1.9,2.2c-1.1-1.4-2.1-2.8-3-4.2c1.6-0.3,3.3-0.6,5.1-0.9
			C17,20.2,16.9,21.1,16.9,22.1z M17.1,33.3c-1.8-0.2-3.5-0.5-5.1-0.9c0.9-1.3,1.9-2.7,3-4.2c0.6,0.7,1.2,1.4,1.9,2.2
			C16.9,31.4,17,32.3,17.1,33.3z M9,44.2c-1.6-1.6-0.7-5.2,1.8-9.7c2,0.5,4.2,1,6.6,1.3c0.3,2.4,0.7,4.6,1.3,6.6
			C14.1,44.9,10.5,45.7,9,44.2z M17.4,16.7C15,17,12.8,17.4,10.8,18C8.3,13.5,7.4,9.9,9,8.3s5.2-0.7,9.7,1.8
			C18.1,12.1,17.7,14.4,17.4,16.7z M33.9,16.4C33,16.3,32,16.2,31,16.2c-0.7-0.7-1.4-1.3-2.2-1.9c1.4-1.1,2.8-2.1,4.2-3
			C33.4,12.9,33.7,14.6,33.9,16.4z M26.9,0.9c2.2,0,4.2,3.1,5.6,8.1c-1.8,1.1-3.7,2.3-5.6,3.8c-1.9-1.5-3.8-2.7-5.6-3.8
			C22.7,4,24.7,0.9,26.9,0.9z M20.7,11.4c1.4,0.9,2.8,1.9,4.2,3c-0.7,0.6-1.5,1.2-2.2,1.9c-1,0.1-1.9,0.1-2.9,0.2
			C20.1,14.6,20.4,12.9,20.7,11.4z M19.9,36.1c0.9,0.1,1.9,0.2,2.9,0.2c0.7,0.7,1.4,1.3,2.2,1.9c-1.4,1.1-2.8,2.1-4.2,3
			C20.4,39.6,20.1,37.9,19.9,36.1z M26.9,51.6c-2.2,0-4.2-3.1-5.6-8.1c1.8-1.1,3.7-2.3,5.6-3.8c1.9,1.5,3.8,2.7,5.6,3.8
			C31.1,48.5,29.1,51.6,26.9,51.6z M33.1,41.1c-1.3-0.9-2.8-1.9-4.2-3c0.7-0.6,1.5-1.2,2.2-1.9c1-0.1,1.9-0.1,2.9-0.2
			C33.7,37.9,33.4,39.6,33.1,41.1z M34.4,29.4c-0.7,0.8-1.4,1.5-2.2,2.2c-0.7,0.7-1.5,1.5-2.2,2.2c-1,0-2.1,0.1-3.1,0.1
			c-1.1,0-2.1-0.1-3.1-0.1c-0.8-0.7-1.5-1.4-2.2-2.2c-0.7-0.7-1.5-1.5-2.2-2.2c0-1-0.1-2.1-0.1-3.1s0-2.1,0.1-3.1
			c0.7-0.7,1.4-1.5,2.2-2.2c0.7-0.7,1.5-1.5,2.2-2.2c1,0,2.1-0.1,3.1-0.1c1.1,0,2.1,0,3.1,0.1c0.7,0.7,1.5,1.4,2.2,2.2
			c0.7,0.7,1.5,1.5,2.2,2.2c0,1,0.1,2.1,0.1,3.1S34.5,28.4,34.4,29.4z M44.8,8.3c1.6,1.6,0.7,5.2-1.8,9.7c-2-0.5-4.2-1-6.6-1.3
			c-0.3-2.4-0.7-4.6-1.3-6.6C39.7,7.6,43.3,6.8,44.8,8.3z M38.8,24.3c-0.6-0.7-1.2-1.4-1.9-2.2c-0.1-1-0.1-1.9-0.2-2.9
			c1.8,0.2,3.5,0.5,5.1,0.9C40.9,21.4,39.9,22.8,38.8,24.3z M38.8,28.2c1.1,1.4,2.1,2.8,3,4.2c-1.6,0.3-3.3,0.6-5.1,0.9
			c0.1-0.9,0.2-1.9,0.2-2.9C37.6,29.7,38.2,28.9,38.8,28.2z M44.8,44.2c-1.6,1.6-5.2,0.7-9.7-1.8c0.5-2,1-4.2,1.3-6.6
			c2.4-0.3,4.6-0.7,6.6-1.3C45.6,39,46.4,42.6,44.8,44.2z M44.1,31.8c-1.1-1.8-2.3-3.7-3.8-5.6c1.5-1.9,2.7-3.8,3.8-5.6
			c5,1.4,8.1,3.4,8.1,5.6C52.3,28.5,49.1,30.4,44.1,31.8z"/>
	</g>
</g>
<g id="Star_x40_2x.png">
	<g>
		<path class="st13" d="M53.6,19.5H34.1L26.8,0l-7.3,19.5H0l15.8,12.2L8.5,53.6l18.3-13.4l18.3,13.4l-7.3-21.9L53.6,19.5z
			 M40.4,47.1l-12.1-8.9l-1.5-1l-1.4,1.1l-12.1,8.9l4.9-14.7l0.5-1.6l-1.4-1.1L7.1,22h12.3h1.7l0.6-1.6l5-13.4l5,13.4l0.6,1.6H34
			h12.3l-10.2,7.8l-1.2,1l0.5,1.6L40.4,47.1z"/>
	</g>
</g>
</svg>
