<?xml version="1.0" encoding="utf-8"?>
<!-- Generator: Adobe Illustrator 17.1.0, SVG Export Plug-In . SVG Version: 6.00 Build 0)  -->
<!DOCTYPE svg PUBLIC "-//W3C//DTD SVG 1.1//EN" "http://www.w3.org/Graphics/SVG/1.1/DTD/svg11.dtd">
<svg version="1.1" id="Layer_1" xmlns="http://www.w3.org/2000/svg" xmlns:xlink="http://www.w3.org/1999/xlink" x="0px" y="0px"
	 viewBox="0 0 63 40" enable-background="new 0 0 63 40" xml:space="preserve">
<g>
	<path fill="#003085" d="M31.9,20.3c0,0,0,0.1,0,0.6c0-0.2-0.4-0.4-0.6-0.5c-0.3-0.1-0.7-0.1-1-0.1c-0.9,0-1.9,0.4-2.4,1.2
		c-0.5,0.7-0.7,1.6-0.5,2.5c0.4,1.2,1.4,1.9,2.7,1.5c0.4-0.1,1-0.4,1.3-0.6l0,0.5h1.4l0.8-5.2H31.9z M31.3,23.2
		c-0.1,0.8-0.7,1.3-1.3,1.2c-0.6-0.1-1-0.8-0.8-1.5c0.1-0.8,0.7-1.3,1.3-1.2C31,21.8,31.4,22.5,31.3,23.2z"/>
	<path fill="#003085" d="M25.8,17.8c-1-0.2-3.8,0-3.8,0l-1.4,7.6h1.9c0,0,0.5-2.4,0.5-2.4c0,0,1.3-0.1,1.4-0.1
		c0.5-0.1,1-0.2,1.5-0.4c0.8-0.4,1.2-1.2,1.4-2C27.8,19.2,27.1,18.2,25.8,17.8z M25.4,20.2c0,0.3-0.1,0.5-0.2,0.8
		c-0.4,0.6-1.3,0.4-1.8,0.3c0,0,0.2-1.9,0.2-1.9c0-0.1,1.1,0,1.2,0C25.1,19.4,25.4,19.8,25.4,20.2z"/>
	<path fill="#019CDE" d="M7.8,27.1c0,0,1.7-9.9,1.7-9.9c1.5-0.2,3.2-0.3,4.7,0c0.6,0.1,1.2,0.3,1.5,0.9c1.2,2,0.1,4.5-2,5.3
		c-0.3,0.1-0.6,0.2-1,0.2c-0.2,0-1.4,0.1-1.4,0.1c0,0,0,0-0.8,3.4H7.8z"/>
	<path opacity="0.87" fill="#003085" d="M5,25.8c0,0,1.8-11.4,1.8-11.4c1.5,0,3.1-0.1,4.6-0.1c0.4,0,0.9,0,1.3,0c0.2,0,0.3,0,0.5,0
		c0.6,0.1,1.1,0.7,1.5,1.2c0.4,0.6,0.5,1.3,0.4,2c0,0-0.2,4.7-6.4,4L8,25.8H5z"/>
	<polygon fill="#003085" points="34.4,20.5 36,25 34.5,27.2 36.3,27.4 40.9,20.5 39.2,20.3 37.2,23.3 36.2,20.3 	"/>
	<path fill="#019CDE" d="M46.4,17.8h-4.3c0,0-1.2,7.7-1.2,7.7h1.8c0,0,0.6-2.6,0.6-2.6c1,0,2,0,2.9-0.4c0.8-0.4,1.2-1.1,1.5-1.9
		c0.1-0.5,0.2-1,0-1.5C47.5,18.5,47,18,46.4,17.8z M45.7,20.3c0,0.5-0.3,1-0.8,1c0,0-1.5,0-1.5,0l0.4-2.1c0,0,1,0,1,0
		c0.3,0.1,0.7,0.2,0.8,0.5C45.7,19.9,45.7,20.1,45.7,20.3z"/>
	<path fill="#576D87" d="M50.3,21.7c-0.4,0.2-0.6,0.6-0.7,1.1c-0.1,0.5,0.1,1,0.3,1.3c-0.6-0.4-0.7-1.1-0.4-1.7
		C49.7,22,49.9,21.8,50.3,21.7z"/>
	<path fill="#576D87" d="M51.7,23.6c-0.2,0.3-0.5,0.5-0.8,0.6c0.4-0.2,0.7-0.6,0.7-1.1c0.1-0.5-0.1-1.1-0.4-1.3
		C51.9,22.2,52.1,23,51.7,23.6z"/>
	<path fill="#019CDE" d="M52.2,20.4c0,0-0.1,0.5-0.1,0.5c0-0.2-1.1-0.5-1.3-0.5c-0.6-0.1-1.3,0-1.8,0.3c-1,0.5-1.6,1.5-1.7,2.6
		c-0.1,1,0.4,2.2,1.5,2.5c0.4,0.1,0.9,0.1,1.3,0c0,0,0.9-0.2,1.4-0.7l0,0.6H53l0.9-5.1L52.2,20.4z M50.9,24.2
		c-0.3,0.1-0.6,0.1-0.9-0.1c-0.8-0.5-0.5-2,0.3-2.4c0.3-0.1,0.7-0.1,1,0.1c0.3,0.3,0.5,0.8,0.4,1.3C51.6,23.6,51.3,24,50.9,24.2z"/>
	<polygon fill="#019CDE" points="55.3,17.9 54.2,25.5 55.8,25.5 57.1,17.9 	"/>
</g>
</svg>
