<?xml version="1.0" encoding="utf-8"?>
<!-- Generator: Adobe Illustrator 17.1.0, SVG Export Plug-In . SVG Version: 6.00 Build 0)  -->
<!DOCTYPE svg PUBLIC "-//W3C//DTD SVG 1.1//EN" "http://www.w3.org/Graphics/SVG/1.1/DTD/svg11.dtd">
<svg version="1.1" id="Layer_1" xmlns="http://www.w3.org/2000/svg" xmlns:xlink="http://www.w3.org/1999/xlink" x="0px" y="0px"
	 viewBox="0 0 63 40" enable-background="new 0 0 63 40" xml:space="preserve">
<g>
	<path fill="#303F47" d="M14.4,15.1c-0.3-1.4-2.1-2.2-3.4-2.5c-1.2-0.3-2.4-0.3-3.6-0.1c-0.1,0-1.7,0.2-1.7,0.3v12.9
		c1.1,0.7,2.5,0,2.5,0v-4.9c2.9,0.3,4.8-1,4.8-1c0.2-0.1,0.3-0.2,0.4-0.4C14.5,18.3,14.7,16.6,14.4,15.1z M10.7,18.8
		C10.3,19,9.8,19,9.3,19c-0.1,0-1.1,0-1.1,0c0,0,0-4.5,0-4.5s3.6-0.9,4,1.7C12.4,17.3,11.6,18.3,10.7,18.8z"/>
	<path fill="#303F47" d="M51.9,19.8c0.1-1.6-0.8-3-2.2-3.6c-1.4-0.6-3.3-0.3-4.7,0.2c-0.1,0-0.3,0.1-0.4,0.2l0.5,1.6
		c0,0,4.3-2,4.5,1.2c0-0.1-2.1,0.2-2.3,0.3C46,20,44.5,20.7,44,22c-0.4,0.9-0.1,1.9,0.5,2.6c0.6,0.8,1.5,1.3,2.5,1.2
		c1-0.1,1.8-0.4,2.5-1.2l0.3,0.9c0,0,1.2,0.6,2-0.1C51.9,25.5,51.7,24.9,51.9,19.8z M49.7,22.5c-0.2,0.7-0.7,1.3-1.4,1.6
		c-0.7,0.3-1.7-0.1-2-0.7c-1-1.9,3.2-2.8,3.3-2.4C49.8,21.4,49.8,22,49.7,22.5z"/>
	<path fill="#303F47" d="M24.3,16.7l3.6,8.6c0,0-0.3,1.9-2.8,2.8c0,0-0.1,1.6,0.5,2c0,0,2.6-0.4,4-3.1l4.2-10.6c0,0-0.9-0.7-2.5,0
		l-1.9,6.7l-2.4-7C26.8,16.1,23.8,15.6,24.3,16.7z"/>
	<path fill="#303F47" d="M35.3,16.3h7.4v1.4L38,23.7l4.6,0.2c0,0,0.6,0.8,0,1.8h-7.8v-1.4l4.9-6.3h-4.7C35.1,18.1,34.9,17,35.3,16.3
		z"/>
	<path fill="#24B156" d="M14.3,11.7c0,0,18.8-7.3,36.9,1.8c0,0,1.5,0.3,0-1.1c0,0-16.5-11.5-38.1-1.2C13,11.2,14,11.4,14.3,11.7z"/>
	<path fill="#303F47" d="M23.4,20c0.1-1.5-0.8-3-2.2-3.6c-1.4-0.6-3.2-0.3-4.6,0.1c-0.1,0-0.3,0.1-0.4,0.2l0.5,1.6
		c0,0,4.3-2,4.4,1.2c0-0.1-2.1,0.2-2.3,0.3c-1.3,0.3-2.7,1-3.2,2.3c-0.4,0.9-0.2,1.8,0.4,2.6c0.6,0.8,1.4,1.4,2.5,1.3
		c1-0.1,1.9-0.4,2.6-1.2l0.3,0.9c0,0,1.2,0.6,2-0.1C23.4,25.6,23.3,25,23.4,20z M21.2,22.6C20.9,24,19,25,18,23.6
		c-0.6-0.8,0.1-1.7,0.8-2.1c0.6-0.3,1.3-0.5,2-0.5c0.2,0,0.3,0,0.3,0.1c0.1,0.1,0.1,0.2,0.1,0.5C21.3,21.9,21.3,22.2,21.2,22.6z"/>
	<text transform="matrix(1 0 0 1 53.9814 18.004)" fill="#4C4C4C" font-family="'MyriadPro-Regular'" font-size="2.7738">tm</text>
</g>
</svg>
