<svg version="1.1" id="Layer_4" xmlns="http://www.w3.org/2000/svg" x="0" y="0" viewBox="0 0 53.6 53.6" xml:space="preserve"><style>.st2{display:none}.st3{display:inline;fill:#2686c7}.st4{display:none;fill:#fff}.st5{display:inline}.st6,.st9{fill:#fff}.st9{display:none;stroke:#e53825;stroke-miterlimit:10}.st12{display:inline}.st12,.st13{fill:#0689d8}.st16{display:inline;fill:none;stroke:#0689d8;stroke-width:2;stroke-linecap:round;stroke-miterlimit:10}.st17,.st20{display:inline;fill:#84e658}.st20{stroke:#007aff;stroke-width:2;stroke-linecap:round;stroke-linejoin:round;stroke-miterlimit:10}</style><g class="st2"><path class="st3" d="M50.8 27.1c0-11.7-9.1-21.4-20.7-22.2v-6c0-.9-.7-1.6-1.6-1.6-.9 0-1.6.7-1.6 1.6v6c-5 .3-9.5 2.3-13 5.4L9.7 6.1c-.6-.6-1.6-.6-2.2 0s-.6 1.6 0 2.2l4.2 4.2c-3.1 3.5-5 8.1-5.4 13h-6c-.9 0-1.6.7-1.6 1.6 0 .9.7 1.6 1.6 1.6h6c.4 4.9 2.3 9.4 5.4 13L7.4 46c-.6.6-.6 1.6 0 2.2.3.3.7.5 1.1.5s.8-.2 1.1-.5l4.3-4.3c3.5 3 8 5 12.9 5.4v6.1c0 .9.7 1.6 1.6 1.6.9 0 1.6-.7 1.6-1.6v-6.1c11.6-.8 20.8-10.4 20.8-22.2zM28.2 46.2C17.8 46 9.4 37.6 9.4 27.1 9.4 16.7 17.8 8.2 28.1 8c1.6.8 9.1 5.6 9.1 19.1.1 13.6-7.4 18.3-9 19.1zm6-.8c3-3.3 6.2-9 6.2-18.2 0-9.3-3.2-15-6.2-18.2 7.8 2.4 13.4 9.7 13.4 18.2S42 43 34.2 45.4z"/><path class="st3" d="M22.8 23.1c0-2.4-1.1-4.5-3.8-4.5-2.1 0-3.8 1.8-3.8 3.9v1.4h2.6v-1.5c0-.8.5-1.3 1.3-1.3 1.3 0 1.3 1.1 1.3 2 0 1 0 1.5-.5 2.4l-4.6 8.7v2.4h7.5V34h-4.6l3.8-7.3c.8-1.4.8-1.8.8-3.6zM31.6 31.6v-5.1H29v5.1h-2.5l3.8-12.8h-2.7l-3.7 12.8V34H29v2.7h2.6V34h1.2v-2.4z"/></g><g class="st2"><circle class="st3" cx="19.1" cy="29.5" r="2.6"/><circle class="st3" cx="34.5" cy="29.5" r="2.6"/><path class="st3" d="M49.1 20c-.6-4.6-2.6-8.9-5.7-12.4C39.2 3 33.3.4 27 .4S14.8 3 10.6 7.6c-3.2 3.5-5.2 7.9-5.7 12.6C2 21.7 2 25.8 2 28.1c0 2.5 0 7.2 3.8 8.3l2.9.9c.3.1.6.1.9.1.6 0 1.1-.2 1.6-.5.8 2 1.9 4 3.2 5.8 2.9 3.8 6.4 6.2 10.2 6.9.3-1.1.8-2.1 1.6-3-6.5-.7-13.7-8.7-13.7-18.8 0-.6 0-1.1.1-1.6.3 0 5.9-.1 9.4-6.5 2.3 2.5 7.2 6.1 16.3 6.5h3.4c.1.5.1 1.1.1 1.6 0 7.7-4.1 14.1-8.9 17.1 1.1.4 2.1 1 2.9 1.9 1.5-1.1 2.9-2.5 4.1-4.2 1.4-1.8 2.5-3.9 3.3-6 .3.3.8.6 1.2.7-.6 1.6-1.7 3.8-3.2 5.8-2.5 3.3-5.1 5.4-7.7 6.2-.7-.9-1.7-1.5-2.8-1.5-1.8 0-3.2 1.4-3.2 3.2 0 1.8 1.4 3.2 3.2 3.2 1.6 0 2.9-1.1 3.2-2.6 3.2-.9 6.2-3.2 9.2-7.1 2.2-2.8 3.4-6 4-7.6l1.7-.5c3.8-1.1 3.8-5.8 3.8-8.3-.1-2.4-.1-6.8-3.5-8.1zm-40 14.1l-2.5-.8c-1.1-.3-1.5-1.8-1.5-5.2 0-1 0-1.8.1-2.4.3.3.7.5 1.2.5h2.8l-.1 7.9zM22.9 16c-.3-.5-.8-.9-1.4-.9h-.1c-.6 0-1.2.4-1.4 1-2.5 6.8-7.4 7-7.6 7H7.8c-.1-4.9 1.7-9.7 5.1-13.3 3.6-4 8.6-6.1 14.1-6.1s10.5 2.2 14.1 6.1c3.3 3.6 5.1 8.4 5.1 13.3h-7.9C26.4 22.6 23 16.2 22.9 16zm24.9 17.4l-2.5.7v-7.9h2.3c.7 0 1.4-.5 1.5-1.2.1.8.2 1.8.2 3.1.1 3.4-.4 5-1.5 5.3z"/></g><path class="st4" d="M28.4 43.1c-5.5 0-10.6-2.1-14.5-6s-6-9-6-14.5S10 12 13.9 8.1c.4-.4 1.2-.4 1.6 0l27.3 27.4c.4.4.4 1.2 0 1.6-3.8 3.9-9 6-14.4 6zM14.7 10.6c-2.9 3.3-4.6 7.6-4.6 12 0 4.9 1.9 9.4 5.3 12.9 3.4 3.4 8 5.3 12.9 5.3 4.5 0 8.7-1.6 12-4.6L14.7 10.6zM37.5 23.8c-.6 0-1.1-.5-1.1-1.1 0-4.4-3.6-8-8-8-.6 0-1.1-.5-1.1-1.1s.5-1.1 1.1-1.1c5.6 0 10.2 4.6 10.2 10.2 0 .6-.5 1.1-1.1 1.1z"/><path class="st4" d="M43.1 23.8c-.6 0-1.1-.5-1.1-1.1 0-7.5-6.1-13.6-13.6-13.6-.6 0-1.1-.5-1.1-1.1s.5-1.1 1.1-1.1c8.7 0 15.9 7.1 15.9 15.9-.1.5-.6 1-1.2 1z"/><path class="st4" d="M48.7 23.8c-.6 0-1.1-.5-1.1-1.1 0-10.6-8.6-19.2-19.2-19.2-.6 0-1.1-.5-1.1-1.1s.5-1.1 1.1-1.1c11.9 0 21.5 9.6 21.5 21.5 0 .5-.6 1-1.2 1zM22.5 53.8H11.1c-.6 0-1.6-.2-1.6-.8V32.5c0-.6.4-1.1 1-1.1s1 .5 1 1.1v19.3h9.4l-4.1-12.1c-.2-.6.1-1.2.7-1.4.6-.2 1.2.1 1.4.7l4.5 13.7c.1.3.1.6-.2.9 0 .2-.3.2-.7.2z"/><g id="Shopping_Bag" class="st2"><g class="st5"><path class="st6" d="M50.1 50l-4.6-34.4c-.1-.6-.5-1-1.1-1h-8V10c0-5.1-4.1-9.2-9.2-9.2S18 4.9 18 10v4.6h-8c-.6 0-1 .4-1.1 1L4.3 50v.1c0 .6.5 1.1 1.1 1.1H49c.6 0 1.1-.5 1.1-1.2 0 .1 0 .1 0 0zM20.3 10c0-3.8 3.1-6.9 6.9-6.9 3.8 0 6.9 3.1 6.9 6.9v4.6H20.3V10zM11 16.9h7v4.9c-.7.4-1.1 1.1-1.1 2 0 1.3 1 2.3 2.3 2.3s2.3-1 2.3-2.3c0-.8-.5-1.6-1.1-2v-4.9h13.8v4.9c-.7.4-1.1 1.1-1.1 2 0 1.3 1 2.3 2.3 2.3s2.3-1 2.3-2.3c0-.8-.5-1.6-1.1-2v-4.9h7l3.7 27.5h-40L11 16.9zM6.7 49l.3-2.3h40.4l.3 2.3h-41z"/></g><path d="M50.1 50h0l-4.6-34.4h0c-.1-.6-.5-1-1.1-1h-8V10c0-5.1-4.1-9.2-9.2-9.2S18 4.9 18 10v4.6h-8c-.6 0-1 .4-1.1 1h0L4.3 50h0v.1c0 .6.5 1.1 1.1 1.1H49c.6 0 1.1-.5 1.1-1.2 0 .1 0 .1 0 0zM20.3 10c0-3.8 3.1-6.9 6.9-6.9 3.8 0 6.9 3.1 6.9 6.9v4.6H20.3V10zM11 16.9h7v4.9c-.7.4-1.1 1.1-1.1 2 0 1.3 1 2.3 2.3 2.3s2.3-1 2.3-2.3c0-.8-.5-1.6-1.1-2v-4.9h13.8v4.9c-.7.4-1.1 1.1-1.1 2 0 1.3 1 2.3 2.3 2.3s2.3-1 2.3-2.3c0-.8-.5-1.6-1.1-2v-4.9h7l3.7 27.5h-40L11 16.9zM6.7 49l.3-2.3h40.4l.3 2.3h-41z" fill="none" stroke="#2686c7" stroke-miterlimit="10"/></g><g id="Lightning_Bolt_x40_2x.png" class="st2"><g class="st5"><path class="st6" d="M42.7 20.2c0-.7-.6-1.3-1.3-1.3H30.9L37.3-.4c0-.1.1-.3.1-.4 0-.7-.6-1.3-1.3-1.3H23c-.6 0-1.1.4-1.2.9L11.3 30.2c0 .1-.1.3-.1.4 0 .7.6 1.3 1.3 1.3h11.6L21.6 54v.1c0 .7.6 1.3 1.3 1.3.5 0 1-.3 1.2-.8l18.4-34.1c.1 0 .2-.1.2-.3zM25.1 47.7l1.8-16.9v-.1c0-.7-.6-1.3-1.3-1.3H14.3L23.9.6h10.3l-6.4 19.3c0 .1-.1.3-.1.4 0 .7.6 1.3 1.3 1.3h10.1l-14 26.1z"/></g><path d="M42.7 20.2c0-.7-.6-1.3-1.3-1.3H30.9L37.3-.4h0c0-.1.1-.3.1-.4 0-.7-.6-1.3-1.3-1.3H23c-.6 0-1.1.4-1.2.9h0L11.3 30.2h0c0 .1-.1.3-.1.4 0 .7.6 1.3 1.3 1.3h11.6L21.6 54h0v.1c0 .7.6 1.3 1.3 1.3.5 0 1-.3 1.2-.8h0l18.4-34.1h0c.1 0 .2-.1.2-.3zM25.1 47.7l1.8-16.9h0v-.1c0-.7-.6-1.3-1.3-1.3H14.3L23.9.6h10.3l-6.4 19.3h0c0 .1-.1.3-.1.4 0 .7.6 1.3 1.3 1.3h10.1l-14 26.1z" fill="none" stroke="#d22427" stroke-miterlimit="10"/></g><path class="st9" d="M13.5 37.2c-2.1 1.3-5.5 1.8-7.8.4-1.6-.9-2.4-2.6-2.5-4.8l2.4.3h.1c.3 0 .7-.2.9-.4.2-.3.3-.7.1-1.1l-2.9-6.9c-.2-.4-.5-.6-.9-.7-.4-.1-.8.1-1 .4l-4.6 5.9c-.2.3-.3.7-.1 1.1.2.4.5.6.9.7l2.8.4c.1 4.1 2 6.1 3.6 7.1 1.4.8 2.9 1.1 4.4 1.1 2.1 0 4.2-.6 5.7-1.6.5-.3.7-1 .4-1.6-.2-.5-.9-.6-1.5-.3zM.4 30.1l2.2-2.8L4 30.6l-3.6-.5zm56.4-9c-.2-.4-.5-.6-.9-.7l-2.8-.4c-.1-4.1-2-6.1-3.6-7.1-3.3-1.9-7.6-1.2-10.2.4-.5.3-.7 1-.4 1.6.3.5 1 .7 1.6.4 2.1-1.3 5.5-1.8 7.8-.4 1.6.9 2.4 2.6 2.5 4.8l-2.4-.3c-.4-.1-.8.1-1 .4-.2.3-.3.7-.1 1.1l2.9 6.9c.2.4.5.6.9.7h.1c.3 0 .7-.2.9-.4l4.6-5.9c.2-.3.3-.7.1-1.1zm-5.3 4.1l-1.4-3.3 3.5.5-2.1 2.8zm-33.6-7.1c.6.3 1.3.3 2.1.1h.1l.8 2.3c-.4.1-.7.1-1 .1s-.6-.1-1-.3l-.2-.1-.7 1.6.2.1c.6.3 1.2.4 1.6.4h.1c.4 0 .9-.1 1.4-.2l.5 1.3 1.4-.5-.5-1.4c.5-.3.9-.5 1.1-.8.8-.8 1-1.8.6-2.9-.3-.8-.8-1.4-1.5-1.6-.5-.2-1.2-.2-2-.1l-.1.2-.8-2.2c.3-.1.5-.1.7-.1s.5.1.8.2l.2.1.7-1.5-.2-.1c-.6-.2-1-.3-1.4-.3h-.1c-.3 0-.7.1-1.1.2l-.4-1.1-1.4.5.4 1.1-.9.6c-.3.2-.5.6-.6.9-.3.6-.3 1.3 0 2.1.2.6.6 1.1 1.2 1.4zm4.4-.1c.2.1.4.3.6.6.1.4.1.7 0 .9s-.3.4-.6.6l-.8-2.1c.3-.1.5-.1.8 0zm-3.5-3.5l.7 2.1c-.3 0-.6 0-.8-.1s-.4-.3-.5-.6c-.1-.5.1-1 .6-1.4zm-10 15.7c.2.5.6.7 1.1.7.1 0 .3 0 .4-.1l27.1-9.9c.6-.2.9-.9.7-1.4L32.6 4.8c-.2-.6-.9-.9-1.4-.7L4.1 14c-.3.1-.5.3-.6.6s-.1.6 0 .9l5.3 14.7zm3.8-2.7c-.2.4-.5.6-.8.8-.8.3-1.6-.1-1.9-.9-.1-.4-.1-.8 0-1.1.2-.4.5-.6.8-.8.2-.1.3-.1.5-.1.6 0 1.2.4 1.4 1 .2.4.1.8 0 1.1zm22.7-9.4c.1.4.1.8 0 1.1-.2.4-.5.6-.8.8-.8.3-1.6-.1-1.9-.9-.1-.4-.1-.8 0-1.1.2-.4.5-.6.8-.8.2-.1.3-.1.5-.1.7 0 1.2.4 1.4 1zM28.8 7.5c.2-.4.5-.6.8-.8.2-.1.3-.1.5-.1.6 0 1.2.4 1.4 1 .1.4.1.8 0 1.1-.2.4-.5.6-.8.8-.8.3-1.6-.1-1.9-.9-.2-.3-.2-.7 0-1.1zM27 8c0 .4 0 .8.2 1.2.5 1.3 1.7 2.1 3 2.1.4 0 .7-.1 1.1-.2.4-.1.7-.4 1-.6l1.8 4.9H34c-.4 0-.7.1-1.1.2-.8.3-1.4.9-1.8 1.6-.4.8-.4 1.6-.1 2.4.1.4.4.7.6 1l-3.4 1.2c.1-.2.3-.5.4-.8 1-2.1 1.1-4.5.3-6.7C28 11.8 26 9.9 23.6 9L27 8zm-12.7 6.5c.8-1.7 2.2-3 4-3.6.8-.3 1.6-.4 2.4-.4 3 0 5.6 1.9 6.6 4.6.6 1.8.6 3.7-.2 5.4s-2.2 3-4 3.6c-.8.3-1.6.4-2.4.4-3 0-5.6-1.9-6.6-4.6-.7-1.8-.6-3.7.2-5.4zm-3.9.8c-.1-.4-.4-.8-.7-1.1l3.4-1.2c-.1.2-.3.5-.4.8-1 2.1-1.1 4.5-.3 6.7.9 2.5 2.9 4.4 5.3 5.3L14.3 27c0-.4 0-.8-.2-1.2-.5-1.3-1.7-2.1-3-2.1-.4 0-.7.1-1.1.2-.4.1-.7.4-1 .6l-1.8-4.9h.1c.4 0 .7-.1 1.1-.2.8-.3 1.4-.9 1.8-1.6.5-.8.5-1.7.2-2.5zM6.9 15c.2-.1.3-.1.5-.1.6 0 1.2.4 1.4 1 .1.4.1.8 0 1.1-.2.4-.5.6-.8.8-.8.3-1.6-.1-1.9-.9-.4-.7 0-1.6.8-1.9zM31.2 36.7c.6.3 1.3.3 2.1.1h.1l.8 2.3c-.4.1-.7.1-1 .1s-.6-.1-1-.3l-.2-.1-.7 1.6.2.1c.6.3 1.2.4 1.6.4h.1c.4 0 .9-.1 1.4-.2l.5 1.3 1.4-.5-.5-1.4c.5-.3.9-.5 1.1-.8.8-.8 1-1.8.6-2.9-.3-.8-.8-1.4-1.5-1.6-.5-.2-1.2-.2-2-.1l-.3.1-.8-2.2c.3-.1.5-.1.7-.1s.5.1.8.2l.2.1.7-1.5-.2-.1c-.6-.2-1-.3-1.4-.3h-.1c-.3 0-.7.1-1.1.2l-.4-1.1-1.4.5.4 1.1-.9.6c-.3.2-.5.6-.6.9-.3.6-.3 1.3 0 2.1.4.7.8 1.2 1.4 1.5zm4.3-.2c.2.1.4.3.6.6.1.4.1.7 0 .9s-.3.4-.6.6l-.8-2.1h.8zm-3.4-3.4l.7 2.1c-.3 0-.6 0-.8-.1s-.4-.3-.5-.6c-.1-.6 0-1 .6-1.4zM22 48.8c.2.5.6.7 1.1.7.1 0 .3 0 .4-.1l27.1-9.9c.6-.2.9-.9.7-1.4l-5.4-14.8c-.2-.6-.9-.9-1.4-.7l-27.1 9.9c-.3.1-.5.3-.6.6s-.1.6 0 .9L22 48.8zm3.8-2.7c-.2.4-.5.6-.8.8-.8.3-1.6-.1-1.9-.9-.1-.4-.1-.8 0-1.1.2-.4.5-.6.8-.8.2-.1.3-.1.5-.1.6 0 1.2.4 1.4 1 .2.3.2.7 0 1.1zm22.8-9.4c.1.4.1.8 0 1.1-.2.4-.5.6-.8.8-.8.3-1.6-.1-1.9-.9-.1-.4-.1-.8 0-1.1.2-.4.5-.6.8-.8.2-.1.3-.1.5-.1.6 0 1.2.4 1.4 1zm-6.5-10.6c.2-.4.5-.6.8-.8.2-.1.3-.1.5-.1.6 0 1.2.4 1.4 1 .1.4.1.8 0 1.1-.2.4-.5.6-.8.8-.8.3-1.6-.1-1.9-.9-.2-.3-.2-.7 0-1.1zm-1.9.5c0 .4 0 .8.2 1.2.5 1.3 1.7 2.1 3 2.1.4 0 .7-.1 1.1-.2.4-.1.7-.4 1-.6l1.8 4.9h-.1c-.4 0-.7.1-1.1.2-.8.3-1.4.9-1.8 1.6-.4.8-.4 1.6-.1 2.4.1.4.4.7.6 1l-3.4 1.2c.1-.2.3-.5.4-.8 1-2.1 1.1-4.5.3-6.7-.9-2.5-2.9-4.4-5.3-5.3l3.4-1zm-12.6 6.5c.8-1.7 2.2-3 4-3.6.8-.3 1.6-.4 2.4-.4 3 0 5.6 1.9 6.6 4.6.6 1.8.6 3.7-.2 5.4s-2.2 3-4 3.6c-.8.3-1.6.4-2.4.4-3 0-5.6-1.9-6.6-4.6-.7-1.8-.6-3.7.2-5.4zm-3.9.8c-.1-.4-.4-.8-.7-1.1l3.4-1.2c-.1.2-.3.5-.4.8-1 2.1-1.1 4.5-.3 6.7.9 2.5 2.9 4.4 5.3 5.3l-3.4 1.2c0-.4 0-.8-.2-1.2-.5-1.2-1.7-2.1-3-2.1-.4 0-.7.1-1.1.2-.4.1-.7.4-1 .6l-1.8-4.9h.1c.4 0 .7-.1 1.1-.2.8-.3 1.4-.9 1.8-1.6.4-.8.5-1.7.2-2.5zm-3.5-.3c.2-.1.3-.1.5-.1.6 0 1.2.4 1.4 1 .1.4.1.8 0 1.1-.2.4-.5.6-.8.8-.8.3-1.6-.1-1.9-.9-.4-.8 0-1.6.8-1.9z"/><g id="Share_2" class="st2"><path d="M45.9.6C42.7.6 40 3.2 40 6.5c0 2.8 2 5.2 4.7 5.8v13h-13c-.5-2.7-2.9-4.7-5.8-4.7s-5.2 2-5.8 4.7H6c-.6 0-1.2.5-1.2 1.2v14.2c-2.7.5-4.7 2.9-4.7 5.8 0 3.2 2.6 5.9 5.9 5.9 3.2 0 5.9-2.6 5.9-5.9 0-2.8-2-5.2-4.7-5.8V27.6h13c.5 2.7 2.9 4.7 5.8 4.7s5.2-2 5.8-4.7H46c.6 0 1.2-.5 1.2-1.2V12.2c2.7-.5 4.7-2.9 4.7-5.8-.1-3.2-2.7-5.8-6-5.8zM9.5 46.4c0 1.9-1.6 3.5-3.5 3.5s-3.5-1.6-3.5-3.5 1.6-3.5 3.5-3.5 3.5 1.5 3.5 3.5zm16.4-16.5c-1.9 0-3.5-1.6-3.5-3.5s1.6-3.5 3.5-3.5 3.5 1.6 3.5 3.5-1.5 3.5-3.5 3.5zm20-19.9c-1.9 0-3.5-1.6-3.5-3.5S44 3 45.9 3s3.5 1.6 3.5 3.5-1.5 3.5-3.5 3.5z" fill="#b0b9be"/></g><g class="st2"><path class="st12" d="M40.4 40.2H13.3V13.1h27.1v27.1zm-24.9-2.3h22.6V15.3H15.5v22.6z"/><path class="st12" d="M41.5 45.8H12.1c-2.5 0-4.5-2-4.5-4.5V11.9c0-2.5 2-4.5 4.5-4.5h29.4c2.5 0 4.5 2 4.5 4.5v29.4c.1 2.5-2 4.5-4.5 4.5zM12.1 9.7c-1.2 0-2.3 1-2.3 2.3v29.4c0 1.2 1 2.3 2.3 2.3h29.4c1.2 0 2.3-1 2.3-2.3V11.9c0-1.2-1-2.3-2.3-2.3H12.1v.1z"/><path class="st12" d="M15.5 9.7c-.6 0-1-.5-1-1.1V1.8c0-.6.4-1.1 1-1.1s1 .5 1 1.1v6.8c0 .6-.3 1.1-1 1.1zM26.5 9.7c-.6 0-1-.5-1-1.1V1.8c0-.6.4-1.1 1-1.1s1 .5 1 1.1v6.8c0 .6-.3 1.1-1 1.1zM37.5 9.7c-.6 0-1-.5-1-1.1V1.8c0-.6.4-1.1 1-1.1s1 .5 1 1.1v6.8c0 .6-.3 1.1-1 1.1zM15.5 52.6c-.6 0-1-.5-1-1.1v-6.8c0-.6.4-1.1 1-1.1s1 .5 1 1.1v6.8c0 .6-.3 1.1-1 1.1zM26.5 52.6c-.6 0-1-.5-1-1.1v-6.8c0-.6.4-1.1 1-1.1s1 .5 1 1.1v6.8c0 .6-.3 1.1-1 1.1zM37.5 52.6c-.6 0-1-.5-1-1.1v-6.8c0-.6.4-1.1 1-1.1s1 .5 1 1.1v6.8c0 .6-.3 1.1-1 1.1zM51.7 16.8h-6.8c-.6 0-1.1-.4-1.1-1s.5-1 1.1-1h6.8c.6 0 1.1.4 1.1 1s-.5 1-1.1 1zM51.7 27.8h-6.8c-.6 0-1.1-.4-1.1-1s.5-1 1.1-1h6.8c.6 0 1.1.4 1.1 1s-.5 1-1.1 1zM51.7 38.8h-6.8c-.6 0-1.1-.4-1.1-1s.5-1 1.1-1h6.8c.6 0 1.1.4 1.1 1s-.5 1-1.1 1zM8.8 16.8H2c-.6 0-1.1-.4-1.1-1s.5-1 1.1-1h6.8c.6 0 1.1.4 1.1 1s-.5 1-1.1 1zM8.8 27.8H2c-.6 0-1.1-.4-1.1-1s.5-1 1.1-1h6.8c.6 0 1.1.4 1.1 1s-.5 1-1.1 1zM8.8 38.8H2c-.6 0-1.1-.4-1.1-1s.5-1 1.1-1h6.8c.6 0 1.1.4 1.1 1s-.5 1-1.1 1zM18.5 24.4c-.6 0-1-.5-1-1.1v-4.5c0-.6.4-1.1 1-1.1s1 .5 1 1.1v4.5c0 .6-.3 1.1-1 1.1zM23 24.4c-.6 0-1.5-.5-1.5-1.1v-4.5c0-.6.9-1.1 1.5-1.1s1.5.5 1.5 1.1v4.5c0 .6-.8 1.1-1.5 1.1zM27.5 24.4c-.6 0-1-.5-1-1.1v-4.5c0-.6.4-1.1 1-1.1s1 .5 1 1.1v4.5c0 .6-.3 1.1-1 1.1zM35.9 35.7H24.6v-6.8h11.3v6.8zm-9.1-2.3h6.8v-2.3h-6.8v2.3z"/></g><g id="Wrench_x40_2x.png" class="st2"><g class="st5"><path class="st13" d="M49 11.7l-1 1-5.6 5.6c-1 1-2.4 1.6-4 1.6-3.1 0-5.6-2.5-5.6-5.6 0-1.6.6-3 1.6-4l-1.6-1.6c-1.4 1.4-2.3 3.4-2.3 5.6 0 4.4 3.5 7.9 7.9 7.9 2.2 0 4.2-.9 5.6-2.3l4.2-4.2c.8 3.1.4 6.1-1.4 8l-6.1 6.2c-.8.8-2 1.3-3.1 1.3 0 0-3.9-.3-7.7-2.7-.2-.1-.4-.2-.6-.2-.4 0-.7.2-.9.5L11.1 48c-.8.8-1.9 1.3-3.2 1.3-2.5 0-4.5-2-4.5-4.5 0-1.2.5-2.4 1.3-3.2l19-17.2c.3-.2.5-.5.5-.9 0-.2-.1-.5-.2-.6-3.3-4.3-3.4-7.6-.6-10.6l6-6.2c1.5-1.6 3.5-1.9 4.9-1.9.9 0 1.7.1 2.6.4l-4.1 4.1 1.6 1.6L40 4.7l1-1c-2.2-1.2-4.5-1.8-6.6-1.8-2.5 0-4.8.8-6.5 2.6l-6.1 6.1c-4 4.3-2.9 8.7-.2 12.7L3.1 40a6.8 6.8 0 00-2 4.8c0 3.7 3 6.8 6.8 6.8 1.9 0 3.6-.8 4.8-2L29.5 31c3.8 2.2 7.5 2.5 8 2.5 1.7 0 3.4-.7 4.7-2l6.1-6.2c3.1-3.2 3.2-8.6.7-13.6zM7.1 44c-.2.2-.3.5-.3.8 0 .6.5 1.1 1.1 1.1S9 45.4 9 44.8s-.5-1.1-1.1-1.1c-.3 0-.6.1-.8.3z"/></g></g><g class="st2"><path class="st12" d="M20.4 19.9c-.3 0-.7-.1-.9-.4-2.6-2.6-2.6-6.9 0-9.5.5-.5 1.4-.5 1.9 0s.5 1.4 0 1.9c-1.6 1.6-1.6 4.1 0 5.7.5.5.5 1.4 0 1.9-.3.2-.7.4-1 .4zM33.3 19.9c-.3 0-.7-.1-.9-.4-.5-.5-.5-1.4 0-1.9 1.6-1.6 1.6-4.1 0-5.7-.5-.5-.5-1.4 0-1.9s1.4-.5 1.9 0c2.6 2.6 2.6 6.9 0 9.5-.3.2-.6.4-1 .4z"/><path class="st12" d="M16 24.2c-.3 0-.7-.1-.9-.4-5-5-5-13.2 0-18.2.5-.5 1.4-.5 1.9 0s.5 1.4 0 1.9c-4 4-4 10.5 0 14.4.5.5.5 1.4 0 1.9-.3.3-.7.4-1 .4zM37.7 24.2c-.3 0-.7-.1-.9-.4-.5-.5-.5-1.4 0-1.9 4-4 4-10.5 0-14.4-.5-.5-.5-1.4 0-1.9s1.4-.5 1.9 0c5 5 5 13.2 0 18.2-.3.3-.7.4-1 .4z"/><path class="st12" d="M11.8 28.4c-.3 0-.7-.1-.9-.4-3.5-3.5-5.5-8.3-5.5-13.3s2-9.7 5.5-13.3c.5-.5 1.4-.5 1.9 0s.5 1.4 0 1.9c-3 3-4.7 7.1-4.7 11.4s1.7 8.4 4.7 11.4c.5.5.5 1.4 0 1.9-.3.3-.6.4-1 .4zM41.8 28.4c-.3 0-.7-.1-.9-.4-.5-.5-.5-1.4 0-1.9 3-3 4.7-7.1 4.7-11.4s-1.7-8.3-4.7-11.4c-.5-.5-.5-1.4 0-1.9s1.4-.5 1.9 0c3.5 3.5 5.5 8.3 5.5 13.3s-2 9.7-5.5 13.3c-.3.3-.6.4-1 .4zM30.9 58.8h-6.7c-.4 0-.7-.1-1-.4s-.4-.6-.4-1l2.7-41.5c0-.7.6-1.2 1.3-1.2s1.3.5 1.4 1.2l4 41.5c0 .4-.1.7-.3 1-.3.3-.7.4-1 .4zm-5.3-2h3.8l-2.3-23.5-1.5 23.5z"/></g><g class="st2" fill="none" stroke="#84e658" stroke-width="2" stroke-miterlimit="10"><path d="M27.4 15.9c2-4.8 6.6-8.1 12-8.1 7.2 0 12.4 6.2 13.1 13.5 0 0 .4 1.8-.4 5.1-1.1 4.5-3.5 8.5-6.9 11.5L27.4 53.8 9.9 38C6.5 35 4.1 31 3 26.5c-.8-3.3-.4-5.1-.4-5.1C3.2 14 8.5 7.8 15.7 7.8c5.3 0 9.6 3.3 11.7 8.1z"/><path d="M8.5 22.9c0-5 4-9 9-9" stroke-linecap="round"/></g><g class="st2"><path transform="rotate(-45.001 47.517 4.406)" class="st16" d="M45.4 2.3h4.2v4.2h-4.2z"/><path class="st16" d="M47.5 1.4v-2M50.5 4.4h2M47.5 7.4v2M44.5 4.4h-2"/><circle class="st12" cx="42.5" cy="9.4" r="1"/><circle class="st12" cx="1.5" cy="30.4" r="1"/><circle class="st12" cx="2.5" cy="5.4" r="1"/><circle class="st12" cx="13.5" cy="14.4" r="1"/><circle class="st12" cx="50.5" cy="28.4" r="1"/><circle class="st12" cx="9.5" cy="51.4" r="1"/><circle class="st12" cx="48.5" cy="52.4" r="1"/><path class="st16" d="M39.5 28.8c-1.5-1.1-2.1-2.7-3-4.4-1.6-3.1-3.2-7.5-3.8-10.9l-1.5-8.8C30.8 2.1 29.7.9 28-1.1c-.6-.7-1.6-.7-2.2 0-1.6 2-2.7 3.2-3.2 5.8l-1.5 8.8c-.6 3.4-2.1 7.8-3.7 10.9-.8 1.6-1.5 3.3-3 4.4-3.8 2.6-9.2 6.6-10 11.1v3c0 .3.2.5.5.5l12.4 1c.6.1 1 .6 1 1.1v1.4c0 .3.2.5.5.5h2c.2 0 .4.1.4.3l.9 2.4c.1.2.2.3.4.3h8.6c.2 0 .4-.1.4-.3l.9-2.4c.1-.2.2-.3.4-.3h2c.3 0 .5-.2.5-.5v-1.4c0-.6.4-1.1 1-1.1l12.5-1c.3 0 .5-.2.5-.5v-3c-.5-4.5-6.1-8.5-9.8-11.1zM22.5 53.4v1M25.5 53.4v2M28.5 53.4v2M31.5 53.4v1"/><path class="st16" d="M32 9.4c-1.2-1.9-3-3-5.1-3-2 0-3.8 1.1-5 2.9M22.5 39.4h9M22.5 34.4h9M22.5 29.4h9M18.5 37.4v9M35.5 37.4v9M30.5 43.4v2M23.5 43.4v2M23.5 43.4h7M4.5 40.4h14M35.5 40.4h14"/></g><g class="st2"><path class="st12" d="M27.5 33.8c-6.4 0-10.7-5.6-11.7-8.3-.1 0-.1-.1-.2-.1-.4-.3-.7-.4-.9-.8-1.5-2.7-1.9-4.8-1.2-6.4.2-.5.5-.9.8-1.1-.6-1.1-1.2-3-.9-5.4.1-.6.7-1.1 1.3-1h.3c.6-1.9 2.3-5.7 7-7 1.5-.4 2.5-1.2 3.1-2.2.9-1.6.3-3.5.3-3.5-.1-.4 0-.9.4-1.2.4-.3.9-.4 1.3-.2.2.1 4.8 2.3 5.7 7.2.3-.1.6-.1 1-.1 1.4 0 3.5.6 5.5 3.5 1.8 2.5 2.1 6.3 1 9.8.4.3.8.7 1 1.3.7 1.6.3 3.7-1.2 6.4-.2.3-.5.5-.9.8-.1 0-.1.1-.2.1-.8 2.6-5.2 8.2-11.5 8.2zM16.7 23.3c.1 0 .1.1.2.1.5.3.9.6 1.1 1.1.4 1.4 4 6.9 9.5 6.9 5.6 0 9.1-5.5 9.5-6.9.1-.5.6-.8 1.1-1.1.1 0 .1-.1.2-.1 1.4-2.5 1.2-3.6 1-4s-.6-.5-.6-.5c-.3-.1-.7-.3-.8-.6-.2-.3-.2-.7-.1-1 1.3-3.1 1.1-6.5-.4-8.6C36.3 7 35 6.1 33.8 6.1c-.8 0-1.3.4-1.3.4-.4.3-.8.3-1.2.1-.4-.2-.7-.6-.7-1.1 0-2.5-1.4-4.3-2.6-5.4-.1.8-.3 1.7-.8 2.6-.9 1.6-2.4 2.7-4.5 3.3-4.7 1.3-5.5 6-5.6 6.2-.1.6-.6 1-1.3 1h-.1c0 2.3 1.1 3.6 1.1 3.6.3.3.4.8.2 1.2-.1.4-.5.7-.9.8 0 0-.4.1-.6.5 0 .4-.2 1.5 1.2 4z"/><path class="st12" d="M49.5 49.5c-.7 0-1.2-.5-1.2-1.2 0-4.6-3-8.1-9.6-11-5.2-2.3-5.1-7-5.1-7.2 0-.7.6-1.2 1.2-1.1.7 0 1.2.6 1.1 1.2 0 .2 0 3.3 3.6 4.9 7.4 3.2 11 7.5 11 13.1.2.8-.3 1.3-1 1.3zM5.3 49.5c-.7 0-1.2-.5-1.2-1.2 0-5.6 3.6-9.9 11-13.1 3.7-1.6 3.6-4.8 3.6-4.9 0-.7.5-1.2 1.1-1.2s1.2.5 1.2 1.1c0 .2.2 4.9-5.1 7.2-6.5 2.8-9.6 6.3-9.6 11 .1.6-.4 1.1-1 1.1z"/><path class="st12" d="M27.7 42.6c-7.8 0-12.1-5.9-12.2-6.1-.4-.5-.2-1.3.3-1.7s1.3-.2 1.7.3c.1.1 3.8 5.1 10.3 5.1 6.4 0 9.2-4.8 9.3-4.8.3-.6 1.1-.8 1.6-.4.6.3.8 1.1.4 1.6-.3.2-3.7 6-11.4 6z"/><path class="st12" d="M15.4 51.7c-.7 0-1.2-.5-1.2-1.2 0-6 7-10.4 7.3-10.6.6-.3 1.3-.2 1.6.4.3.6.2 1.3-.4 1.6-.1 0-6.2 3.9-6.2 8.6.1.6-.4 1.2-1.1 1.2z"/><path class="st12" d="M19.9 52.1c-.7 0-1.2-.5-1.2-1.2 0-6.1 7.6-10.3 7.9-10.4.6-.3 1.3-.1 1.6.5s.1 1.3-.5 1.6c-.1 0-6.7 3.7-6.7 8.3.1.6-.5 1.2-1.1 1.2z"/></g><g class="st2"><path class="st12" d="M7.6 52.6c-.3 0-.6-.1-.8-.3l-3.9-3.9c-.4-.4-.4-1.1 0-1.6l29.6-29.6c.4-.4 1.2-.4 1.6 0l3.9 3.9c.4.4.4 1.1 0 1.6L8.4 52.3c-.3.2-.5.3-.8.3zm-2.4-5L7.6 50l28-28-2.4-2.4-28 28zM41.5 22.9h-.2c-.5-.1-.8-.4-.9-.9l-1-6.2-6.3-1c-.5-.1-.8-.4-.9-.9-.1-.5.2-.9.6-1.2l5.8-3-.9-6.4c-.1-.5.2-.9.6-1.1.4-.2.9-.1 1.3.2l4.5 4.5L49.7 4c.4-.2.9-.1 1.3.2.3.3.4.9.2 1.3l-2.9 5.6 4.5 4.5c.3.3.4.9.2 1.3s-.7.7-1.1.6l-6.4-.9-2.9 5.7c-.3.4-.7.6-1.1.6zm-4.7-9.8l3.7.6c.5.1.8.4.9.9l.6 3.7 1.8-3.4c.2-.4.7-.7 1.1-.6l3.9.5-2.7-2.7c-.3-.3-.4-.9-.2-1.3l1.7-3.3-3.3 1.7c-.4.2-.9.1-1.3-.2l-2.7-2.7.6 3.9c.1.5-.2.9-.6 1.1l-3.5 1.8z"/><path class="st12" d="M32.4 27.8c-.3 0-.6-.1-.8-.3l-3.9-3.9c-.4-.4-.4-1.1 0-1.6.4-.4 1.1-.4 1.6 0l3.9 3.9c.4.4.4 1.1 0 1.6-.2.1-.5.3-.8.3zM41.1 46.4c-.4 0-.8-.2-1-.6l-1.3-2.4-2.4-1.3c-.4-.2-.6-.6-.6-1s.2-.8.6-1l2.4-1.3 1.3-2.4c.4-.7 1.6-.7 1.9 0l1.3 2.4 2.4 1.3c.4.2.6.6.6 1s-.2.8-.6 1l-2.4 1.3-1.2 2.4c-.2.4-.6.6-1 .6zm-1.8-5.2l.9.5c.2.1.3.3.4.4l.5.9.5-.9c.1-.2.3-.3.4-.4l.9-.5-.9-.5c-.2-.1-.3-.3-.4-.4l-.5-.9-.5.9c-.1.2-.3.3-.4.4l-.9.5zM14.5 25.3c-.4 0-.8-.2-1-.6L11 20.2l-4.5-2.5c-.4-.2-.6-.6-.6-1s.2-.8.6-1l4.5-2.5 2.5-4.5c.4-.7 1.6-.7 1.9 0l2.5 4.5 4.5 2.5c.4.2.6.6.6 1s-.2.8-.6 1l-4.5 2.5-2.5 4.5c-.1.4-.5.6-.9.6zm-5.1-8.5l3 1.7c.2.1.3.3.4.4l1.7 3 1.7-3c.1-.2.3-.3.4-.4l3-1.7-3-1.7c-.2-.1-.3-.3-.4-.4l-1.7-3-1.7 3c-.1.2-.3.3-.4.4l-3 1.7z"/></g><g class="st2"><path class="st17" d="M20.2 31.3c-.2 0-.4-.1-.6-.2L3.3 20.6c-.3-.2-.5-.6-.5-1s.2-.8.6-1L34.8 1.2c.3-.2.7-.2 1.1 0l16.3 8.1c.4.2.6.6.6 1s-.2.8-.5 1l-12.6 7.9c-.5.3-1.3.2-1.6-.4-.3-.5-.2-1.3.4-1.6l10.8-6.8-13.9-6.9L6.2 19.7l14 9 9.6-6c.5-.3 1.3-.2 1.6.4.3.5.2 1.3-.4 1.6l-10.2 6.4c-.1.1-.3.2-.6.2z"/><path class="st17" d="M20.2 37.1c-.2 0-.4-.1-.6-.2L3.3 26.5c-.4-.2-.6-.6-.5-1 0-.4.3-.8.6-1L8 22.2c.6-.3 1.3-.1 1.6.5.3.6.1 1.3-.5 1.6l-2.8 1.4 13.9 9 9.6-6.1c.5-.3 1.3-.2 1.6.4.3.5.2 1.3-.4 1.6l-10.3 6.5c0-.1-.2 0-.5 0zM39 25.3c-.4 0-.8-.2-1-.5-.3-.5-.2-1.3.4-1.6l11.1-7-2-1.3c-.5-.4-.7-1.1-.3-1.6.4-.5 1.1-.7 1.6-.3l3.5 2.3c.3.2.5.6.5 1s-.2.8-.5 1l-12.6 7.9c-.3 0-.5.1-.7.1z"/><path class="st17" d="M20.2 42.9c-.2 0-.4-.1-.6-.2L3.3 32.3c-.4-.2-.6-.6-.5-1 0-.4.3-.8.6-1L8 28c.6-.3 1.3-.1 1.6.5.3.6.1 1.3-.5 1.6l-2.8 1.4 13.9 9 9.8-6.1c.5-.3 1.3-.2 1.6.4.3.5.2 1.3-.4 1.6l-10.4 6.5c-.1-.1-.3 0-.6 0zM39 31.1c-.4 0-.8-.2-1-.5-.3-.5-.2-1.3.4-1.6l11.1-7-2-1.3c-.5-.4-.7-1.1-.3-1.6.4-.5 1.1-.7 1.6-.3l3.5 2.3c.3.2.5.6.5 1s-.2.8-.5 1l-12.7 8H39z"/><path class="st17" d="M20.2 48.7c-.2 0-.4-.1-.6-.2L3.3 38.1c-.4-.2-.6-.6-.5-1 0-.4.3-.8.6-1L8 33.8c.6-.3 1.3-.1 1.6.5.3.6.1 1.3-.5 1.6l-2.8 1.4 13.9 9 9.7-6.1c.5-.3 1.3-.2 1.6.4.3.5.2 1.3-.4 1.6l-10.4 6.5h-.5zM39 36.9c-.4 0-.8-.2-1-.5-.3-.5-.2-1.3.4-1.6l11.2-7-2-1.3c-.5-.4-.7-1.1-.3-1.6.4-.5 1.1-.7 1.6-.3l3.5 2.3c.3.2.5.6.5 1s-.2.8-.5 1l-12.7 8H39z"/><path class="st17" d="M20.2 54.5c-.2 0-.4-.1-.6-.2L3.3 43.9c-.4-.2-.6-.6-.5-1 0-.4.3-.8.6-1L8 39.6c.6-.3 1.3-.1 1.6.5.3.6.1 1.3-.5 1.6l-2.8 1.4 13.9 9 29.2-18.4-2-1.3c-.5-.4-.7-1.1-.3-1.6.4-.5 1.1-.7 1.6-.3l3.5 2.3c.3.2.5.6.5 1s-.2.8-.5 1L20.9 54.3c-.2.2-.4.2-.7.2z"/><path class="st17" d="M30.7 47.6c-.6 0-1.2-.5-1.2-1.2V24.3c0-.4-.2-.7-.5-.9l-13-9.8c-.5-.4-.6-1.1-.2-1.6.4-.5 1.1-.6 1.6-.2l13 9.8c.9.7 1.4 1.7 1.4 2.8v22.1c.1.5-.5 1.1-1.1 1.1z"/><path class="st17" d="M39 42.1c-.6 0-1.2-.5-1.2-1.2l-.1-22.4c0-.4-.2-.7-.5-.9L25.4 9c-.5-.4-.6-1.1-.3-1.6.4-.5 1.1-.6 1.6-.3l11.8 8.6c.9.6 1.4 1.7 1.4 2.8l.1 22.4c.2.7-.4 1.2-1 1.2z"/></g><g class="st2"><path class="st17" d="M49.4 22.8H27.9c-.6 0-1.1-.4-1.1-1s.5-1 1.1-1h21.5c.6 0 1.1.4 1.1 1s-.5 1-1.1 1zM49.4 44.8H27.9c-.6 0-1.1-.4-1.1-1s.5-1 1.1-1h21.5c.6 0 1.1.4 1.1 1s-.5 1-1.1 1z"/><path class="st17" d="M46.2 51.5H30c-2.4 0-4.3-1.9-4.3-4.3v-28c0-2.4 1.9-4.3 4.3-4.3h16.1c2.4 0 4.3 1.9 4.3 4.3v28c.1 2.4-1.8 4.3-4.2 4.3zM30 17.1c-1.2 0-2.2 1-2.2 2.2v28c0 1.2 1 2.2 2.2 2.2h16.1c1.2 0 2.2-1 2.2-2.2v-28c0-1.2-1-2.2-2.2-2.2H30z"/><path class="st17" d="M26.3 38.1c-1.2 0-2.2-1-2.2-2.2s1-2.2 2.2-2.2c.6 0 1.1.5 1.1 1.1s-.5 1.1-1.1 1.1c.6 0 1.1.5 1.1 1.1s-.5 1.1-1.1 1.1z"/><path class="st17" d="M26.5 41.8H6.4c-1.8 0-3.8-1.4-3.8-3.2V5.3c0-1.8 2-3.5 3.8-3.5h40.9c1.8 0 3.3 1.7 3.3 3.5v13.5h-2V5.3c0-.6-.7-1.5-1.3-1.5H6.4c-.6 0-1.8.9-1.8 1.5v33.4c0 .6 1.2 1.2 1.8 1.2h20.2v1.9h-.1z"/><path class="st17" d="M25.5 31.8h-17c-.6 0-1-.1-1-.7V7.4c0-.6.4-.6 1-.6h36.6c.6 0 .4 0 .4.6v7.4h-2v-6h-34v21h16v2zM30 51.8H17.1c-.6 0-1.1-.4-1.1-1s.5-1 1.1-1H30c.6 0 1.1.4 1.1 1s-.5 1-1.1 1z"/><path class="st17" d="M23.5 51.5c-.6 0-1-.5-1-1.1v-8.6c0-.6.4-1.1 1-1.1s1 .5 1 1.1v8.6c0 .7-.4 1.1-1 1.1z"/></g><g class="st2"><path class="st17" d="M39.8 9.4H28.9c-3.9 0-5.6 2.1-6.9 3.7-1 1.3-2.7 3.2-3.4 4h-6c-1.8 0-3.3 1.5-3.3 3.3s1.5 3.3 3.3 3.3h8.7c.2 0 .5-.1.7-.2l3.7-2.9V51c0 1.8 1.5 3.3 3.3 3.3h2.2c.8 0 1.6-.3 2.2-.8.6.5 1.3.8 2.2.8h2.2c1.8 0 3.3-1.5 3.3-3.3V34.3c2.4-.5 4.4-2.8 4.4-5.3V14.8c-.3-3-2.7-5.4-5.7-5.4zm-1.1 41.3c0 .6-.5 1.1-1.1 1.1h-2.2c-.6 0-1.1-.5-1.1-1.1V33.3c0-.6-.5-1.1-1.1-1.1s-1.1.5-1.1 1.1v17.4c0 .6-.5 1.1-1.1 1.1h-2.2c-.6 0-1.1-.5-1.1-1.1V27.9h10.9l.1 22.8zM43 29c0 1.4-1 2.6-2.2 3V17c0-.6-.5-1.1-1.1-1.1s-1.1.5-1.1 1.1v8.7H27.8v-7.6c0-.6-.5-1.1-1.1-1.1-.3 0-.5.1-.7.3l-5.1 4.1h-8.3c-.6 0-1.1-.5-1.1-1.1s.5-1.1 1.1-1.1h6.5c.3 0 .6-.1.8-.4.1-.1 2.4-2.7 3.8-4.4 1.4-1.7 2.5-2.9 5.2-2.9h10.9c1.8 0 3.3 1.5 3.3 3.3V29H43zM33.3 7.2c3 0 5.4-2.4 5.4-5.4s-2.4-5.4-5.4-5.4-5.4 2.4-5.4 5.4 2.4 5.4 5.4 5.4zm0-8.7c1.8 0 3.3 1.5 3.3 3.3s-1.5 3.3-3.3 3.3S30 3.6 30 1.8s1.5-3.3 3.3-3.3zM16.9 38.7h-13c-.3 0-.6.1-.8.4-.2.2-.3.6-.2.9l2.2 13.1c.1.5.5.9 1.1.9h8.6c.5 0 1-.4 1.1-.9L18.1 40c.1-.3 0-.6-.2-.9-.3-.2-.6-.4-1-.4zm-3 13.1H7L5.2 40.9h10.5l-1.8 10.9z"/><circle class="st17" cx="7.6" cy="30.5" r="1.6"/><circle class="st17" cx="13" cy="34.9" r="1.6"/><circle class="st17" cx="13" cy="27.3" r="1.6"/></g><g class="st2"><path class="st17" d="M40.2 42.8H8.8c-6.7 0-12.2-5.4-12.2-12.1S2 18.6 8.8 18.6c2 0 4 .5 5.8 1.5v-.8c0-8.8 7.2-16 16-16s15.9 7.1 16 15.9c4 2.3 6.4 6.4 6.4 11 0 7-5.7 12.6-12.8 12.6zM8.8 21.2c-5.3 0-9.6 4.5-9.6 9.8s4.2 9.8 9.6 9.8h31.4c5.7 0 10.3-4.8 10.3-10.4 0-3.9-2.2-7.5-5.7-9.3-.5-.2-.7-.7-.7-1.2v-.3-.3c0-7.4-6-13.5-13.5-13.5-7.4 0-13.5 6-13.5 13.5 0 1.1.1 2.2.4 3.4.1.6-.1 1.1-.6 1.4-.5.3-1.1.2-1.5-.2-1.8-1.7-4.2-2.7-6.6-2.7z"/><path class="st17" d="M46.3 21.7c-.2 0-.5-.1-.7-.2-1.6-1-3.5-1.6-5.5-1.6-.7 0-1.3-.6-1.3-1.3s.6-1.3 1.3-1.3c2.4 0 4.8.7 6.8 2 .6.4.8 1.2.4 1.8-.1.4-.5.6-1 .6z"/></g><g id="Atom" class="st2"><path d="M26.9 23.7c-1.4 0-2.5 1.1-2.5 2.5s1.1 2.5 2.5 2.5 2.5-1.1 2.5-2.5c0-1.3-1.1-2.5-2.5-2.5zm27.9 2.6c0-3-3.7-5.8-9.5-7.6 2.8-5.4 3.5-10 1.3-12.1-2.1-2.1-6.7-1.5-12.1 1.3-1.9-5.8-4.6-9.5-7.6-9.5s-5.8 3.7-7.6 9.5c-5.4-2.8-10-3.5-12.1-1.3-2.1 2.1-1.5 6.7 1.3 12.1C2.7 20.6-1 23.3-1 26.3s3.7 5.8 9.5 7.6C5.7 39.3 5 43.9 7.2 46c2.1 2.1 6.7 1.5 12.1-1.3 1.9 5.8 4.6 9.5 7.6 9.5s5.8-3.7 7.6-9.5c5.4 2.8 10 3.5 12.1 1.3 2.1-2.1 1.5-6.7-1.3-12.1 5.8-1.9 9.5-4.6 9.5-7.6zm-53.3 0c0-2.2 3.1-4.2 8.1-5.6 1.1 1.8 2.3 3.7 3.8 5.6-1.5 1.9-2.7 3.8-3.8 5.6-4.9-1.5-8.1-3.4-8.1-5.6zm15.4-4.2c-.7.7-1.3 1.5-1.9 2.2-1.1-1.4-2.1-2.8-3-4.2 1.6-.3 3.3-.6 5.1-.9-.1 1-.2 1.9-.2 2.9zm.2 11.2c-1.8-.2-3.5-.5-5.1-.9.9-1.3 1.9-2.7 3-4.2.6.7 1.2 1.4 1.9 2.2 0 1 .1 1.9.2 2.9zM9 44.2c-1.6-1.6-.7-5.2 1.8-9.7 2 .5 4.2 1 6.6 1.3.3 2.4.7 4.6 1.3 6.6-4.6 2.5-8.2 3.3-9.7 1.8zm8.4-27.5c-2.4.3-4.6.7-6.6 1.3C8.3 13.5 7.4 9.9 9 8.3s5.2-.7 9.7 1.8c-.6 2-1 4.3-1.3 6.6zm16.5-.3c-.9-.1-1.9-.2-2.9-.2-.7-.7-1.4-1.3-2.2-1.9 1.4-1.1 2.8-2.1 4.2-3 .4 1.6.7 3.3.9 5.1zM26.9.9C29.1.9 31.1 4 32.5 9c-1.8 1.1-3.7 2.3-5.6 3.8-1.9-1.5-3.8-2.7-5.6-3.8C22.7 4 24.7.9 26.9.9zm-6.2 10.5c1.4.9 2.8 1.9 4.2 3-.7.6-1.5 1.2-2.2 1.9-1 .1-1.9.1-2.9.2.3-1.9.6-3.6.9-5.1zm-.8 24.7c.9.1 1.9.2 2.9.2.7.7 1.4 1.3 2.2 1.9-1.4 1.1-2.8 2.1-4.2 3-.4-1.6-.7-3.3-.9-5.1zm7 15.5c-2.2 0-4.2-3.1-5.6-8.1 1.8-1.1 3.7-2.3 5.6-3.8 1.9 1.5 3.8 2.7 5.6 3.8-1.4 5-3.4 8.1-5.6 8.1zm6.2-10.5c-1.3-.9-2.8-1.9-4.2-3 .7-.6 1.5-1.2 2.2-1.9 1-.1 1.9-.1 2.9-.2-.3 1.9-.6 3.6-.9 5.1zm1.3-11.7c-.7.8-1.4 1.5-2.2 2.2L30 33.8c-1 0-2.1.1-3.1.1-1.1 0-2.1-.1-3.1-.1-.8-.7-1.5-1.4-2.2-2.2l-2.2-2.2c0-1-.1-2.1-.1-3.1s0-2.1.1-3.1c.7-.7 1.4-1.5 2.2-2.2l2.2-2.2c1 0 2.1-.1 3.1-.1 1.1 0 2.1 0 3.1.1.7.7 1.5 1.4 2.2 2.2l2.2 2.2c0 1 .1 2.1.1 3.1s0 2.1-.1 3.1zM44.8 8.3c1.6 1.6.7 5.2-1.8 9.7-2-.5-4.2-1-6.6-1.3-.3-2.4-.7-4.6-1.3-6.6 4.6-2.5 8.2-3.3 9.7-1.8zm-6 16c-.6-.7-1.2-1.4-1.9-2.2-.1-1-.1-1.9-.2-2.9 1.8.2 3.5.5 5.1.9-.9 1.3-1.9 2.7-3 4.2zm0 3.9c1.1 1.4 2.1 2.8 3 4.2-1.6.3-3.3.6-5.1.9.1-.9.2-1.9.2-2.9.7-.7 1.3-1.5 1.9-2.2zm6 16c-1.6 1.6-5.2.7-9.7-1.8.5-2 1-4.2 1.3-6.6 2.4-.3 4.6-.7 6.6-1.3 2.6 4.5 3.4 8.1 1.8 9.7zm-.7-12.4c-1.1-1.8-2.3-3.7-3.8-5.6 1.5-1.9 2.7-3.8 3.8-5.6 5 1.4 8.1 3.4 8.1 5.6.1 2.3-3.1 4.2-8.1 5.6z" fill="#b0babf"/></g><path class="st13" d="M53.6 19.5H34.1L26.8 0l-7.3 19.5H0l15.8 12.2-7.3 21.9 18.3-13.4 18.3 13.4-7.3-21.9 15.8-12.2zM40.4 47.1l-12.1-8.9-1.5-1-1.4 1.1-12.1 8.9 4.9-14.7.5-1.6-1.4-1.1L7.1 22h14l.6-1.6 5-13.4 5 13.4.6 1.6h14l-10.2 7.8-1.2 1 .5 1.6 5 14.7z" id="Star_x40_2x.png"/></svg>